<?xml version="1.0" encoding="utf-8"?>
<!-- Generator: Adobe Illustrator 16.0.0, SVG Export Plug-In . SVG Version: 6.00 Build 0)  -->
<!DOCTYPE svg PUBLIC "-//W3C//DTD SVG 1.1//EN" "http://www.w3.org/Graphics/SVG/1.1/DTD/svg11.dtd">
<svg version="1.1" xmlns="http://www.w3.org/2000/svg" xmlns:xlink="http://www.w3.org/1999/xlink" x="0px" y="0px" width="612px"
	 height="792px" viewBox="0 0 612 792" enable-background="new 0 0 612 792" xml:space="preserve">
<g id="question_mark" display="none">
	<g display="inline">
		<path fill="#BE1E2D" stroke="#000000" stroke-width="8" stroke-linejoin="round" stroke-miterlimit="10" d="M253.765,454.75
			c-7.125,0-17.705-0.588-26.738-8.621C222.453,442.062,217,434.573,217,422c0-19.795,17.492-34.265,36.011-49.584
			C272.179,356.559,292,340.162,292,318.5c0-18.543-12.83-38.5-41-38.5c-27.6,0-38.75,26.111-38.75,37c0,16.54,11.897,21.929,12,22
			l-17.352,11.911c-0.742-0.507-12.648-7.715-12.648-33.911c0-22.479,20.209-55,56.75-55c38.734,0,59,28.423,59,56.5
			c0,30.132-24.182,50.136-45.517,67.785C249.321,398.828,235,410.675,235,422c0,4.799,1.305,8.291,3.988,10.678
			c5.661,5.034,16.012,6.572,20.262,3.072L253.765,454.75z"/>
	</g>
	
		<circle display="inline" fill="#BE1E2D" stroke="#000000" stroke-width="8" stroke-miterlimit="10" cx="251" cy="496.75" r="18.5"/>
	<g display="inline">
		<path fill="#BE1E2D" d="M259.25,435.75c-4.25,3.5-14.601,1.962-20.262-3.072C236.305,430.291,235,426.799,235,422
			c0-11.325,14.321-23.172,29.483-35.715C285.818,368.636,310,348.632,310,318.5c0-28.077-20.266-56.5-59-56.5
			c-36.541,0-56.75,32.521-56.75,55c0,26.196,11.907,33.404,12.648,33.911L224.25,339c-0.103-0.071-12-5.46-12-22
			c0-10.889,11.15-37,38.75-37c28.17,0,41,19.957,41,38.5c0,21.662-19.821,38.059-38.989,53.916
			C234.492,387.735,217,402.205,217,422c0,12.573,5.453,20.062,10.027,24.129c9.033,8.033,19.612,8.621,26.738,8.621L259.25,435.75z
			"/>
	</g>
	<circle display="inline" fill="#BE1E2D" cx="251" cy="496.75" r="18.5"/>
</g>
<g id="border">
	<g>
		<g>
			<path d="M259.25,451.75c-4.25,3.5-14.601,1.962-20.262-3.072C236.305,446.291,235,442.799,235,438
				c0-11.325,14.321-23.172,29.483-35.715C285.818,384.636,310,364.632,310,334.5c0-28.077-20.266-56.5-59-56.5
				c-36.541,0-56.75,32.521-56.75,55c0,26.196,11.907,33.404,12.648,33.911L224.25,355c-0.103-0.071-12-5.46-12-22
				c0-10.889,11.15-37,38.75-37c28.17,0,41,19.957,41,38.5c0,21.662-19.821,38.059-38.989,53.916
				C234.492,403.734,217,418.205,217,438c0,12.573,5.453,20.062,10.027,24.129c9.033,8.033,19.612,8.621,26.738,8.621L259.25,451.75
				z"/>
		</g>
		<circle cx="251" cy="512.75" r="18.5"/>
	</g>
	<circle cx="460.334" cy="404.625" r="44.666"/>
</g>
<g id="go" display="none">
	<g display="inline">
		<polygon fill="#FFFFFF" points="211.857,413.977 246.657,413.977 246.657,411.571 246.657,404.439 246.657,394.988 
			246.657,385.105 236.775,385.105 225.691,385.105 225.691,394.988 236.775,394.988 236.775,404.439 221.137,404.439 
			221.137,373.334 246.657,373.334 246.657,364.14 211.857,364.14 		"/>
		<path fill="#FFFFFF" d="M255.765,364.14v7.39v1.805v31.105v7.132v2.405h36.433V364.14H255.765z M282.832,404.439h-17.186v-31.105
			h17.186V404.439z"/>
	</g>
</g>
<g id="railroad" display="none">
	<image overflow="visible" width="276" height="251" xlink:href="DEE6B949.jpg"  transform="matrix(1 0 0 1 115 239)">
	</image>
	<path display="inline" d="M327.96,144.442c0-30.219,22.256-55.832,30.33-64.13l0.085-0.688V63.5H293c0,0-19.25,7.75-19.25,28
		s13.75,33,13.75,33v1.25H179.204l17.421-56.077l-8.189-16.346h-42.977l-8.189,16.346l18.041,58.073H141.69
		c0,0-17.815,11.504-17.815,31.814s17.815,31.814,17.815,31.814h5.088L109.75,239h45.75l16.668-47.625h9.206
		c-5.157,4.928-8.374,11.867-8.374,19.563C173,225.883,185.117,238,200.063,238s27.063-12.117,27.063-27.063
		c0-7.695-3.217-14.635-8.374-19.563h63.051c-4.237,4.94-6.802,11.356-6.802,18.375c0,15.602,12.648,28.25,28.25,28.25
		s28.25-12.648,28.25-28.25c0-7.019-2.565-13.435-6.803-18.375h20.824v-7.979l0.116-0.936
		C339.576,178.086,327.96,166.792,327.96,144.442z"/>
</g>
<g id="parking" display="none">
	<g display="inline">
		<path fill="#F4B4B5" stroke="#000000" stroke-width="7" stroke-linejoin="round" stroke-miterlimit="10" d="M206.203,434.685
			c0,0,1.182,39.315,1.182,46.315s4,13.334,11.667,13.334s11.667-7.333,11.667-13s-2-41.333-2-41.333L206.203,434.685z"/>
		<path fill="#F4B4B5" stroke="#000000" stroke-width="7" stroke-linejoin="round" stroke-miterlimit="10" d="M325.203,434.685
			c0,0,1.182,39.315,1.182,46.315s3.999,13.334,11.666,13.334s11.667-7.333,11.667-13s-2-41.333-2-41.333L325.203,434.685z"/>
	</g>
	
		<circle display="inline" fill="#F4B4B5" stroke="#000000" stroke-width="5" stroke-linejoin="round" stroke-miterlimit="10" cx="277.961" cy="409.334" r="7"/>
	<path display="inline" fill="#EE333F" stroke="#000000" stroke-width="11" stroke-miterlimit="10" d="M277.96,459.833
		c12.483,0,16.357-12.482,20.174-12.482c3.816,0,60.72-6.729,63.964-7.089c3.245-0.36,6.91-0.841,6.91-4.626s0-22.65,0-24.633
		c0,0,0.6-3.905-4.267-5.407s-20.366-4.565-22.53-4.926c-2.162-0.36-5.106-0.721-5.106-7.75s10.929-52.086,11.429-58.586
		s1-12.834-14.833-21.167s-34.314-15-55.74-15s-39.906,6.667-55.74,15s-15.333,14.667-14.833,21.167s11.429,51.556,11.429,58.586
		s-2.944,7.39-5.107,7.75s-17.664,3.424-22.53,4.926s-4.266,5.407-4.266,5.407c0,1.982,0,20.848,0,24.633s3.665,4.266,6.909,4.626
		s60.148,7.089,63.964,7.089C261.604,447.351,265.477,459.833,277.96,459.833z"/>
	<path display="inline" fill="#EE333F" d="M277.96,459.833c12.483,0,16.357-12.482,20.174-12.482c3.816,0,60.72-6.729,63.964-7.089
		c3.245-0.36,6.91-0.841,6.91-4.626s0-22.65,0-24.633c0,0,0.6-3.905-4.267-5.407s-20.366-4.565-22.53-4.926
		c-2.162-0.36-5.106-0.721-5.106-7.75s10.929-52.086,11.429-58.586s1-12.834-14.833-21.167s-34.314-15-55.74-15
		s-39.906,6.667-55.74,15s-15.333,14.667-14.833,21.167s11.429,51.556,11.429,58.586s-2.944,7.39-5.107,7.75
		s-17.664,3.424-22.53,4.926s-4.266,5.407-4.266,5.407c0,1.982,0,20.848,0,24.633s3.665,4.266,6.909,4.626
		s60.148,7.089,63.964,7.089C261.604,447.351,265.477,459.833,277.96,459.833z"/>
	
		<rect x="243.294" y="326.333" display="inline" fill="#F4B4B5" stroke="#000000" stroke-width="7" stroke-linejoin="round" stroke-miterlimit="10" width="69.333" height="31.333"/>
	
		<circle display="inline" fill="#F4B4B5" stroke="#000000" stroke-width="7" stroke-linejoin="round" stroke-miterlimit="10" cx="277.961" cy="409.334" r="30.666"/>
	
		<circle display="inline" fill="#F4B4B5" stroke="#000000" stroke-width="5" stroke-linejoin="round" stroke-miterlimit="10" cx="277.961" cy="409.334" r="7"/>
</g>
</svg>
