<?xml version="1.0" encoding="utf-8"?>
<!-- Generator: Adobe Illustrator 16.0.0, SVG Export Plug-In . SVG Version: 6.00 Build 0)  -->
<!DOCTYPE svg PUBLIC "-//W3C//DTD SVG 1.1//EN" "http://www.w3.org/Graphics/SVG/1.1/DTD/svg11.dtd">
<svg version="1.1" id="Layer_1" xmlns="http://www.w3.org/2000/svg" xmlns:xlink="http://www.w3.org/1999/xlink" x="0px" y="0px"
	 width="123px" height="261px" viewBox="0 0 123 261" enable-background="new 0 0 123 261" xml:space="preserve">
<g>
	<g>
		<path fill="#BE1E2D" d="M62.711,194.599c-6.894,0-17.128-0.568-25.868-8.34c-4.425-3.936-9.701-11.181-9.701-23.345
			c0-19.15,16.923-33.15,34.839-47.971c18.544-15.341,37.721-31.204,37.721-52.162c0-17.94-12.413-37.248-39.667-37.248
			c-26.702,0-37.49,25.262-37.49,35.797c0,16.002,11.51,21.216,11.61,21.284L17.37,94.138C16.652,93.647,5.133,86.673,5.133,61.33
			c0-21.748,19.551-53.211,54.904-53.211c37.474,0,57.081,27.498,57.081,54.662c0,29.152-23.395,48.505-44.036,65.58
			c-14.668,12.135-28.524,23.597-28.524,34.553c0,4.643,1.262,8.021,3.858,10.331c5.477,4.87,15.491,6.358,19.603,2.972
			L62.711,194.599z"/>
		<path fill="#3D2B2B" d="M62.711,198.469c-5.374,0-17.96,0-28.439-9.318c-5.017-4.461-10.999-12.636-10.999-26.236
			c0-20.973,17.604-35.535,36.243-50.953c17.857-14.772,36.318-30.044,36.318-49.18c0-16.076-11.201-33.378-35.796-33.378
			c-23.946,0-33.62,22.531-33.62,31.927c0,12.452,7.851,17.012,9.425,17.8c0.159,0.08,0.359,0.194,0.506,0.295
			c1.051,0.722,1.679,1.916,1.679,3.19c0,1.275-0.629,2.468-1.68,3.189L19.56,97.329c-1.316,0.904-3.055,0.906-4.375,0.003
			C11.901,95.161,1.263,86.194,1.263,61.33c0-23.33,20.93-57.081,58.774-57.081c40.014,0,60.951,29.445,60.951,58.532
			c0,30.973-24.141,50.943-45.439,68.562c-13.334,11.031-27.121,22.437-27.121,31.571c0,4.627,1.461,6.462,2.561,7.438
			c2.574,2.289,6.838,3.826,10.612,3.826c1.757,0,3.237-0.354,3.958-0.949c1.309-1.079,3.167-1.177,4.586-0.246
			c1.418,0.932,2.063,2.677,1.594,4.307l-5.309,18.382C65.951,197.328,64.436,198.469,62.711,198.469z"/>
	</g>
</g>
<g>
	<path fill="#3D2B2B" d="M60.037,257.001c-12.003,0-21.769-9.766-21.769-21.769c0-12.002,9.765-21.768,21.769-21.768
		c12.002,0,21.768,9.766,21.768,21.768C81.805,247.235,72.039,257.001,60.037,257.001z"/>
</g>
<g>
	<path fill="#BE1E2D" d="M68.019,176.217c-4.112,3.387-14.126,1.898-19.603-2.972c-2.596-2.31-3.858-5.688-3.858-10.331
		c0-10.956,13.855-22.418,28.524-34.553c20.642-17.075,44.036-36.428,44.036-65.58c0-27.164-19.606-54.662-57.081-54.662
		c-35.353,0-54.904,31.463-54.904,53.211c0,25.343,11.519,32.317,12.237,32.808l16.787-11.523c-0.1-0.068-11.61-5.282-11.61-21.284
		c0-10.535,10.788-35.797,37.49-35.797c27.253,0,39.667,19.308,39.667,37.248c0,20.958-19.177,36.82-37.721,52.162
		c-17.917,14.821-34.839,28.821-34.839,47.971c0,12.164,5.275,19.409,9.701,23.345c8.739,7.771,18.974,8.34,25.868,8.34
		L68.019,176.217z"/>
</g>
<circle fill="#BE1E2D" cx="60.036" cy="235.232" r="17.898"/>
</svg>
