<?xml version="1.0" encoding="utf-8"?>
<!-- Generator: Adobe Illustrator 16.0.0, SVG Export Plug-In . SVG Version: 6.00 Build 0)  -->
<!DOCTYPE svg PUBLIC "-//W3C//DTD SVG 1.1//EN" "http://www.w3.org/Graphics/SVG/1.1/DTD/svg11.dtd">
<svg version="1.1" xmlns="http://www.w3.org/2000/svg" xmlns:xlink="http://www.w3.org/1999/xlink" x="0px" y="0px" width="444px"
	 height="366px" viewBox="0 0 444 366" enable-background="new 0 0 444 366" xml:space="preserve">
<g id="Layer_2" display="none">
	<path display="inline" fill-rule="evenodd" clip-rule="evenodd" fill="#FFFFFF" d="M353.703,187.342
		c0.578-0.228,0.757-0.36,0.936-0.358c8.883,0.07,12.383-2.447,15.265-10.955c0.184-0.546,0.493-1.057,0.798-1.553
		c7.975-13.009,16.095-25.931,23.906-39.037c15.176-25.466,30.197-51.025,45.206-76.59c0.788-1.343,0.951-3.084,1.269-4.667
		c0.916-4.557-1.677-7.969-3.807-11.559c-5.112-8.611-9.828-17.509-16.874-24.762c-1.414-1.456-3.675-2.576-5.686-2.864
		c-4.702-0.673-9.489-0.753-14.243-1.06c-18.334-1.185-36.668-2.371-55.002-3.542c-15.042-0.96-30.086-1.899-45.13-2.849
		c-10.087-0.637-20.178-1.242-30.263-1.924c-8.145-0.551-16.277-1.269-24.424-1.784c-12.997-0.822-26-1.558-39.004-2.279
		c-3.086-0.171-5.282,1.189-6.859,3.964c-7.876,13.854-15.939,27.604-23.785,41.476c-13.588,24.028-27.044,48.133-40.605,72.177
		c-2.455,4.353-4.679,8.646-1.828,13.606c-0.6,0.318-0.832,0.511-1.094,0.57c-21.786,4.872-43.534,9.922-65.374,14.535
		c-17.764,3.752-35.614,7.122-53.481,10.35c-5.211,0.941-9.048,3.268-10.765,8.112c-0.814,2.297-0.279,5.097-0.237,7.667
		c0.13,7.873,0.358,15.743,0.476,23.615c0.234,15.659,0.496,31.318,0.604,46.979c0.1,14.486,0.103,28.977-0.032,43.463
		c-0.054,5.738,3.5,11.967,9.652,13.555c12.593,3.248,24.987,7.283,37.415,11.149c29.129,9.063,58.238,18.192,87.34,27.343
		c24.004,7.549,47.973,15.212,72.007,22.664c1.958,0.607,4.517,0.568,6.424-0.152c24.311-9.189,47.321-21.225,70.701-32.46
		c18.823-9.043,37.72-17.938,56.666-26.718c6.26-2.9,9.709-7.555,9.718-14.508c0.042-32.207,0.073-64.415,0.107-96.623
		C353.705,190.684,353.703,189.045,353.703,187.342z"/>
	<path display="inline" fill-rule="evenodd" clip-rule="evenodd" fill="#FFFFFF" d="M84.063,221.448
		c-2.529,6.069-4.888,11.728-7.33,17.588c-13.462-7.368-28.557-8.324-42.842-12.182c-3.069-0.829-5.386,1.305-5.417,5.031
		c-0.057,6.614,0.002,13.231,0.082,19.847c0.086,7.099,0.277,14.195,0.372,21.294c0.066,4.969,0.747,5.738,5.706,7.051
		c6.935,1.833,13.879,3.658,20.734,5.763c24.507,7.523,48.977,15.167,73.464,22.758c16.415,5.089,32.823,10.19,49.255,15.221
		c4.069,1.246,8.242,2.155,12.32,3.376c2.296,0.688,3.155,0.182,3.191-2.334c0.193-13.323,0.512-26.644,0.791-39.965
		c0.078-3.696,0.078-7.396,0.274-11.085c0.309-5.815-2.521-10.074-7.542-11.969c-5.459-2.058-11.366-3.014-17.138-4.143
		c-10.761-2.105-21.563-3.999-32.353-5.959c-4.651-0.845-9.313-1.635-14.178-2.486c0.841-2.373,1.692-4.613,2.429-6.893
		c1.245-3.851,1.095-7.391-2.067-10.47c-0.636-0.619-0.82-2.156-0.596-3.126c0.983-4.253,2.108-8.479,3.355-12.663
		c0.605-2.032,0.298-3.213-1.772-4.164c-1.198-0.551-2.186-1.819-2.949-2.976c-0.674-1.022-0.939-2.325-1.326-3.522
		c-2.089-6.472-8.51-8.414-13.783-3.998c-1.603,1.341-2.838,3.169-4.077,4.892c-2.629,3.657-5.09,7.438-7.778,11.05
		c-0.424,0.569-1.678,0.521-2.708,0.802c0-3.745-0.046-7.12,0.012-10.493c0.065-3.694,0.213-7.388,0.352-11.08
		c0.095-2.55,1.511-3.801,3.963-3.273c10.441,2.245,20.889,4.465,31.286,6.903c4.835,1.134,5.169,1.787,4.909,6.854
		c-0.235,4.562-0.783,9.108-0.954,13.672c-0.083,2.203,0.23,4.455,0.63,6.637c0.794,4.334,2.866,6.904,7.774,7.921
		c15.022,3.112,29.905,6.9,44.852,10.387c1.213,0.284,2.496,0.414,3.741,0.383c3.608-0.089,4.744-1.338,4.818-5.02
		c0.155-7.682,0.41-15.361,0.431-23.043c0.006-2.264,0.843-3.137,2.895-2.653c4.024,0.948,8.061,1.912,11.975,3.223
		c0.923,0.309,1.962,2.016,1.959,3.076c-0.033,15.95-0.232,31.898-0.393,47.847c-0.252,25-0.497,50.001-0.773,75
		c-0.025,2.322-0.255,4.644-0.427,7.587c-1.964-0.26-3.896-0.219-5.627-0.79c-26.836-8.867-53.605-17.941-80.475-26.703
		c-26.223-8.552-52.538-16.822-78.825-25.178c-8.973-2.852-17.97-5.632-26.988-8.336c-1.785-0.534-2.418-1.375-2.469-3.243
		c-0.58-21.19-1.308-42.377-1.863-63.568c-0.379-14.485-0.533-28.978-0.817-43.466c-0.079-4.016,1.497-5.592,5.465-4.836
		c3.23,0.615,6.404,1.572,9.542,2.568c0.579,0.184,1.185,1.254,1.235,1.956c0.204,2.799,0.282,5.614,0.241,8.421
		c-0.062,4.175-0.546,8.361-0.334,12.517c0.266,5.198,3.429,8.638,8.487,9.731c14.421,3.118,28.86,6.156,43.289,9.243
		C81.587,220.747,83.058,221.188,84.063,221.448z M23.339,289.013c1.208-1.519,2.518-2.428,2.456-3.232
		c-0.149-1.948-1.711-3.169-3.64-2.848c-0.883,0.147-2.36,1.948-2.188,2.275C20.626,286.463,21.844,287.426,23.339,289.013z
		 M199.603,343.868c1.438-1.744,2.702-2.747,3.127-4.027c0.199-0.597-1.23-1.732-1.921-2.624c-1.181,1.148-2.493,2.204-3.43,3.525
		C197.194,341.005,198.453,342.289,199.603,343.868z M84.824,304.049c0.049-0.434,0.099-0.866,0.148-1.301
		c-1.015-0.726-1.978-1.904-3.062-2.029c-0.823-0.096-2.469,1.059-2.577,1.82c-0.257,1.825,1.189,2.838,2.932,2.768
		C83.134,305.272,83.972,304.492,84.824,304.049z M171.476,327.39c-1.187,1.594-2.316,2.834-2.188,2.981
		c0.99,1.139,2.223,2.067,3.38,3.06c0.523-0.642,1.61-1.501,1.463-1.886C173.656,330.311,172.726,329.252,171.476,327.39z
		 M24.051,251.1c-1.518-1.259-2.428-2.253-3.556-2.78c-0.276-0.129-1.952,1.568-1.804,1.902c0.557,1.252,1.601,2.287,2.463,3.403
		C21.927,252.952,22.698,252.279,24.051,251.1z M145.343,319.331c-1.164,1.425-2.262,2.244-2.486,3.256
		c-0.122,0.553,1.563,2.17,1.867,2.035c1.163-0.518,2.098-1.551,3.118-2.393C147.18,321.463,146.52,320.696,145.343,319.331z
		 M24.941,219.613c-1.254-1.299-2.184-2.261-3.113-3.221c-0.591,0.877-1.826,1.95-1.632,2.589c0.356,1.176,1.554,2.097,2.401,3.123
		C23.25,221.41,23.904,220.715,24.941,219.613z M201.761,260.652c1.182-1.201,1.967-1.999,2.75-2.796
		c-0.935-0.73-1.836-1.963-2.814-2.028c-0.736-0.049-1.911,1.29-2.219,2.229C199.326,258.523,200.688,259.484,201.761,260.652z
		 M116.3,316.588c0.847-1.278,1.841-2.127,1.715-2.751c-0.17-0.847-1.285-2.188-1.84-2.117c-0.961,0.124-1.803,1.17-2.696,1.829
		C114.257,314.388,115.036,315.227,116.3,316.588z M22.506,190.626c-1.09-1.21-1.791-1.987-2.492-2.766
		c-0.666,0.799-1.771,1.552-1.86,2.411c-0.073,0.699,0.947,1.921,1.715,2.159C20.401,192.595,21.329,191.479,22.506,190.626z
		 M53.737,295.435c-1.396-0.96-2.125-1.817-2.939-1.908c-0.665-0.072-1.429,0.772-2.15,1.211c0.791,0.733,1.486,1.667,2.417,2.107
		C51.464,297.034,52.348,296.203,53.737,295.435z M163.69,249.914c0.068,0.562,0.137,1.123,0.206,1.687
		c1.278,0.122,2.556,0.244,3.835,0.366c-0.299-0.979-0.394-2.614-0.944-2.785C165.914,248.911,164.738,249.618,163.69,249.914z
		 M140.646,243.212c-1.503-0.642-2.308-1.271-3.063-1.216c-0.615,0.043-1.172,0.905-1.754,1.403
		c0.637,0.545,1.262,1.507,1.911,1.521C138.47,244.938,139.221,244.104,140.646,243.212z M202.392,294.358
		c-0.81,1.089-1.764,1.847-1.643,2.335c0.184,0.739,1.117,1.291,1.731,1.924c0.487-0.623,1.319-1.223,1.36-1.874
		C203.881,296.122,203.097,295.448,202.392,294.358z M205.909,230.404c-0.993-0.939-1.621-1.533-2.249-2.126
		c-0.465,0.625-1.283,1.244-1.294,1.878c-0.011,0.618,0.726,1.656,1.276,1.76C204.165,232.014,204.87,231.143,205.909,230.404z
		 M50.027,223.006c-1.236-0.875-1.903-1.585-2.706-1.811c-0.377-0.105-1.017,0.717-1.538,1.118c0.681,0.556,1.296,1.262,2.073,1.599
		C48.217,224.069,48.889,223.509,50.027,223.006z"/>
	<path display="inline" fill-rule="evenodd" clip-rule="evenodd" fill="#FFFFFF" d="M230.965,212.377
		c0.233,6.707,0.558,12.616,0.625,18.528c0.265,23.63,0.4,47.262,0.698,70.891c0.072,5.83,0.544,11.655,0.88,17.479
		c0.219,3.793,2.105,4.888,5.512,3.306c7.134-3.311,14.261-6.632,21.411-9.907c21.724-9.946,43.447-19.895,65.199-29.779
		c2.735-1.244,3.857-3.083,3.877-6.099c0.128-20.612,0.449-41.223,0.555-61.836c0.057-10.979-0.123-21.963-0.358-32.942
		c-0.053-2.477,0.769-4.334,2.853-5.244c2.736-1.196,5.649-2.026,8.54-2.818c1.848-0.506,1.765,1.047,1.765,2.183
		c-0.001,5.446-0.021,10.894-0.095,16.339c-0.435,31.798-0.92,63.596-1.267,95.395c-0.029,2.696-0.803,4.119-3.291,5.307
		c-28.926,13.807-57.762,27.801-86.69,41.604c-11.563,5.518-23.294,10.684-35.458,16.242c-0.404-1.479-1.015-2.694-1.027-3.914
		c-0.275-26.938-0.647-53.878-0.642-80.817c0.003-15.166,0.714-30.33,0.941-45.497c0.039-2.657,0.917-4.315,3.363-5.022
		C222.335,214.621,226.357,213.608,230.965,212.377z M224.305,339.365c1.531-1.675,2.656-2.905,3.78-4.137
		c-0.953-0.718-1.849-1.933-2.872-2.052c-2.139-0.251-3.886,0.986-4.005,3.185C221.167,337.128,222.821,337.987,224.305,339.365z
		 M225.493,258.403c-1.042-1.467-1.681-2.364-2.319-3.264c-1.024,1.107-2.437,2.075-2.909,3.381
		c-0.235,0.653,1.251,1.926,1.958,2.918C223.205,260.527,224.187,259.617,225.493,258.403z M283.794,312.13
		c1.455-1.359,2.659-2.257,3.46-3.429c0.156-0.229-1.261-1.528-1.951-2.334c-1.033,1.128-2.155,2.193-3.018,3.438
		C282.128,310.032,283.035,310.994,283.794,312.13z M257.298,318.825c-0.361,0.001-0.724,0.002-1.087,0.003
		c-0.622,1.287-1.526,2.532-1.738,3.883c-0.094,0.612,1.19,1.439,1.85,2.17c0.891-1.135,2.09-2.162,2.542-3.45
		C259.078,320.819,257.865,319.71,257.298,318.825z M226.163,296.177c-1.029-1.17-1.7-1.932-2.372-2.695
		c-0.683,0.938-1.772,1.823-1.907,2.835c-0.093,0.695,1.139,1.567,1.78,2.361C224.38,297.961,225.096,297.244,226.163,296.177z
		 M225.624,229.071c-0.988-0.859-1.907-1.894-2.086-1.777c-0.905,0.583-1.8,1.366-2.299,2.295c-0.174,0.325,0.792,1.264,1.239,1.922
		C223.401,230.796,224.323,230.08,225.624,229.071z M312.532,299.496c1.067-1.343,1.995-2.092,2.249-3.023
		c0.11-0.4-1.354-1.79-1.784-1.662c-0.851,0.254-1.765,1.143-2.086,1.984C310.731,297.264,311.693,298.169,312.532,299.496z
		 M336.074,186.563c-0.961,1.122-1.583,1.85-2.205,2.576c0.681,0.531,1.462,1.574,2.018,1.466c0.72-0.141,1.483-1.116,1.778-1.9
		C337.801,188.345,336.865,187.582,336.074,186.563z M331.893,286.449c0.091,0.491,0.183,0.981,0.273,1.472c1.25,0,2.502,0,3.754,0
		c-0.181-0.879-0.362-1.758-0.543-2.638C334.215,285.672,333.054,286.061,331.893,286.449z M332.692,217.854
		c0.234,0.288,0.468,0.576,0.702,0.863c1.178-0.208,2.914,0.766,3.091-1.581c0.045-0.584-0.78-1.234-1.204-1.854
		C334.418,216.139,333.556,216.996,332.692,217.854z M334.667,249.2c-0.431,0.249-0.861,0.498-1.292,0.746
		c0.451,1.152,0.902,2.303,1.354,3.453c0.62-0.63,1.835-1.389,1.732-1.861C336.272,250.67,335.308,249.971,334.667,249.2z"/>
	<path display="inline" fill-rule="evenodd" clip-rule="evenodd" fill="#FFFFFF" d="M265.932,162.554
		c-2.107,2.253-1.551,4.259-0.849,6.149c0.842,2.27,1.911,4.456,2.905,6.669c1.601,3.572,1.072,6.55-2.443,8.154
		c-4.094,1.868-8.571,2.909-12.903,4.234c-1.562,0.478-3.246,0.584-4.774,1.134c-4.56,1.639-9.046,3.481-13.607,5.114
		c-4.833,1.731-7.408-0.018-7.36-5.13c0.031-3.29,0.522-6.575,0.787-9.864c0.188-2.308,0.341-4.618,0.51-6.928
		c-0.283-0.133-0.565-0.265-0.848-0.398c-0.729,1.208-1.785,2.331-2.13,3.641c-1.507,5.705-3.046,11.422-4.09,17.222
		c-0.607,3.373-1.574,5.819-5.255,6.582c-2.927,0.607-5.752,1.878-8.693,2.203c-5.114,0.564-7.021-1.108-7.119-6.323
		c-0.081-4.351,0.44-8.715,0.767-13.068c0.171-2.28,0.498-4.547,0.754-6.82c-0.322-0.111-0.645-0.221-0.968-0.332
		c-0.941,1.7-2.247,3.299-2.756,5.121c-1.407,5.037-2.627,10.14-3.61,15.274c-0.365,1.901-1.012,3.007-2.894,2.698
		c-4.554-0.748-9.098-1.602-13.59-2.653c-0.557-0.13-1.029-1.702-1.106-2.641c-0.921-11.153,3.037-20.883,9.479-29.584
		c6.008-8.116,12.629-15.775,18.895-23.704c2.045-2.588,3.851-5.369,5.703-8.105c1.674-2.474,2.402-2.528,4.212-0.04
		c1.428,1.964,2.684,4.06,4.188,5.962c2.373,3.001,4,3.191,7.558,1.765c0.841-0.337,2.33,0.116,3.141,0.718
		c1.298,0.964,2.271,2.362,3.403,3.557c0.107,0.114,0.361,0.088,0.55,0.13c0.168-0.083,0.418-0.125,0.484-0.258
		c2.99-6.031,9.459-6.019,14.252,0.008c2.591,3.257,3.388,7.134,4.003,11.097c0.551,3.551,1.005,7.127,1.797,10.626
		c0.425,1.878,1.469,3.615,2.232,5.416c0.288-0.078,0.576-0.157,0.866-0.235c0-2.166,0.16-4.346-0.028-6.496
		c-0.813-9.284-1.776-18.555-2.58-27.839c-0.326-3.772,3.131-5.079,5.366-6.852c0.818-0.648,3.415,0.354,4.857,1.193
		c5.519,3.207,10.838,6.755,16.342,9.988c8.058,4.734,12.823,12.009,16.008,20.469c1.227,3.26,2.017,6.698,2.775,10.106
		c0.152,0.686-0.547,2.112-1.168,2.339c-7.282,2.664-14.613,5.202-21.978,7.629c-0.533,0.176-1.789-0.593-2.103-1.222
		c-1.205-2.43-1.976-5.085-3.266-7.462C269.966,168.692,267.942,165.77,265.932,162.554z"/>
	<path display="inline" fill-rule="evenodd" clip-rule="evenodd" fill="#FFFFFF" d="M413.929,22.685
		c-1.456,3.555-2.413,6.924-4.106,9.871c-14.819,25.779-29.609,51.578-44.741,77.174c-8.803,14.891-18.23,29.413-27.329,44.131
		c-0.938,1.517-1.961,2.094-3.789,1.828c-10.867-1.575-21.734-3.172-32.635-4.483c-4.56-0.548-6.665-3.361-8.657-7.642
		c14.131,0.445,27.516,2.956,40.943,5.019c9.443-15.523,18.932-30.877,28.177-46.376c13.742-23.038,27.319-46.173,40.941-69.282
		c2.027-3.438,1.266-5.535-2.724-6.141c-4.788-0.727-9.671-0.884-14.521-1.138c-24.283-1.271-48.575-2.395-72.853-3.755
		c-25.636-1.437-51.262-3.039-76.887-4.665c-8.045-0.511-16.079-1.245-24.1-2.064c-2.236-0.228-3.751,0.277-4.849,2.216
		c-2.201,3.888-4.473,7.736-6.662,11.631c-16.523,29.399-33.031,58.807-49.552,88.207c-2.219,3.95-0.561,7.075,4.074,7.642
		c10.709,1.308,21.426,2.562,32.124,3.968c4.521,0.594,9.014,1.434,13.481,2.351c0.984,0.202,1.804,1.208,2.699,1.842
		c-1.068,0.958-2.071,2.624-3.217,2.73c-2.573,0.237-5.237-0.166-7.829-0.548c-13.549-1.996-27.087-4.075-40.632-6.104
		c-2.209-0.331-4.431-0.589-6.653-0.821c-4.27-0.444-4.946-1.508-2.907-5.401c3.197-6.107,6.475-12.177,9.898-18.161
		c16.02-28.005,32.052-56.004,48.226-83.921c1.922-3.318,4.589-6.257,7.229-9.073c0.759-0.81,2.652-0.868,3.991-0.774
		c14.256,1.002,28.495,2.268,42.759,3.131c14.563,0.882,29.148,1.371,43.722,2.074c32.35,1.559,64.7,3.102,97.044,4.756
		C400.701,21.217,406.781,22.013,413.929,22.685z"/>
	<path display="inline" fill-rule="evenodd" clip-rule="evenodd" fill="#FFFFFF" d="M154.692,118.171
		c5.097-8.954,9.943-17.475,14.797-25.992c10.872-19.073,21.748-38.144,32.62-57.216c2.021-3.545,4.045-7.089,6.042-10.648
		c1.631-2.911,3.927-4.138,7.402-3.925c32.219,1.978,64.443,3.839,96.667,5.723c27.464,1.606,54.93,3.188,82.392,4.838
		c0.923,0.055,2.437,0.591,2.574,1.168c0.254,1.058-0.044,2.462-0.596,3.453c-0.934,1.677-1.93,3.716-3.472,4.562
		c-2.139,1.175-4.822,1.961-7.243,1.892c-4.634-0.134-9.233-1.18-13.872-1.509c-19.583-1.394-39.177-2.662-58.767-3.978
		c-24.538-1.649-49.073-3.311-73.612-4.945c-6.985-0.465-13.983-0.77-20.961-1.328c-1.919-0.154-2.93,0.697-3.763,2.085
		c-5.15,8.578-10.516,17.037-15.361,25.784c-11.016,19.884-21.851,39.87-32.549,59.926c-1.626,3.048-3.593,3.478-6.333,2.614
		C158.741,120.069,156.931,119.126,154.692,118.171z"/>
	<path display="inline" fill-rule="evenodd" clip-rule="evenodd" fill="#FFFFFF" d="M33.769,170.686
		c1.724,0.672,3.395,1.604,5.182,1.974c11.313,2.346,22.647,4.601,33.986,6.822c16.583,3.249,33.177,6.437,49.763,9.665
		c17.157,3.34,34.333,6.59,51.457,10.09c9.209,1.881,18.314,4.265,27.493,6.305c5.631,1.251,11.169,0.692,16.66-1.116
		c20.473-6.742,40.995-13.337,61.458-20.107c18.279-6.046,36.23-12.937,53.552-21.396c0.843-0.412,1.817-0.723,2.744-0.765
		c3.434-0.153,7.064,1.555,7.025,3.502c-0.065,3.208-2.783,4.242-5.251,5.067c-19.62,6.563-39.296,12.956-58.896,19.579
		c-18.769,6.343-37.468,12.891-56.189,19.37c-2.846,0.984-5.58,2.579-8.494,3.004c-3.269,0.476-6.803,0.481-10.016-0.233
		c-24.727-5.5-49.355-11.452-74.11-16.822c-30.85-6.692-61.794-12.943-92.689-19.431c-6.172-1.296-12.335-2.673-18.426-4.295
		c-1.612-0.429-2.944-1.912-4.405-2.91c1.522-0.775,2.962-1.895,4.577-2.274c28.645-6.729,57.303-13.4,85.983-19.975
		c2.714-0.622,5.673-0.185,8.382-0.82c7.929-1.858,15.798-3.97,23.669-6.063c3.659-0.972,7.264-2.145,10.904-3.188
		c0.741-0.212,1.527-0.288,2.298-0.366c1.978-0.2,3.995,0.104,4.519,2.24c0.574,2.34-1.823,2.429-3.206,2.988
		c-15.484,6.256-31.801,9.431-48.017,13.028c-11.84,2.625-23.536,5.901-35.381,8.506c-8.153,1.793-16.458,2.889-24.678,4.389
		c-3.281,0.599-6.516,1.446-9.772,2.18C33.853,169.983,33.811,170.335,33.769,170.686z"/>
	<path display="inline" fill-rule="evenodd" clip-rule="evenodd" fill="#FFFFFF" d="M160.396,175.372
		c10.081,2.046,8.576,10.008,8.798,17.79c-5.674-0.886-11.122-1.564-16.497-2.611c-12.771-2.488-25.508-5.142-38.255-7.748
		c-2.376-0.486-2.833-1.863-1.03-3.565c1.253-1.185,2.858-1.989,4.271-3.012c2.417-1.751,2.631-2.899,0.831-5.263
		c-1.293-1.696-2.863-3.186-4.108-4.914c-2.184-3.03-1.957-4.738,1.446-6.19c2.608-1.113,5.66-1.14,8.451-1.886
		c3.125-0.836,6.139-2.113,9.282-2.859c1.894-0.449,3.943-0.354,5.918-0.318c2.216,0.041,4.437,0.487,6.636,0.372
		c1.16-0.061,2.678-0.638,3.339-1.509c2.245-2.957,5.039-2.347,7.884-1.628c3.699,0.936,6.791,2.95,9.047,6.004
		c0.583,0.789,0.808,2.36,0.433,3.25C164.919,165.842,162.75,170.295,160.396,175.372z M154.67,186.115
		c2.549-1.733,1.806-3.75,0.927-5.367c-1.648-3.035-1.149-5.453,0.792-8.216c1.496-2.129,2.163-4.841,3.198-7.294
		c-0.375-0.155-0.748-0.31-1.123-0.465c-0.317,0.751-0.705,1.482-0.942,2.258c-2.025,6.597-5.95,9.656-12.785,9.737
		c-2.324,0.028-4.654-0.24-6.979-0.412c-3.485-0.258-6.964-0.638-10.453-0.776c-1.079-0.043-2.182,0.531-3.274,0.823
		c3.708,1.53,7.274,2.456,10.891,3.077c4.728,0.811,9.545,1.221,14.054-0.85c2.543-1.168,3.638-0.19,4.307,2.007
		C153.805,182.35,154.17,184.111,154.67,186.115z M123.061,163.694c0.014,0.214,0.029,0.429,0.044,0.644
		c2.616-0.284,5.276-0.361,7.839-0.9c3.752-0.79,7.451-1.369,11.118,0.15c3.317,1.373,6.421,0.779,8.989-1.401
		c2.596-2.206,5.25-3.829,8.742-3.747c0.063,0.001,0.132-0.3,0.239-0.56c-1.931-1.648-3.982-1.041-5.938-0.178
		c-1.677,0.74-3.258,1.706-4.855,2.618c-2.236,1.277-4.398,1.221-6.947,0.624c-2.811-0.658-5.93-0.744-8.784-0.277
		C129.956,161.247,126.538,162.648,123.061,163.694z"/>
	<path display="inline" fill-rule="evenodd" clip-rule="evenodd" fill="#FFFFFF" d="M103.514,256.493
		c6.37-2.52,9.139-7.796,10.568-14.081c0.257-1.133,0.541-2.292,0.553-3.443c0.03-2.544,1.515-3.344,3.733-3.491
		c2.464-0.164,3.193,1.497,3.498,3.419c0.178,1.124,0.301,2.431-0.096,3.441c-2.521,6.409-5.897,12.224-12.053,15.895
		c-0.496,0.295-1.053,0.704-1.581,0.701c-5.52-0.031-11.05,0.049-16.555-0.283c-3.777-0.227-6.005-2.97-7.486-6.167
		c-4.476-9.664-4.134-19.004,2.28-27.779c3.119-4.268,7.736-4.545,11.404-0.714c1.473,1.538,2.573,3.477,4.181,4.833
		c1.794,1.514,3.845,3.241,6.016,3.65c2.544,0.48,3.591,1.729,3.976,3.829c1.007,5.491,0.504,10.688-3.779,14.838
		c-1.702,1.649-3.555,3.145-5.339,4.709C103.06,256.064,103.287,256.277,103.514,256.493z M91.529,252.36
		c2.812-4.857,5.41-9.22,7.759-13.711c0.147-0.281-1.547-1.989-2.596-2.284c-0.827-0.233-2.532,0.417-2.887,1.144
		c-1.211,2.483-1.918,5.208-2.973,7.776C89.946,247.443,89.402,249.501,91.529,252.36z"/>
	<path display="inline" fill-rule="evenodd" clip-rule="evenodd" fill="#FFFFFF" d="M406.754,47.191
		c0.826-2.218,1.395-4.276,2.334-6.148c1.69-3.372,3.555-6.661,5.461-9.918c0.386-0.661,1.226-1.313,1.944-1.432
		c0.488-0.081,1.29,0.67,1.678,1.237c2.245,3.278,4.403,6.615,6.601,9.926c0.859,1.295,1.805,2.538,2.605,3.867
		c4.054,6.724,2.979,11.594-1.156,18.519c-1.524,2.552-4.652,2.481-6.691,0.243c-3.598-3.948-7.267-7.836-10.727-11.902
		C407.816,50.422,407.449,48.735,406.754,47.191z M421.39,45.946c-1.115-1.368-1.873-2.297-2.631-3.226
		c-0.896,1.077-2.511,2.166-2.493,3.228c0.02,1.121,1.594,2.215,2.49,3.321C419.537,48.283,420.318,47.296,421.39,45.946z"/>
	<path display="inline" fill-rule="evenodd" clip-rule="evenodd" fill="#FFFFFF" d="M342.82,156.275
		c0.571-1.521,0.938-3.406,1.909-4.896c2.109-3.237,4.569-6.245,6.802-9.404c0.942-1.333,1.886-1.266,2.817-0.204
		c4.278,4.875,8.541,9.765,12.703,14.737c0.396,0.472,0.352,1.726,0.01,2.334c-2.461,4.382-5.04,8.699-7.606,13.021
		c-0.978,1.647-2.249,1.726-3.504,0.367c-4.2-4.547-8.371-9.12-12.495-13.735C343.062,158.052,343.081,157.24,342.82,156.275z
		 M358.436,155.078c-1.944-1.362-2.978-2.599-4.198-2.825c-1.983-0.368-2.721,1.208-2.579,2.964
		c0.131,1.628,0.384,3.814,2.499,3.517C355.44,158.554,356.505,156.809,358.436,155.078z"/>
	<path display="inline" fill-rule="evenodd" clip-rule="evenodd" fill="#FFFFFF" d="M386.098,83.248
		c6.938,4.221,12.645,9.776,17.07,16.649c0.28,0.436,0.27,1.352-0.002,1.804c-1.902,3.158-3.704,6.41-5.934,9.329
		c-2.734,3.577-5.354,3.476-8.481,0.262c-2.507-2.575-5.172-4.997-7.661-7.588c-3.843-3.999-4.108-6.823-1.191-11.4
		c1.826-2.867,3.707-5.701,5.573-8.542C385.571,83.609,385.764,83.517,386.098,83.248z M392.711,98.817
		c-1.83-1.418-3.095-3.088-3.951-2.899c-1.292,0.283-2.756,1.669-3.302,2.947c-0.587,1.375,2.02,3.83,3.564,3.321
		C390.191,101.801,391.03,100.418,392.711,98.817z"/>
	<path display="inline" fill-rule="evenodd" clip-rule="evenodd" fill="#FFFFFF" d="M255.403,126.369
		c-0.675,3.191-6.655,6.362-13.145,7.684c-10.493,2.137-19.285-1.131-27.038-8.129C228.503,129.077,241.718,131.732,255.403,126.369
		z"/>
	<path display="inline" fill-rule="evenodd" clip-rule="evenodd" fill="#FFFFFF" d="M109.204,221.642
		c-5.149-0.107-7.515-2.864-6.664-7.092c1.014-5.034,2.827-9.568,8.422-11.204c0.556-0.163,1.175-0.575,1.653-0.448
		c1.235,0.327,2.408,0.892,3.605,1.361c-0.82,0.957-1.5,2.12-2.503,2.812c-0.912,0.628-2.193,0.698-3.283,1.093
		c-3.745,1.358-4.556,4.944-1.779,7.763c0.545,0.554,1.257,1.025,1.588,1.687c0.443,0.889,1.01,2.069,0.741,2.855
		C110.744,221.168,109.437,221.502,109.204,221.642z"/>
	<path display="inline" fill-rule="evenodd" clip-rule="evenodd" fill="#FFFFFF" d="M115.6,232.294
		c0.362-2.576,0.483-4.661,0.972-6.655c1.005-4.108,1.005-7.841-2.625-10.833c-0.491-0.406-0.434-1.478-0.631-2.241
		c0.879-0.188,2.165-0.843,2.568-0.488c2.274,1.994,4.857,3.926,6.341,6.46C124.202,221.911,120.199,230.397,115.6,232.294z"/>
	<path display="inline" fill-rule="evenodd" clip-rule="evenodd" fill="#FFFFFF" d="M103.801,225.037c3.091,0,6.215,0,10.294,0
		c-1.016,1.414-1.434,2.673-2.182,2.916C109.198,228.836,104.753,227.047,103.801,225.037z"/>
	<path display="inline" fill-rule="evenodd" clip-rule="evenodd" fill="#FFFFFF" d="M301.19,226.479
		c-1.232,1.456-2.274,2.969-4.036,0.939c-1.483-1.706-1.322-3.17,0.878-3.645c1.785-0.385,4.052-0.555,5.568,0.224
		c3.78,1.942,6.642,5.5,6.849,9.54c0.256,5.01-1.011,9.994-6.319,12.831c-9.154,4.893-18.931,8.029-28.842,10.858
		c-2.053,0.587-4.07,1.585-6.147,1.716c-2.19,0.139-4.587-0.147-6.607-0.96c-2.143-0.861-3.23-2.665-2.51-5.419
		c0.979-3.739,1.416-7.617,2.147-11.423c0.144-0.747,0.42-1.567,0.898-2.129c0.866-1.02,1.932-1.869,2.913-2.79
		c0.643,1.594,1.494,3.145,1.834,4.802c0.157,0.762-0.511,1.884-1.113,2.573c-1.808,2.071-1.255,4.161-0.223,6.23
		c1.023,2.053,2.913,1.465,4.631,1.279c7.346-0.793,14.717-1.486,21.574-4.571c4.791-2.156,8.827-5.261,11.87-9.592
		c1.982-2.819,1.938-4.423-0.267-7C303.345,228.84,302.354,227.775,301.19,226.479z"/>
	<path display="inline" fill-rule="evenodd" clip-rule="evenodd" fill="#FFFFFF" d="M299.6,216.297
		c1.568,2.964,0.272,4.364-1.987,5.327c-2.106,0.896-4.228,1.761-6.343,2.639c-0.323,0.534-0.646,1.068-0.968,1.602
		c0.915,0.351,2.056,0.48,2.684,1.116c0.638,0.643,0.768,1.788,1.119,2.713c-1.036,0.225-2.079,0.641-3.108,0.61
		c-0.796-0.024-1.574-0.608-2.41-0.965c-1.459,2.131-0.267,3.475,1.312,4.348c7.086,3.921,4.376,6.662-0.792,8.99
		c-5.866,2.643-12.152,4.355-18.171,6.442c-1.841-3.712-1.385-5.545,1.639-7.34c2.001-1.188,4.178-2.077,6.214-3.208
		c2.956-1.644,4.154-4.828,3.097-7.931c-0.87-2.554-3.289-4.156-6.633-3.203c-3.765,1.072-7.263,3.085-10.873,4.698
		c-1.403,0.626-2.896,2.254-4.006-0.331c-0.919-2.143,0.039-3.208,2.1-3.85C274.796,224.121,287.102,220.229,299.6,216.297z"/>
	<path display="inline" fill-rule="evenodd" clip-rule="evenodd" fill="#FFFFFF" d="M275.361,234.909
		c-1.635,1.43-2.565,2.243-3.497,3.057c-0.798-1.368-1.752-2.683-2.28-4.148c-0.119-0.331,1.516-1.845,1.874-1.695
		C272.675,232.633,273.683,233.644,275.361,234.909z"/>
	<path display="inline" fill-rule="evenodd" clip-rule="evenodd" fill="#FFFFFF" d="M276.238,230.243
		c3.895,1.585,4.053,2.564,0.817,6.212C276.743,234.072,276.522,232.403,276.238,230.243z"/>
	<path display="inline" fill-rule="evenodd" clip-rule="evenodd" fill="#FFFFFF" d="M258.735,122.972
		c0,0,17.328-11.336,16.68-19.595s-3.319-13.447-8.663-12.796c-5.345,0.651-8.259,2.918-13.685,0.975
		c-5.425-1.943-10.526-5.992-12.712-4.372c-2.186,1.619-11.174,8.258-13.198,8.501c-2.024,0.242-9.636-2.834-13.522-2.268
		c-3.887,0.567-10.801,1.861-11.498,13.279c-2.348,2.105-2.996,5.263-2.996,5.263l9.797,8.178l4.535,4.696
		c0,0,18.217,2.834,27.853,2.834S258.735,122.972,258.735,122.972z"/>
	<path display="inline" fill-rule="evenodd" clip-rule="evenodd" fill="#FFFFFF" d="M202.405,105.714
		c0.483-0.103,0.918-0.106,1.261,0.019c2.292,0.834,3.646-0.219,4.736-1.734c1.785-2.478,3.499-2.574,5.802-0.664
		c2.591,2.149,4.387,1.917,5.679-1.205c1.686-4.075,3.121-3.391,6.084-1.128c4.504,3.439,6.422,3.208,10.012-1.121
		c4.789-5.773,8.425-6.152,14.382-1.498c4.216,3.293,7.117,3.401,11.609,0.466c1.84-1.203,3.707-2.363,5.535-3.526
		c3.253,4.624,2.412,6.604-2.691,7.237c-1.157,0.144-2.352,0.158-3.466,0.46c-2.783,0.753-5.529,1.636-8.291,2.467
		c-0.824-0.054-1.825-0.832-2.704-1.729c-4.098-4.181-7.588-5.218-12.459-0.524c-4.16,4.009-9.116,6.148-14.714,2.144
		c-1.126,0.93-2.15,1.814-3.217,2.646c-2.086,1.625-4.047,2.513-6.366,0.066c-0.694-0.731-2.605-0.901-3.699-0.542
		c-2.756,0.907-5.364,2.262-8.74,3.751c1.434,1.32,2.823,2.935,4.526,4.088c2.788,1.888,6.189,2.98,7.611,6.478
		c0.116,0.288,0.555,0.588,0.875,0.626c5.271,0.629,10.547,1.216,16.294,1.866c-1.235-3.415-2.436-6.476-3.411-9.606
		c-0.25-0.804-0.074-2.395,0.401-2.631c0.964-0.48,2.919-0.781,3.309-0.272c1.287,1.685,2.324,3.681,2.95,5.714
		c0.562,1.82,0.35,3.865,0.689,5.774c0.128,0.719,0.726,1.754,1.319,1.928c5.758,1.679,11.153,1.294,13.921-5.625
		c0.647-1.619,1.078-3.325,1.763-4.926c0.813-1.908,1.666-4.862,4.125-3.85c2.628,1.083,0.964,3.668,0.098,5.581
		c-0.769,1.694-1.604,3.358-2.409,5.035c0.289,0.272,0.577,0.543,0.865,0.815c4.011-2.446,8.262-4.582,11.951-7.442
		c2.607-2.021,4.855-4.787,6.549-7.643c2.474-4.17,0.985-8.351-1.59-11.999c-2.334-3.307-5.81-2.451-9.096-1.858
		c-1.146,0.207-2.291,0.416-3.435,0.636c-4.407,0.85-8.274-0.399-11.731-3.095c-3.397-2.65-5.542-2.799-9.217-0.438
		c-1.717,1.103-3.372,2.303-5.082,3.417c-3.809,2.48-7.831,3.232-12.183,1.523c-5.652-2.218-10.441-1.08-14.494,3.386
		c-0.82,0.905-1.64,1.811-2.46,2.716c-0.198-0.096-0.397-0.191-0.595-0.288C202.15,102.629,201.811,104.29,202.405,105.714z"/>
</g>
<g id="Layer_1">
	<g>
		<path fill-rule="evenodd" clip-rule="evenodd" fill="#3D2B2B" d="M353.703,187.342c0,1.703,0.002,3.342,0,4.98
			c-0.034,32.208-0.065,64.416-0.107,96.623c-0.009,6.953-3.458,11.607-9.718,14.508c-18.946,8.78-37.843,17.675-56.666,26.718
			c-23.38,11.235-46.391,23.271-70.701,32.46c-1.908,0.721-4.467,0.76-6.424,0.152c-24.034-7.452-48.002-15.115-72.007-22.664
			c-29.102-9.15-58.211-18.28-87.34-27.343c-12.427-3.866-24.822-7.901-37.415-11.149c-6.152-1.588-9.706-7.816-9.652-13.555
			c0.134-14.486,0.131-28.977,0.032-43.463c-0.108-15.661-0.37-31.32-0.604-46.979c-0.118-7.872-0.346-15.742-0.476-23.615
			c-0.042-2.57-0.577-5.37,0.237-7.667c1.717-4.844,5.554-7.17,10.765-8.112c17.868-3.228,35.718-6.598,53.481-10.35
			c21.84-4.613,43.588-9.664,65.374-14.535c0.262-0.059,0.494-0.252,1.094-0.57c-2.851-4.96-0.627-9.253,1.828-13.606
			c13.561-24.044,27.017-48.148,40.605-72.177c7.845-13.873,15.909-27.622,23.785-41.476c1.577-2.775,3.773-4.136,6.859-3.964
			c13.003,0.722,26.007,1.458,39.004,2.279c8.146,0.515,16.279,1.233,24.424,1.784c10.085,0.683,20.176,1.287,30.263,1.924
			c15.044,0.95,30.088,1.888,45.13,2.849c18.334,1.171,36.668,2.358,55.002,3.542c4.754,0.307,9.541,0.387,14.243,1.06
			c2.011,0.288,4.271,1.408,5.686,2.864c7.046,7.253,11.762,16.151,16.874,24.762c2.13,3.589,4.723,7.002,3.807,11.559
			c-0.317,1.583-0.48,3.324-1.269,4.667c-15.009,25.564-30.03,51.124-45.206,76.59c-7.812,13.106-15.932,26.028-23.906,39.037
			c-0.305,0.496-0.614,1.007-0.798,1.553c-2.882,8.508-6.382,11.025-15.265,10.955C354.46,186.981,354.281,187.114,353.703,187.342z
			 M230.466,124.357c-1.235-3.415-2.436-6.476-3.411-9.606c-0.25-0.804-0.074-2.395,0.401-2.631c0.964-0.48,2.919-0.781,3.309-0.272
			c1.287,1.685,2.324,3.681,2.95,5.714c0.562,1.82,0.35,3.865,0.689,5.774c0.128,0.719,0.726,1.754,1.319,1.928
			c5.758,1.679,11.153,1.294,13.921-5.625c0.647-1.619,1.078-3.325,1.763-4.926c0.813-1.908,1.666-4.862,4.125-3.85
			c2.628,1.083,0.964,3.668,0.098,5.581c-0.769,1.694-1.604,3.358-2.409,5.035c0.289,0.272,0.577,0.543,0.865,0.815
			c4.011-2.446,8.262-4.582,11.951-7.442c2.607-2.021,4.855-4.787,6.549-7.643c2.474-4.17,0.985-8.351-1.59-11.999
			c-2.334-3.307-5.81-2.451-9.096-1.858c-1.146,0.207-2.291,0.416-3.435,0.636c-4.407,0.85-8.274-0.399-11.731-3.095
			c-3.397-2.65-5.542-2.799-9.217-0.438c-1.717,1.103-3.372,2.303-5.082,3.417c-3.809,2.48-7.831,3.232-12.183,1.523
			c-5.652-2.218-10.441-1.08-14.494,3.386c-0.82,0.905-1.64,1.811-2.46,2.716c-0.307-0.148-0.613-0.295-0.919-0.444
			c0.557-1.485,0.794-3.219,1.726-4.412c3.865-4.947,9.36-5.781,14.786-4.052c5.163,1.645,9.064,0.407,12.914-2.739
			c1.123-0.918,2.415-1.633,3.638-2.428c4.221-2.748,8.387-3.26,12.716-0.069c3.713,2.737,7.891,3.556,12.456,2.444
			c2.071-0.504,4.215-0.761,6.342-0.963c4.551-0.431,7.841,1.351,9.621,5.067c3.409,7.111,1.022,17.536-5.083,22.478
			c-2.688,2.174-5.282,4.461-8.108,6.86c7.289,8.237,15.727,14.27,25.827,16.416c13.169,2.8,26.668,4.058,40.032,5.935
			c3.504,0.493,5.683-1.539,7.242-4.316c6.467-11.512,12.786-23.106,19.358-34.557c2.409-4.196,5.797-7.857,8.002-12.14
			c7.309-14.196,15.141-28.051,24.504-41.007c2.54-3.515,1.755-5.262-2.565-5.666c-15.104-1.414-30.194-3.027-45.318-4.156
			c-37.925-2.832-75.87-5.383-113.796-8.198c-5.582-0.414-9.101,1.535-11.769,6.458c-6.669,12.308-13.7,24.42-20.57,36.619
			c-7.3,12.962-14.61,25.919-21.855,38.913c-1.958,3.513-1.392,4.63,2.574,5.3c9.29,1.568,18.583,3.133,27.901,4.523
			c2.5,0.373,3.747-1.498,4.621-3.64c0.944-2.31-1.105-2.193-2.167-2.938c-2.38-1.669-5.009-3.118-6.974-5.189
			c-1.126-1.187-1.889-3.607-1.502-5.139c0.654-2.588,4.946-5.373,6.733-4.724c2.292,0.834,3.646-0.219,4.736-1.734
			c1.785-2.478,3.499-2.574,5.802-0.664c2.591,2.149,4.387,1.917,5.679-1.205c1.686-4.075,3.121-3.391,6.084-1.128
			c4.504,3.439,6.422,3.208,10.012-1.121c4.789-5.773,8.425-6.152,14.382-1.498c4.216,3.293,7.117,3.401,11.609,0.466
			c1.84-1.203,3.707-2.363,5.535-3.526c3.253,4.624,2.412,6.604-2.691,7.237c-1.157,0.144-2.352,0.158-3.466,0.46
			c-2.783,0.753-5.529,1.636-8.291,2.467c-0.824-0.054-1.825-0.832-2.704-1.729c-4.098-4.181-7.588-5.218-12.459-0.524
			c-4.16,4.009-9.116,6.148-14.714,2.144c-1.126,0.93-2.15,1.814-3.217,2.646c-2.086,1.625-4.047,2.513-6.366,0.066
			c-0.694-0.731-2.605-0.901-3.699-0.542c-2.756,0.907-5.364,2.262-8.74,3.751c1.434,1.32,2.823,2.935,4.526,4.088
			c2.788,1.888,6.189,2.98,7.611,6.478c0.116,0.288,0.555,0.588,0.875,0.626C219.443,123.121,224.719,123.708,230.466,124.357z
			 M84.063,221.448c-1.005-0.261-2.476-0.701-3.972-1.021c-14.429-3.087-28.868-6.125-43.289-9.243
			c-5.058-1.094-8.221-4.533-8.487-9.731c-0.212-4.155,0.272-8.342,0.334-12.517c0.041-2.807-0.037-5.622-0.241-8.421
			c-0.051-0.701-0.657-1.772-1.235-1.956c-3.138-0.996-6.313-1.953-9.542-2.568c-3.969-0.756-5.544,0.82-5.465,4.836
			c0.285,14.488,0.438,28.98,0.817,43.466c0.555,21.191,1.284,42.378,1.863,63.568c0.051,1.868,0.685,2.709,2.469,3.243
			c9.018,2.704,18.015,5.484,26.988,8.336c26.287,8.355,52.602,16.626,78.825,25.178c26.87,8.762,53.639,17.836,80.475,26.703
			c1.73,0.571,3.663,0.53,5.627,0.79c0.171-2.943,0.401-5.265,0.427-7.587c0.276-24.999,0.521-50,0.773-75
			c0.161-15.948,0.36-31.896,0.393-47.847c0.002-1.061-1.037-2.768-1.959-3.076c-3.914-1.311-7.95-2.274-11.975-3.223
			c-2.052-0.483-2.888,0.39-2.895,2.653c-0.021,7.682-0.276,15.361-0.431,23.043c-0.074,3.682-1.21,4.931-4.818,5.02
			c-1.245,0.031-2.528-0.099-3.741-0.383c-14.946-3.486-29.829-7.274-44.852-10.387c-4.908-1.017-6.98-3.587-7.774-7.921
			c-0.4-2.182-0.714-4.434-0.63-6.637c0.171-4.563,0.719-9.11,0.954-13.672c0.261-5.066-0.073-5.72-4.909-6.854
			c-10.396-2.438-20.845-4.658-31.286-6.903c-2.452-0.527-3.868,0.724-3.963,3.273c-0.139,3.692-0.287,7.386-0.352,11.08
			c-0.059,3.373-0.012,6.748-0.012,10.493c1.03-0.281,2.284-0.232,2.708-0.802c2.688-3.611,5.148-7.393,7.778-11.05
			c1.239-1.723,2.474-3.551,4.077-4.892c5.273-4.416,11.694-2.474,13.783,3.998c0.387,1.197,0.652,2.5,1.326,3.522
			c0.763,1.156,1.75,2.425,2.949,2.976c2.07,0.951,2.378,2.132,1.772,4.164c-1.247,4.184-2.373,8.41-3.355,12.663
			c-0.224,0.97-0.04,2.507,0.596,3.126c3.162,3.079,3.312,6.619,2.067,10.47c-0.736,2.279-1.587,4.52-2.429,6.893
			c4.865,0.852,9.527,1.642,14.178,2.486c10.79,1.96,21.592,3.854,32.353,5.959c5.771,1.129,11.679,2.085,17.138,4.143
			c5.021,1.895,7.851,6.153,7.542,11.969c-0.196,3.689-0.197,7.389-0.274,11.085c-0.279,13.321-0.598,26.642-0.791,39.965
			c-0.036,2.516-0.895,3.022-3.191,2.334c-4.078-1.221-8.251-2.13-12.32-3.376c-16.432-5.03-32.84-10.132-49.255-15.221
			c-24.487-7.591-48.957-15.234-73.464-22.758c-6.855-2.104-13.799-3.93-20.734-5.763c-4.958-1.313-5.64-2.082-5.706-7.051
			c-0.095-7.099-0.286-14.195-0.372-21.294c-0.08-6.615-0.139-13.232-0.082-19.847c0.032-3.727,2.349-5.86,5.417-5.031
			c14.285,3.857,29.38,4.813,42.842,12.182C79.175,233.176,81.534,227.518,84.063,221.448z M185.385,320.56
			c0.111-1.846,0.25-3.265,0.274-4.686c0.23-13.812,0.42-27.625,0.671-41.435c0.079-4.358-0.584-5.452-4.901-6.5
			c-17.855-4.338-35.771-8.444-53.561-13.032c-4.702-1.213-7.827-0.456-10.795,3.331c-2.594,3.311-5.955,6.21-10.229,6.873
			c-8.04,1.247-15.59-0.057-22.374-5.137c-4.786-3.583-6.476-8.766-8.614-13.861c-0.513-1.223-1.796-2.66-2.993-2.974
			c-10.147-2.655-20.354-5.086-30.552-7.543c-1.025-0.248-2.112-0.241-3.171-0.34c-2.258-0.212-3.137,0.86-3.128,3.078
			c0.041,9.922-0.198,19.849,0.068,29.763c0.228,8.462,0.64,8.892,8.828,11.187c8.516,2.386,17.231,4.086,25.689,6.649
			c31.169,9.446,62.257,19.162,93.402,28.69C170.943,316.747,177.993,318.519,185.385,320.56z M239.512,315.734
			c1.438-0.599,2.337-0.941,3.209-1.34c18.661-8.526,37.339-17.014,55.966-25.611c7.313-3.375,14.51-7.004,21.768-10.502
			c1.962-0.946,2.856-2.472,2.9-4.646c0.063-3.11,0.386-6.22,0.367-9.328c-0.146-24.413-0.363-48.827-0.52-73.241
			c-0.044-7.077-0.873-7.697-7.59-5.397c-17.658,6.042-35.347,11.995-52.969,18.138c-7.423,2.588-14.711,5.564-22.059,8.367
			c-1.836,0.7-2.547,1.851-2.5,3.986c0.214,9.822,0.075,19.652,0.289,29.475c0.324,14.868,0.844,29.73,1.257,44.596
			c0.037,1.355-0.099,2.715-0.168,4.072c-0.292,5.797-0.646,11.591-0.841,17.391C238.582,312.875,239.128,314.077,239.512,315.734z
			 M230.965,212.377c-4.607,1.231-8.629,2.244-12.61,3.396c-2.446,0.707-3.324,2.365-3.363,5.022
			c-0.227,15.167-0.938,30.331-0.941,45.497c-0.005,26.939,0.367,53.879,0.642,80.817c0.012,1.22,0.623,2.435,1.027,3.914
			c12.164-5.559,23.895-10.725,35.458-16.242c28.929-13.803,57.765-27.797,86.69-41.604c2.488-1.188,3.262-2.61,3.291-5.307
			c0.347-31.799,0.832-63.597,1.267-95.395c0.074-5.445,0.094-10.893,0.095-16.339c0-1.136,0.083-2.689-1.765-2.183
			c-2.891,0.792-5.804,1.622-8.54,2.818c-2.084,0.91-2.905,2.767-2.853,5.244c0.235,10.979,0.415,21.962,0.358,32.942
			c-0.105,20.613-0.427,41.224-0.555,61.836c-0.02,3.016-1.142,4.854-3.877,6.099c-21.752,9.885-43.476,19.833-65.199,29.779
			c-7.15,3.275-14.277,6.597-21.411,9.907c-3.406,1.582-5.293,0.487-5.512-3.306c-0.336-5.823-0.808-11.648-0.88-17.479
			c-0.298-23.629-0.434-47.261-0.698-70.891C231.522,224.993,231.198,219.084,230.965,212.377z M265.932,162.554
			c2.011,3.216,4.034,6.138,5.717,9.244c1.29,2.377,2.061,5.033,3.266,7.462c0.313,0.629,1.569,1.398,2.103,1.222
			c7.364-2.427,14.695-4.965,21.978-7.629c0.621-0.227,1.32-1.653,1.168-2.339c-0.759-3.409-1.549-6.847-2.775-10.106
			c-3.185-8.46-7.95-15.734-16.008-20.469c-5.504-3.233-10.823-6.781-16.342-9.988c-1.442-0.839-4.039-1.842-4.857-1.193
			c-2.235,1.773-5.692,3.079-5.366,6.852c0.804,9.285,1.767,18.555,2.58,27.839c0.188,2.149,0.028,4.33,0.028,6.496
			c-0.29,0.079-0.578,0.157-0.866,0.235c-0.764-1.801-1.808-3.538-2.232-5.416c-0.792-3.499-1.246-7.075-1.797-10.626
			c-0.615-3.962-1.412-7.84-4.003-11.097c-4.793-6.027-11.262-6.04-14.252-0.008c-0.066,0.133-0.316,0.176-0.486,0.255
			c-0.187-0.039-0.44-0.013-0.548-0.127c-1.132-1.195-2.105-2.593-3.403-3.557c-0.811-0.602-2.3-1.055-3.141-0.718
			c-3.558,1.426-5.185,1.236-7.558-1.765c-1.504-1.902-2.76-3.998-4.188-5.962c-1.81-2.488-2.539-2.434-4.212,0.04
			c-1.852,2.736-3.658,5.517-5.703,8.105c-6.265,7.929-12.887,15.588-18.895,23.704c-6.442,8.701-10.399,18.431-9.479,29.584
			c0.078,0.938,0.549,2.511,1.106,2.641c4.492,1.052,9.036,1.905,13.59,2.653c1.882,0.309,2.529-0.797,2.894-2.698
			c0.983-5.135,2.204-10.237,3.61-15.274c0.509-1.822,1.814-3.421,2.756-5.121c0.323,0.111,0.646,0.221,0.968,0.332
			c-0.256,2.272-0.583,4.54-0.754,6.82c-0.327,4.353-0.847,8.717-0.767,13.068c0.097,5.215,2.004,6.888,7.119,6.323
			c2.941-0.325,5.767-1.596,8.693-2.203c3.681-0.763,4.648-3.209,5.255-6.582c1.044-5.8,2.583-11.517,4.09-17.222
			c0.345-1.31,1.401-2.433,2.13-3.641c0.282,0.133,0.564,0.265,0.848,0.398c-0.169,2.31-0.322,4.62-0.51,6.928
			c-0.265,3.289-0.756,6.574-0.787,9.864c-0.048,5.112,2.527,6.861,7.36,5.13c4.562-1.633,9.048-3.476,13.607-5.114
			c1.528-0.55,3.213-0.656,4.774-1.134c4.332-1.325,8.81-2.366,12.903-4.234c3.516-1.604,4.044-4.582,2.443-8.154
			c-0.994-2.214-2.063-4.4-2.905-6.669C264.381,166.813,263.824,164.807,265.932,162.554z M413.929,22.685
			c-7.147-0.672-13.228-1.468-19.334-1.78c-32.344-1.655-64.694-3.197-97.044-4.756c-14.573-0.703-29.159-1.192-43.722-2.074
			c-14.264-0.863-28.503-2.129-42.759-3.131c-1.339-0.094-3.232-0.036-3.991,0.774c-2.64,2.816-5.308,5.755-7.229,9.073
			c-16.173,27.917-32.206,55.916-48.226,83.921c-3.423,5.983-6.701,12.054-9.898,18.161c-2.039,3.893-1.363,4.958,2.907,5.401
			c2.222,0.232,4.443,0.491,6.653,0.821c13.545,2.029,27.083,4.108,40.632,6.104c2.592,0.382,5.256,0.785,7.829,0.548
			c1.146-0.106,2.149-1.771,3.217-2.73c-0.895-0.635-1.715-1.64-2.699-1.842c-4.467-0.917-8.96-1.756-13.481-2.351
			c-10.697-1.406-21.414-2.66-32.124-3.968c-4.635-0.566-6.293-3.692-4.074-7.642c16.521-29.4,33.028-58.808,49.552-88.207
			c2.189-3.895,4.46-7.743,6.662-11.631c1.098-1.939,2.612-2.444,4.849-2.216c8.021,0.819,16.055,1.553,24.1,2.064
			c25.625,1.625,51.251,3.228,76.887,4.665c24.277,1.361,48.569,2.485,72.853,3.755c4.851,0.254,9.733,0.411,14.521,1.138
			c3.989,0.606,4.751,2.703,2.724,6.141c-13.622,23.109-27.199,46.244-40.941,69.282c-9.245,15.499-18.733,30.853-28.177,46.376
			c-13.428-2.063-26.813-4.573-40.943-5.019c1.992,4.281,4.098,7.094,8.657,7.642c10.9,1.312,21.768,2.908,32.635,4.483
			c1.828,0.266,2.852-0.312,3.789-1.828c9.099-14.718,18.526-29.24,27.329-44.131c15.132-25.596,29.922-51.395,44.741-77.174
			C411.516,29.609,412.473,26.24,413.929,22.685z M154.692,118.171c2.239,0.956,4.049,1.898,5.965,2.503
			c2.74,0.864,4.707,0.434,6.333-2.614c10.698-20.056,21.534-40.042,32.549-59.926c4.846-8.747,10.211-17.206,15.361-25.784
			c0.833-1.388,1.843-2.239,3.763-2.085c6.978,0.559,13.976,0.863,20.961,1.328c24.539,1.634,49.074,3.296,73.612,4.945
			c19.59,1.316,39.184,2.584,58.767,3.978c4.639,0.33,9.238,1.375,13.872,1.509c2.421,0.069,5.104-0.717,7.243-1.892
			c1.542-0.846,2.538-2.885,3.472-4.562c0.552-0.991,0.85-2.395,0.596-3.453c-0.138-0.577-1.651-1.113-2.574-1.168
			c-27.462-1.651-54.928-3.232-82.392-4.838c-32.224-1.884-64.448-3.745-96.667-5.723c-3.476-0.213-5.771,1.014-7.402,3.925
			c-1.996,3.559-4.021,7.103-6.042,10.648c-10.872,19.073-21.749,38.143-32.62,57.216
			C164.635,100.696,159.789,109.217,154.692,118.171z M33.769,170.686c0.042-0.351,0.083-0.703,0.125-1.053
			c3.256-0.734,6.491-1.581,9.772-2.18c8.22-1.5,16.525-2.596,24.678-4.389c11.845-2.605,23.541-5.88,35.381-8.506
			c16.216-3.597,32.533-6.772,48.017-13.028c1.383-0.559,3.78-0.648,3.206-2.988c-0.524-2.136-2.542-2.439-4.519-2.24
			c-0.771,0.078-1.558,0.154-2.298,0.366c-3.641,1.043-7.246,2.216-10.904,3.188c-7.871,2.092-15.741,4.205-23.669,6.063
			c-2.709,0.635-5.668,0.198-8.382,0.82c-28.681,6.575-57.339,13.246-85.983,19.975c-1.615,0.379-3.055,1.499-4.577,2.274
			c1.461,0.998,2.792,2.48,4.405,2.91c6.091,1.623,12.254,2.999,18.426,4.295c30.895,6.487,61.839,12.738,92.689,19.431
			c24.755,5.37,49.383,11.322,74.11,16.822c3.213,0.715,6.748,0.709,10.016,0.233c2.915-0.425,5.648-2.02,8.494-3.004
			c18.721-6.479,37.42-13.027,56.189-19.37c19.6-6.623,39.275-13.016,58.896-19.579c2.468-0.825,5.186-1.86,5.251-5.067
			c0.039-1.947-3.592-3.655-7.025-3.502c-0.927,0.042-1.901,0.353-2.744,0.765c-17.321,8.46-35.272,15.35-53.552,21.396
			c-20.463,6.771-40.984,13.365-61.458,20.107c-5.491,1.809-11.029,2.367-16.66,1.116c-9.179-2.04-18.284-4.424-27.493-6.305
			c-17.125-3.5-34.3-6.75-51.457-10.09c-16.586-3.229-33.181-6.417-49.763-9.665c-11.339-2.221-22.673-4.477-33.986-6.822
			C37.164,172.29,35.493,171.358,33.769,170.686z M160.396,175.372c2.354-5.077,4.524-9.53,6.444-14.089
			c0.375-0.891,0.15-2.462-0.433-3.25c-2.256-3.054-5.348-5.068-9.047-6.004c-2.845-0.719-5.639-1.328-7.884,1.628
			c-0.661,0.872-2.179,1.448-3.339,1.509c-2.199,0.115-4.42-0.331-6.636-0.372c-1.976-0.037-4.025-0.131-5.918,0.318
			c-3.143,0.746-6.156,2.023-9.282,2.859c-2.791,0.747-5.842,0.773-8.451,1.886c-3.402,1.453-3.629,3.16-1.446,6.19
			c1.245,1.728,2.815,3.217,4.108,4.914c1.801,2.364,1.586,3.512-0.831,5.263c-1.413,1.023-3.018,1.828-4.271,3.012
			c-1.803,1.702-1.347,3.08,1.03,3.565c12.747,2.606,25.485,5.259,38.255,7.748c5.375,1.047,10.823,1.726,16.497,2.611
			C168.972,185.38,170.477,177.418,160.396,175.372z M34.799,182.221c0,6.007-0.054,11.526,0.016,17.043
			c0.07,5.574,1.361,7.301,6.806,8.525c12.888,2.896,25.815,5.619,38.709,8.49c2.396,0.534,3.813-0.196,4.233-2.56
			c0.899-5.054,1.646-10.135,2.576-15.182c0.506-2.746-0.657-4.204-3.159-4.981c-4.172-1.298-8.255-2.974-12.502-3.927
			c-11.371-2.55-22.808-4.805-34.223-7.158C36.438,182.304,35.589,182.298,34.799,182.221z M186.583,226.9
			c0.175,0,0.349,0,0.524-0.001c0-3.397-0.086-6.799,0.038-10.191c0.057-1.579-0.527-2.3-1.997-2.625
			c-3.223-0.713-6.422-1.531-9.642-2.255c-10.318-2.317-20.611-4.758-30.976-6.848c-4.462-0.899-5.169-0.206-5.196,4.379
			c-0.031,5.329,0.594,10.666,0.5,15.991c-0.055,3.202,1.087,4.945,4.089,5.67c0.847,0.204,1.657,0.573,2.508,0.754
			c12.142,2.582,24.287,5.146,36.433,7.711c0.284,0.059,0.579,0.063,0.867,0.104c1.907,0.26,2.929-0.373,2.875-2.496
			C186.521,233.697,186.583,230.297,186.583,226.9z M103.514,256.493c-0.227-0.216-0.454-0.429-0.681-0.644
			c1.784-1.564,3.637-3.06,5.339-4.709c4.283-4.15,4.786-9.347,3.779-14.838c-0.385-2.1-1.432-3.349-3.976-3.829
			c-2.171-0.409-4.222-2.137-6.016-3.65c-1.608-1.356-2.708-3.295-4.181-4.833c-3.668-3.831-8.285-3.554-11.404,0.714
			c-6.414,8.775-6.756,18.115-2.28,27.779c1.481,3.197,3.709,5.94,7.486,6.167c5.504,0.332,11.035,0.252,16.555,0.283
			c0.527,0.003,1.084-0.406,1.581-0.701c6.156-3.671,9.533-9.485,12.053-15.895c0.397-1.011,0.274-2.317,0.096-3.441
			c-0.305-1.922-1.034-3.583-3.498-3.419c-2.218,0.147-3.703,0.947-3.733,3.491c-0.013,1.151-0.296,2.311-0.553,3.443
			C112.652,248.697,109.883,253.974,103.514,256.493z M392.331,121.239c-0.738-1.074-1.462-2.563-2.572-3.659
			c-3.79-3.738-7.716-7.338-11.593-10.988c-2.667-2.511-3.317-2.475-5.238,0.713c-5.258,8.728-10.419,17.514-15.694,26.231
			c-0.922,1.523-0.355,2.466,0.615,3.574c3.579,4.088,7.12,8.21,10.657,12.334c3.159,3.684,3.398,3.863,6.17-0.223
			c5.823-8.585,11.361-17.365,16.998-26.077C391.924,122.759,391.99,122.252,392.331,121.239z M405.592,97.05
			c4.931-6.399,10.087-11.887,12.699-19.074c1.768-4.865,1.163-9.283-2.572-13.188c-3.278-3.427-6.341-7.059-9.494-10.605
			c-1.375-1.545-2.17-0.372-2.988,0.632c-5.464,6.709-9.189,14.402-12.467,22.325c-0.324,0.784-0.122,2.15,0.383,2.85
			c2.448,3.385,4.992,6.71,7.679,9.907C400.863,92.312,403.165,94.501,405.592,97.05z M195.699,141.58
			c-3.916-0.822-6.998-1.72-10.141-2.077c-7.025-0.797-14.071-1.526-21.128-1.875c-3.769-0.187-5.072,2.1-3.022,5.277
			c1.696,2.629,4.172,4.767,6.371,7.057c1.061,1.104,2.591,1.863,3.368,3.114c2.243,3.606,2.82,7.21,0.026,11.083
			c-2.807,3.892-2.319,7.775,0.964,10.229c1.076-1.577,2.204-3.114,3.213-4.726c4.824-7.709,8.934-15.901,16.104-21.944
			C193.231,146.22,194.216,143.783,195.699,141.58z M406.754,47.191c0.695,1.544,1.063,3.231,2.049,4.392
			c3.46,4.066,7.129,7.954,10.727,11.902c2.039,2.238,5.167,2.309,6.691-0.243c4.135-6.925,5.21-11.794,1.156-18.519
			c-0.801-1.33-1.746-2.572-2.605-3.867c-2.197-3.311-4.355-6.648-6.601-9.926c-0.388-0.566-1.189-1.317-1.678-1.237
			c-0.719,0.118-1.559,0.771-1.944,1.432c-1.906,3.257-3.771,6.546-5.461,9.918C408.148,42.915,407.58,44.973,406.754,47.191z
			 M342.82,156.275c0.261,0.965,0.241,1.777,0.636,2.219c4.124,4.616,8.295,9.188,12.495,13.735c1.255,1.359,2.526,1.28,3.504-0.367
			c2.566-4.322,5.146-8.639,7.606-13.021c0.342-0.608,0.386-1.862-0.01-2.334c-4.162-4.973-8.425-9.863-12.703-14.737
			c-0.932-1.062-1.875-1.129-2.817,0.204c-2.232,3.16-4.692,6.167-6.802,9.404C343.758,152.869,343.392,154.754,342.82,156.275z
			 M386.098,83.248c-0.334,0.269-0.526,0.361-0.626,0.514c-1.866,2.841-3.747,5.675-5.573,8.542
			c-2.917,4.578-2.651,7.401,1.191,11.4c2.489,2.591,5.154,5.013,7.661,7.588c3.127,3.214,5.747,3.315,8.481-0.262
			c2.229-2.919,4.031-6.171,5.934-9.329c0.271-0.453,0.282-1.368,0.002-1.804C398.742,93.024,393.035,87.469,386.098,83.248z
			 M255.403,126.369c-13.686,5.363-26.9,2.708-40.183-0.445c7.753,6.999,16.545,10.267,27.038,8.129
			C248.748,132.73,254.729,129.56,255.403,126.369z M109.204,221.642c0.233-0.14,1.54-0.474,1.781-1.174
			c0.27-0.786-0.297-1.967-0.741-2.855c-0.331-0.661-1.043-1.133-1.588-1.687c-2.777-2.818-1.966-6.404,1.779-7.763
			c1.09-0.395,2.371-0.465,3.283-1.093c1.003-0.691,1.683-1.854,2.503-2.812c-1.197-0.47-2.37-1.034-3.605-1.361
			c-0.478-0.127-1.097,0.285-1.653,0.448c-5.595,1.636-7.408,6.17-8.422,11.204C101.689,218.777,104.055,221.534,109.204,221.642z
			 M115.6,232.294c4.6-1.896,8.602-10.383,6.625-13.758c-1.484-2.534-4.067-4.466-6.341-6.46c-0.403-0.354-1.689,0.3-2.568,0.488
			c0.197,0.764,0.14,1.835,0.631,2.241c3.63,2.992,3.63,6.725,2.625,10.833C116.083,227.633,115.962,229.718,115.6,232.294z
			 M103.801,225.037c0.953,2.01,5.397,3.799,8.113,2.916c0.748-0.243,1.166-1.502,2.182-2.916
			C110.016,225.037,106.892,225.037,103.801,225.037z"/>
		<path fill-rule="evenodd" clip-rule="evenodd" fill="#84909B" d="M185.385,320.56c-7.392-2.041-14.442-3.813-21.385-5.936
			c-31.145-9.528-62.233-19.244-93.402-28.69c-8.458-2.563-17.174-4.264-25.689-6.649c-8.188-2.295-8.6-2.725-8.828-11.187
			c-0.266-9.914-0.027-19.841-0.068-29.763c-0.009-2.218,0.87-3.29,3.128-3.078c1.059,0.099,2.146,0.092,3.171,0.34
			c10.199,2.457,20.405,4.888,30.552,7.543c1.197,0.313,2.48,1.751,2.993,2.974c2.138,5.096,3.828,10.278,8.614,13.861
			c6.783,5.08,14.334,6.384,22.374,5.137c4.274-0.663,7.635-3.563,10.229-6.873c2.968-3.787,6.093-4.544,10.795-3.331
			c17.791,4.588,35.706,8.694,53.561,13.032c4.317,1.048,4.98,2.142,4.901,6.5c-0.251,13.81-0.441,27.623-0.671,41.435
			C185.635,317.295,185.496,318.714,185.385,320.56z"/>
		<path fill-rule="evenodd" clip-rule="evenodd" fill="#84909B" d="M239.512,315.734c-0.384-1.657-0.93-2.859-0.89-4.041
			c0.195-5.8,0.549-11.594,0.841-17.391c0.069-1.357,0.205-2.717,0.168-4.072c-0.413-14.865-0.933-29.728-1.257-44.596
			c-0.214-9.822-0.075-19.652-0.289-29.475c-0.047-2.136,0.664-3.286,2.5-3.986c7.348-2.803,14.636-5.779,22.059-8.367
			c17.622-6.143,35.311-12.096,52.969-18.138c6.717-2.299,7.546-1.679,7.59,5.397c0.156,24.414,0.374,48.828,0.52,73.241
			c0.019,3.108-0.305,6.218-0.367,9.328c-0.044,2.174-0.938,3.699-2.9,4.646c-7.258,3.498-14.454,7.127-21.768,10.502
			c-18.627,8.598-37.305,17.085-55.966,25.611C241.849,314.793,240.95,315.136,239.512,315.734z M257.047,227.963
			c3.185,5.434,2.434,10.484,1.072,15.559c-0.43,1.596-0.954,3.173-1.26,4.791c-0.811,4.296-0.188,8.294,2.596,11.842
			c2.76,3.521,6.307,4.968,9.87,3.719c11.822-4.143,23.636-8.313,35.43-12.535c3.536-1.268,5.871-3.754,6.591-7.529
			c0.617-3.24,0.988-6.534,1.747-9.737c0.939-3.965-0.06-7.098-3.351-9.471c-2.599-1.874-4.509-4.181-5.396-7.35
			c-0.756-2.699-2.495-3.663-5.351-2.759c-11.203,3.547-22.445,6.968-33.656,10.489
			C262.688,225.814,260.102,226.857,257.047,227.963z"/>
		<path fill-rule="evenodd" clip-rule="evenodd" fill="#84909B" d="M34.799,182.221c0.791,0.077,1.64,0.083,2.456,0.251
			c11.415,2.354,22.852,4.608,34.223,7.158c4.247,0.953,8.33,2.629,12.502,3.927c2.502,0.777,3.665,2.235,3.159,4.981
			c-0.93,5.047-1.677,10.128-2.576,15.182c-0.421,2.363-1.837,3.094-4.233,2.56c-12.894-2.871-25.821-5.595-38.709-8.49
			c-5.444-1.225-6.736-2.951-6.806-8.525C34.745,193.747,34.799,188.228,34.799,182.221z"/>
		<path fill-rule="evenodd" clip-rule="evenodd" fill="#84909B" d="M186.583,226.9c0,3.396-0.063,6.797,0.023,10.192
			c0.054,2.123-0.968,2.756-2.875,2.496c-0.288-0.04-0.583-0.045-0.867-0.104c-12.146-2.564-24.291-5.129-36.433-7.711
			c-0.851-0.181-1.661-0.55-2.508-0.754c-3.001-0.725-4.144-2.468-4.089-5.67c0.093-5.325-0.531-10.662-0.5-15.991
			c0.026-4.585,0.734-5.278,5.196-4.379c10.364,2.09,20.658,4.53,30.976,6.848c3.22,0.724,6.419,1.542,9.642,2.255
			c1.47,0.325,2.054,1.046,1.997,2.625c-0.124,3.393-0.038,6.794-0.038,10.191C186.933,226.9,186.758,226.9,186.583,226.9z"/>
		<path fill-rule="evenodd" clip-rule="evenodd" fill="#84909B" d="M392.331,121.239c-0.341,1.014-0.407,1.52-0.657,1.907
			c-5.637,8.712-11.175,17.492-16.998,26.077c-2.771,4.085-3.011,3.907-6.17,0.223c-3.537-4.125-7.078-8.247-10.657-12.334
			c-0.971-1.108-1.537-2.051-0.615-3.574c5.275-8.717,10.437-17.503,15.694-26.231c1.921-3.188,2.571-3.225,5.238-0.713
			c3.877,3.65,7.803,7.25,11.593,10.988C390.869,118.676,391.593,120.165,392.331,121.239z"/>
		<path fill-rule="evenodd" clip-rule="evenodd" fill="#84909B" d="M405.592,97.05c-2.427-2.549-4.729-4.738-6.761-7.154
			c-2.687-3.196-5.23-6.521-7.679-9.907c-0.505-0.7-0.707-2.066-0.383-2.85c3.277-7.923,7.003-15.616,12.467-22.325
			c0.818-1.004,1.613-2.177,2.988-0.632c3.153,3.546,6.216,7.179,9.494,10.605c3.735,3.904,4.34,8.322,2.572,13.188
			C415.679,85.163,410.522,90.65,405.592,97.05z"/>
		<path fill-rule="evenodd" clip-rule="evenodd" fill="#84909B" d="M195.699,141.58c-1.483,2.203-2.468,4.64-4.245,6.138
			c-7.17,6.043-11.28,14.235-16.104,21.944c-1.009,1.612-2.137,3.149-3.213,4.726c-3.284-2.454-3.771-6.338-0.964-10.229
			c2.794-3.874,2.217-7.477-0.026-11.083c-0.777-1.251-2.308-2.009-3.368-3.114c-2.199-2.29-4.674-4.427-6.371-7.057
			c-2.05-3.177-0.747-5.464,3.022-5.277c7.058,0.35,14.103,1.079,21.128,1.875C188.701,139.859,191.783,140.758,195.699,141.58z"/>
		<path fill-rule="evenodd" clip-rule="evenodd" fill="#3D2B2B" d="M23.339,289.013c-1.495-1.587-2.713-2.55-3.372-3.805
			c-0.172-0.327,1.305-2.128,2.188-2.275c1.929-0.321,3.49,0.899,3.64,2.848C25.857,286.585,24.547,287.494,23.339,289.013z"/>
		<path fill-rule="evenodd" clip-rule="evenodd" fill="#3D2B2B" d="M199.603,343.868c-1.15-1.579-2.409-2.863-2.224-3.126
			c0.937-1.321,2.249-2.377,3.43-3.525c0.691,0.892,2.12,2.027,1.921,2.624C202.305,341.121,201.041,342.124,199.603,343.868z"/>
		<path fill-rule="evenodd" clip-rule="evenodd" fill="#3D2B2B" d="M84.824,304.049c-0.852,0.443-1.69,1.224-2.558,1.258
			c-1.743,0.07-3.189-0.942-2.932-2.768c0.107-0.762,1.753-1.916,2.577-1.82c1.084,0.125,2.047,1.304,3.062,2.029
			C84.922,303.183,84.873,303.615,84.824,304.049z"/>
		<path fill-rule="evenodd" clip-rule="evenodd" fill="#3D2B2B" d="M171.476,327.39c1.25,1.862,2.181,2.921,2.655,4.155
			c0.147,0.385-0.94,1.244-1.463,1.886c-1.158-0.992-2.391-1.921-3.38-3.06C169.159,330.224,170.289,328.983,171.476,327.39z"/>
		<path fill-rule="evenodd" clip-rule="evenodd" fill="#3D2B2B" d="M24.051,251.1c-1.353,1.18-2.124,1.853-2.896,2.525
			c-0.862-1.116-1.906-2.151-2.463-3.403c-0.148-0.334,1.527-2.031,1.804-1.902C21.623,248.847,22.533,249.841,24.051,251.1z"/>
		<path fill-rule="evenodd" clip-rule="evenodd" fill="#3D2B2B" d="M145.343,319.331c1.176,1.365,1.837,2.132,2.499,2.898
			c-1.02,0.842-1.955,1.875-3.118,2.393c-0.304,0.135-1.989-1.482-1.867-2.035C143.082,321.575,144.18,320.756,145.343,319.331z"/>
		<path fill-rule="evenodd" clip-rule="evenodd" fill="#3D2B2B" d="M24.941,219.613c-1.038,1.102-1.691,1.797-2.344,2.491
			c-0.847-1.026-2.044-1.947-2.401-3.123c-0.194-0.639,1.042-1.712,1.632-2.589C22.758,217.353,23.687,218.314,24.941,219.613z"/>
		<path fill-rule="evenodd" clip-rule="evenodd" fill="#3D2B2B" d="M201.761,260.652c-1.073-1.168-2.435-2.129-2.283-2.595
			c0.309-0.939,1.483-2.278,2.219-2.229c0.979,0.065,1.88,1.298,2.814,2.028C203.728,258.653,202.943,259.451,201.761,260.652z"/>
		<path fill-rule="evenodd" clip-rule="evenodd" fill="#3D2B2B" d="M116.3,316.588c-1.264-1.361-2.042-2.2-2.821-3.039
			c0.893-0.659,1.735-1.705,2.696-1.829c0.555-0.071,1.67,1.271,1.84,2.117C118.141,314.461,117.146,315.31,116.3,316.588z"/>
		<path fill-rule="evenodd" clip-rule="evenodd" fill="#3D2B2B" d="M22.506,190.626c-1.178,0.854-2.105,1.969-2.637,1.805
			c-0.768-0.238-1.789-1.46-1.715-2.159c0.09-0.859,1.194-1.612,1.86-2.411C20.715,188.639,21.417,189.416,22.506,190.626z"/>
		<path fill-rule="evenodd" clip-rule="evenodd" fill="#3D2B2B" d="M53.737,295.435c-1.389,0.769-2.273,1.6-2.673,1.41
			c-0.93-0.44-1.626-1.374-2.417-2.107c0.721-0.438,1.485-1.283,2.15-1.211C51.611,293.617,52.34,294.475,53.737,295.435z"/>
		<path fill-rule="evenodd" clip-rule="evenodd" fill="#3D2B2B" d="M163.69,249.914c1.048-0.296,2.224-1.003,3.097-0.732
			c0.55,0.171,0.645,1.807,0.944,2.785c-1.279-0.122-2.557-0.244-3.835-0.366C163.827,251.037,163.758,250.476,163.69,249.914z"/>
		<path fill-rule="evenodd" clip-rule="evenodd" fill="#3D2B2B" d="M140.646,243.212c-1.425,0.892-2.176,1.727-2.907,1.709
			c-0.648-0.015-1.274-0.977-1.911-1.521c0.583-0.498,1.139-1.36,1.754-1.403C138.338,241.941,139.143,242.57,140.646,243.212z"/>
		<path fill-rule="evenodd" clip-rule="evenodd" fill="#3D2B2B" d="M202.392,294.358c0.706,1.09,1.489,1.764,1.449,2.385
			c-0.042,0.651-0.874,1.251-1.36,1.874c-0.614-0.633-1.548-1.185-1.731-1.924C200.627,296.205,201.582,295.447,202.392,294.358z"/>
		<path fill-rule="evenodd" clip-rule="evenodd" fill="#3D2B2B" d="M205.909,230.404c-1.039,0.738-1.744,1.609-2.267,1.512
			c-0.55-0.104-1.287-1.142-1.276-1.76c0.011-0.634,0.83-1.253,1.294-1.878C204.288,228.871,204.916,229.465,205.909,230.404z"/>
		<path fill-rule="evenodd" clip-rule="evenodd" fill="#3D2B2B" d="M50.027,223.006c-1.138,0.503-1.81,1.063-2.171,0.906
			c-0.776-0.337-1.392-1.043-2.073-1.599c0.521-0.401,1.161-1.224,1.538-1.118C48.124,221.421,48.791,222.131,50.027,223.006z"/>
		<path fill-rule="evenodd" clip-rule="evenodd" fill="#3D2B2B" d="M257.047,227.963c3.055-1.105,5.641-2.148,8.293-2.981
			c11.211-3.521,22.453-6.942,33.656-10.489c2.855-0.904,4.595,0.06,5.351,2.759c0.887,3.169,2.797,5.476,5.396,7.35
			c3.291,2.373,4.29,5.506,3.351,9.471c-0.759,3.203-1.13,6.497-1.747,9.737c-0.72,3.775-3.055,6.262-6.591,7.529
			c-11.794,4.223-23.607,8.393-35.43,12.535c-3.563,1.249-7.11-0.198-9.87-3.719c-2.783-3.548-3.406-7.546-2.596-11.842
			c0.306-1.618,0.83-3.195,1.26-4.791C259.48,238.447,260.231,233.396,257.047,227.963z M301.19,226.479
			c1.163,1.297,2.154,2.361,3.099,3.465c2.205,2.577,2.249,4.181,0.267,7c-3.043,4.331-7.079,7.436-11.87,9.592
			c-6.857,3.085-14.229,3.778-21.574,4.571c-1.718,0.186-3.607,0.773-4.631-1.279c-1.032-2.069-1.585-4.159,0.223-6.23
			c0.603-0.689,1.271-1.812,1.113-2.573c-0.34-1.657-1.191-3.208-1.834-4.802c-0.981,0.921-2.047,1.771-2.913,2.79
			c-0.479,0.562-0.755,1.382-0.898,2.129c-0.731,3.806-1.169,7.684-2.147,11.423c-0.721,2.754,0.367,4.558,2.51,5.419
			c2.021,0.813,4.417,1.099,6.607,0.96c2.077-0.131,4.095-1.129,6.147-1.716c9.911-2.829,19.688-5.966,28.842-10.858
			c5.309-2.837,6.575-7.821,6.319-12.831c-0.207-4.04-3.068-7.598-6.849-9.54c-1.517-0.778-3.783-0.608-5.568-0.224
			c-2.2,0.475-2.361,1.938-0.878,3.645C298.916,229.447,299.958,227.935,301.19,226.479z M299.6,216.297
			c-12.498,3.933-24.804,7.824-37.128,11.658c-2.061,0.642-3.019,1.707-2.1,3.85c1.109,2.585,2.603,0.957,4.006,0.331
			c3.61-1.613,7.108-3.626,10.873-4.698c3.344-0.953,5.763,0.649,6.633,3.203c1.058,3.103-0.141,6.287-3.097,7.931
			c-2.036,1.131-4.213,2.021-6.214,3.208c-3.023,1.795-3.479,3.628-1.639,7.34c6.019-2.087,12.305-3.8,18.171-6.442
			c5.168-2.328,7.878-5.069,0.792-8.99c-1.578-0.873-2.771-2.217-1.312-4.348c0.836,0.356,1.614,0.94,2.41,0.965
			c1.029,0.03,2.072-0.386,3.108-0.61c-0.352-0.925-0.481-2.07-1.119-2.713c-0.628-0.636-1.769-0.766-2.684-1.116
			c0.322-0.533,0.645-1.067,0.968-1.602c2.115-0.878,4.236-1.742,6.343-2.639C299.872,220.661,301.168,219.261,299.6,216.297z
			 M275.361,234.909c-1.679-1.266-2.687-2.276-3.903-2.787c-0.358-0.149-1.993,1.364-1.874,1.695c0.528,1.466,1.482,2.78,2.28,4.148
			C272.796,237.152,273.727,236.339,275.361,234.909z M276.238,230.243c0.284,2.16,0.505,3.829,0.817,6.212
			C280.291,232.808,280.133,231.828,276.238,230.243z"/>
		<path fill-rule="evenodd" clip-rule="evenodd" fill="#3D2B2B" d="M224.305,339.365c-1.484-1.378-3.138-2.237-3.097-3.004
			c0.119-2.198,1.866-3.436,4.005-3.185c1.023,0.119,1.919,1.334,2.872,2.052C226.961,336.46,225.836,337.69,224.305,339.365z"/>
		<path fill-rule="evenodd" clip-rule="evenodd" fill="#3D2B2B" d="M225.493,258.403c-1.307,1.214-2.288,2.124-3.27,3.035
			c-0.708-0.992-2.193-2.265-1.958-2.918c0.472-1.306,1.884-2.273,2.909-3.381C223.813,256.039,224.451,256.937,225.493,258.403z"/>
		<path fill-rule="evenodd" clip-rule="evenodd" fill="#3D2B2B" d="M283.794,312.13c-0.759-1.136-1.666-2.098-1.509-2.324
			c0.862-1.245,1.984-2.311,3.018-3.438c0.69,0.806,2.107,2.105,1.951,2.334C286.453,309.873,285.249,310.771,283.794,312.13z"/>
		<path fill-rule="evenodd" clip-rule="evenodd" fill="#3D2B2B" d="M257.298,318.825c0.567,0.885,1.78,1.994,1.566,2.605
			c-0.452,1.288-1.651,2.315-2.542,3.45c-0.659-0.73-1.943-1.558-1.85-2.17c0.212-1.351,1.116-2.596,1.738-3.883
			C256.574,318.827,256.937,318.826,257.298,318.825z"/>
		<path fill-rule="evenodd" clip-rule="evenodd" fill="#3D2B2B" d="M226.163,296.177c-1.067,1.067-1.783,1.784-2.499,2.501
			c-0.641-0.794-1.873-1.666-1.78-2.361c0.135-1.012,1.224-1.896,1.907-2.835C224.463,294.245,225.134,295.007,226.163,296.177z"/>
		<path fill-rule="evenodd" clip-rule="evenodd" fill="#3D2B2B" d="M225.624,229.071c-1.301,1.009-2.223,1.725-3.146,2.439
			c-0.447-0.658-1.413-1.597-1.239-1.922c0.499-0.929,1.394-1.712,2.299-2.295C223.717,227.178,224.636,228.212,225.624,229.071z"/>
		<path fill-rule="evenodd" clip-rule="evenodd" fill="#3D2B2B" d="M312.532,299.496c-0.839-1.327-1.801-2.232-1.621-2.701
			c0.321-0.842,1.235-1.73,2.086-1.984c0.43-0.128,1.895,1.262,1.784,1.662C314.527,297.404,313.6,298.153,312.532,299.496z"/>
		<path fill-rule="evenodd" clip-rule="evenodd" fill="#3D2B2B" d="M336.074,186.563c0.791,1.02,1.727,1.782,1.591,2.142
			c-0.295,0.784-1.059,1.76-1.778,1.9c-0.556,0.108-1.337-0.935-2.018-1.466C334.491,188.412,335.113,187.685,336.074,186.563z"/>
		<path fill-rule="evenodd" clip-rule="evenodd" fill="#3D2B2B" d="M331.893,286.449c1.161-0.389,2.322-0.777,3.484-1.166
			c0.181,0.88,0.362,1.759,0.543,2.638c-1.252,0-2.504,0-3.754,0C332.075,287.431,331.983,286.94,331.893,286.449z"/>
		<path fill-rule="evenodd" clip-rule="evenodd" fill="#3D2B2B" d="M332.692,217.854c0.863-0.857,1.726-1.715,2.589-2.572
			c0.424,0.62,1.249,1.271,1.204,1.854c-0.177,2.347-1.913,1.373-3.091,1.581C333.16,218.43,332.927,218.142,332.692,217.854z"/>
		<path fill-rule="evenodd" clip-rule="evenodd" fill="#3D2B2B" d="M334.667,249.2c0.641,0.771,1.605,1.47,1.795,2.338
			c0.103,0.473-1.112,1.231-1.732,1.861c-0.452-1.15-0.903-2.301-1.354-3.453C333.806,249.698,334.236,249.449,334.667,249.2z"/>
		<path fill-rule="evenodd" clip-rule="evenodd" fill="#3D2B2B" d="M154.67,186.115c-0.5-2.004-0.865-3.765-1.386-5.479
			c-0.669-2.198-1.764-3.176-4.307-2.007c-4.509,2.071-9.327,1.661-14.054,0.85c-3.617-0.621-7.182-1.547-10.891-3.077
			c1.092-0.292,2.195-0.866,3.274-0.823c3.489,0.138,6.968,0.518,10.453,0.776c2.325,0.172,4.654,0.439,6.979,0.412
			c6.835-0.081,10.76-3.14,12.785-9.737c0.238-0.776,0.625-1.506,0.942-2.258c0.375,0.155,0.748,0.31,1.123,0.465
			c-1.035,2.453-1.702,5.165-3.198,7.294c-1.941,2.763-2.441,5.181-0.792,8.216C156.476,182.365,157.22,184.382,154.67,186.115z"/>
		<path fill-rule="evenodd" clip-rule="evenodd" fill="#3D2B2B" d="M123.061,163.694c3.477-1.046,6.895-2.447,10.448-3.028
			c2.854-0.467,5.974-0.38,8.784,0.277c2.549,0.598,4.711,0.654,6.947-0.624c1.597-0.913,3.178-1.878,4.855-2.618
			c1.956-0.863,4.007-1.47,5.938,0.178c-0.107,0.26-0.176,0.562-0.239,0.56c-3.492-0.082-6.146,1.541-8.742,3.747
			c-2.568,2.181-5.672,2.774-8.989,1.401c-3.667-1.519-7.366-0.939-11.118-0.15c-2.563,0.539-5.223,0.616-7.839,0.9
			C123.09,164.124,123.075,163.909,123.061,163.694z"/>
		<path fill-rule="evenodd" clip-rule="evenodd" fill="#3D2B2B" d="M91.529,252.36c-2.127-2.859-1.583-4.917-0.696-7.075
			c1.055-2.568,1.761-5.293,2.973-7.776c0.354-0.727,2.06-1.377,2.887-1.144c1.048,0.295,2.743,2.003,2.596,2.284
			C96.939,243.141,94.341,247.503,91.529,252.36z"/>
		<path fill-rule="evenodd" clip-rule="evenodd" fill="#3D2B2B" d="M421.39,45.946c-1.071,1.351-1.853,2.337-2.634,3.323
			c-0.896-1.106-2.471-2.201-2.49-3.321c-0.018-1.062,1.597-2.15,2.493-3.228C419.517,43.648,420.274,44.578,421.39,45.946z"/>
		<path fill-rule="evenodd" clip-rule="evenodd" fill="#3D2B2B" d="M358.436,155.078c-1.931,1.731-2.995,3.476-4.278,3.657
			c-2.115,0.297-2.368-1.889-2.499-3.517c-0.142-1.757,0.596-3.332,2.579-2.964C355.458,152.479,356.491,153.716,358.436,155.078z"
			/>
		<path fill-rule="evenodd" clip-rule="evenodd" fill="#3D2B2B" d="M392.711,98.817c-1.681,1.601-2.52,2.983-3.688,3.369
			c-1.545,0.509-4.151-1.947-3.564-3.321c0.546-1.278,2.01-2.664,3.302-2.947C389.616,95.729,390.881,97.399,392.711,98.817z"/>
	</g>
	<path fill-rule="evenodd" clip-rule="evenodd" fill="#84909B" d="M385.787,47.904c-15.104-1.414-30.194-3.027-45.318-4.156
		c-37.925-2.832-75.87-5.383-113.796-8.198c-5.582-0.414-9.101,1.535-11.769,6.458c-6.669,12.308-13.7,24.42-20.57,36.619
		c-7.3,12.962-14.61,25.919-21.855,38.913c-1.958,3.513-1.392,4.63,2.574,5.3c9.29,1.568,18.583,3.133,27.901,4.523
		c2.5,0.373,3.747-1.498,4.621-3.64c0.944-2.31-1.105-2.193-2.167-2.938c-2.38-1.669-5.009-3.118-6.974-5.189
		c-1.126-1.187-1.889-3.607-1.502-5.139c0.529-2.092,3.434-4.312,5.472-4.742c-0.594-1.424-0.255-3.084,0.299-4.503
		c-0.108-0.052-0.216-0.104-0.324-0.156c0.557-1.485,0.794-3.219,1.726-4.412c3.865-4.947,9.36-5.781,14.786-4.052
		c5.163,1.645,9.064,0.407,12.914-2.739c1.123-0.918,2.415-1.633,3.638-2.428c4.221-2.748,8.387-3.26,12.716-0.069
		c3.713,2.737,7.891,3.556,12.456,2.444c2.071-0.504,4.215-0.761,6.342-0.963c4.551-0.431,7.841,1.351,9.621,5.067
		c3.409,7.111,1.022,17.536-5.083,22.478c-2.688,2.174-5.282,4.461-8.108,6.86c7.289,8.237,15.727,14.27,25.827,16.416
		c13.169,2.8,26.668,4.058,40.032,5.935c3.504,0.493,5.683-1.539,7.242-4.316c6.467-11.512,12.786-23.106,19.358-34.557
		c2.409-4.196,5.797-7.857,8.002-12.14c7.309-14.196,15.141-28.051,24.504-41.007C390.893,50.055,390.107,48.308,385.787,47.904z"/>
</g>
</svg>
