<?xml version="1.0" encoding="utf-8"?>
<!-- Generator: Adobe Illustrator 16.0.0, SVG Export Plug-In . SVG Version: 6.00 Build 0)  -->
<!DOCTYPE svg PUBLIC "-//W3C//DTD SVG 1.1//EN" "http://www.w3.org/Graphics/SVG/1.1/DTD/svg11.dtd">
<svg version="1.1" id="Layer_1" xmlns="http://www.w3.org/2000/svg" xmlns:xlink="http://www.w3.org/1999/xlink" x="0px" y="0px"
	 width="600px" height="700px" viewBox="0 0 600 700" enable-background="new 0 0 600 700" xml:space="preserve">
<g>
	<g>
		<path fill-rule="evenodd" clip-rule="evenodd" fill="#FFFFFF" d="M331.027,537.649c1.465-2.26,1.78-3.38,2.441-3.648
			c1.696-0.689,3.562-1.454,5.329-1.394c23.215,0.824,39.888-6.234,40.538-33.053c0.009-0.425,0.405-0.833,0.553-1.273
			c14.026-42.7,28.048-85.402,42.058-128.11c0.289-0.881,0.388-1.822,0.591-2.732c7.855-35.43,15.313-70.955,23.673-106.266
			c9.608-40.58,15.757-81.409,13.017-123.257c-2.519-38.474-17.572-70.396-49.614-92.813C348.719,2.498,283.319-2.595,215.722,25.73
			c-68.293,28.616-100.575,81.534-94.076,154.968c2.062,23.295,9.75,46.438,17.301,68.83
			c13.122,38.909,27.262,77.346,30.283,118.855c0.508,6.975,4.909,13.776,8.017,20.422c4.291,9.178,11.169,17.674,13.254,27.263
			c8.304,38.188,15.54,76.619,22.403,115.102c2.683,15.046,5.705,18.294,21.003,16.415c5.065-0.62,10.154-1.033,15.233-1.541
			c0.208,1.471,0.415,2.938,0.623,4.41c-9.62,2.25-19.501,3.778-28.736,7.104c-3.828,1.381-6.27,6.603-9.343,10.08
			c3.668,2.211,7.101,5.601,11.054,6.391c8.896,1.78,18.05,2.272,27.101,3.289c0.288,1.219,0.575,2.438,0.863,3.658
			c-5.66,1.944-11.512,3.465-16.933,5.934c-7.947,3.617-15.583,7.913-23.353,11.921c8.475,0.793,16.936,1.821,25.428,2.303
			c6.692,0.377,13.421,0.073,20.133,0.073c0.236,1.893,0.471,3.781,0.706,5.671c-10.354,3.002-20.819,5.679-30.995,9.189
			c-3.333,1.151-5.917,4.474-8.844,6.803c3.024,3.011,5.579,7.533,9.19,8.654c4.622,1.432,10.103,0.252,15.199-0.036
			c5.155-0.29,10.293-0.863,15.439-1.312c0.479,1.517,0.956,3.038,1.434,4.555c-4.884,2.272-9.956,4.219-14.598,6.906
			c-4.921,2.853-13.792,7.353-13.332,9.488c1.553,7.191,5.457,14.608,10.501,20.047c3.288,3.544,10.115,5.244,15.357,5.244
			c11.581-0.002,20.1,4.161,28.274,12.427c13.896,14.049,34.185,10.628,42.797-6.856c4.338-8.808,10.505-12.171,19.779-12.495
			c16.689-0.586,25.57-12.499,32.729-25.152c4.292-7.585,0.945-15.017-7.798-17.672c-5.66-1.723-11.899-2.015-17.893-2.094
			c-18.864-0.247-37.733-0.091-56.602-0.091c3.688-3.727,7.789-5.408,12.05-6.094c21.134-3.405,42.392-6.128,63.401-10.145
			c4.108-0.785,7.327-6.223,10.953-9.515c-4.232-1.906-8.613-5.71-12.683-5.4c-20.374,1.554-40.662,4.258-61.004,6.347
			c-2.956,0.303-6.031-0.532-9.051-0.837c-0.163-1.826-0.326-3.651-0.488-5.478c14.222-2.72,28.438-5.479,42.671-8.152
			c7.76-1.458,15.876-1.849,23.192-4.49c4.326-1.564,7.404-6.578,11.04-10.04c-4.429-1.665-8.857-4.678-13.285-4.678
			c-6.88,0-13.826,1.753-20.624,3.306c-9.982,2.277-19.772,5.449-29.801,7.468c-8.727,1.755-17.115,1.09-22.936-9.035
			c3.432-0.963,5.533-1.749,7.707-2.129c21.099-3.695,42.322-6.796,63.238-11.331c5.415-1.173,9.872-6.775,14.771-10.344
			c-5.885-2.096-11.637-5.313-17.684-6.021C349.965,536.88,340.922,537.649,331.027,537.649z M520.93,205.042
			c20.484-4.344,40.062-7.843,59.192-12.997c5.021-1.354,8.656-7.841,12.931-11.97c-5.023-4.216-9.646-11.403-15.134-12.135
			c-23.755-3.167-45.078,4.326-63.084,20.01c-2.808,2.447-4.389,8.458-3.557,12.155C511.803,202.457,517.821,203.58,520.93,205.042z
			 M25.561,448.553c0.799,1.65,1.597,3.303,2.395,4.953c4.339-1.022,9.287-1.038,12.922-3.231
			c23.81-14.355,47.471-28.972,70.813-44.075c3.602-2.332,5.307-7.596,7.888-11.499c-5.243-2.104-10.383-5.459-15.761-5.899
			c-4.091-0.335-9.008,2.301-12.648,4.893c-15.116,10.75-30.245,21.55-44.643,33.223C38.782,433.197,32.502,441.282,25.561,448.553z
			 M162.172,482.149c-3.497-4.298-6.297-9.556-10.672-12.358c-2.217-1.421-8.433,0.407-10.861,2.786
			c-15.281,14.976-30.353,30.204-44.678,46.086c-3.677,4.073-4.413,10.8-6.501,16.306c6.352-1,14.375,0.104,18.76-3.379
			c17.47-13.862,33.829-29.125,50.516-43.964C160.025,486.481,160.667,484.604,162.172,482.149z M510.531,569.649
			c3.041-2.504,7.807-4.538,8.777-7.729c1.104-3.626,0.281-9.774-2.233-12.252c-16.493-16.241-33.427-32.072-50.868-47.285
			c-2.938-2.566-9.045-1.507-13.688-2.122c0.806,4.635,0.023,10.658,2.67,13.677c15.596,17.781,31.945,34.902,48.193,52.105
			C504.83,567.577,507.356,568.096,510.531,569.649z M536.723,291.121c-8.989,0-15.071-0.326-21.092,0.142
			c-2.877,0.223-7.869,1.725-8.006,3.044c-0.323,3.189,0.711,7.568,2.909,9.711c3.17,3.089,7.644,5.898,11.927,6.597
			c19.243,3.141,38.574,5.955,57.979,7.796c4.646,0.441,9.688-3.293,14.547-5.107c-2.342-4.233-3.922-9.254-7.25-12.467
			c-3.092-2.985-7.893-5.148-12.207-5.742C561.708,293.197,547.766,292.194,536.723,291.121z M502.63,414.889
			c-1.301,0.792-5.504,2.504-5.337,3.396c0.714,3.806,1.682,9.128,4.415,10.735c20.271,11.896,40.888,23.231,61.712,34.139
			c2.266,1.187,9.104-0.984,9.383-2.448c0.675-3.54-0.178-8.39-2.332-11.289C553.981,427.233,529.258,420.541,502.63,414.889z
			 M555.314,19.529c-24.146,8.396-42.472,22.066-56.064,41.774c-1.998,2.899-1.427,7.574-2.045,11.426
			c3.976,0.351,9.02,2.447,11.754,0.771c17.78-10.896,35.285-22.296,52.268-34.394c2.59-1.844,3.445-8.543,2.434-12.274
			C562.828,23.759,558.041,21.755,555.314,19.529z M54.34,277.543c-0.188-0.712-0.375-1.423-0.563-2.135
			c-13.288,3.754-26.795,6.907-39.742,11.603c-4.306,1.561-7.177,7.083-10.703,10.793c4.592,3.165,9.458,9.35,13.732,8.964
			c16.906-1.523,33.75-4.562,50.335-8.297c4.197-0.945,7.346-6.538,10.977-9.996c-4.762-3.644-9.222-7.833-14.415-10.695
			C61.467,276.407,57.59,277.543,54.34,277.543z M60.603,180.586c1.156-0.503,5.282-2.298,9.408-4.093
			c-2.723-3.383-4.767-8.325-8.295-9.865c-12.225-5.341-24.701-10.784-37.644-13.489c-5.325-1.114-15.846,3.264-17.405,7.546
			c-3.184,8.75,5.175,12.696,12.976,14.018C31.97,176.791,44.399,178.295,60.603,180.586z M43.458,46.654
			c0.622,4.976,0.434,6.433,0.888,6.674c16.896,8.941,33.79,17.894,50.924,26.359c1.282,0.635,5.853-1.993,6.22-3.686
			c0.564-2.604-0.245-7.087-2.116-8.37c-8.661-5.93-17.39-12.328-27.061-16.04C63.694,48.285,53.808,48.278,43.458,46.654z"/>
		<path fill-rule="evenodd" clip-rule="evenodd" d="M520.93,205.042c-3.108-1.462-9.127-2.585-9.651-4.937
			c-0.832-3.696,0.749-9.708,3.557-12.155c18.006-15.685,39.329-23.178,63.084-20.01c5.487,0.732,10.11,7.918,15.134,12.135
			c-4.274,4.128-7.91,10.616-12.931,11.97C560.991,197.199,541.414,200.698,520.93,205.042z"/>
		<path fill-rule="evenodd" clip-rule="evenodd" d="M25.561,448.553c6.941-7.271,13.221-15.355,20.965-21.637
			c14.398-11.673,29.527-22.473,44.643-33.223c3.64-2.592,8.558-5.228,12.648-4.893c5.378,0.44,10.518,3.796,15.761,5.899
			c-2.581,3.903-4.286,9.167-7.888,11.499c-23.341,15.104-47.003,29.72-70.813,44.075c-3.635,2.193-8.583,2.209-12.922,3.231
			C27.158,451.855,26.36,450.203,25.561,448.553z"/>
		<path fill-rule="evenodd" clip-rule="evenodd" d="M162.172,482.149c-1.506,2.455-2.147,4.332-3.436,5.477
			c-16.688,14.839-33.046,30.102-50.516,43.964c-4.385,3.483-12.408,2.379-18.76,3.379c2.088-5.506,2.824-12.232,6.501-16.306
			c14.325-15.882,29.396-31.11,44.678-46.086c2.428-2.379,8.644-4.207,10.861-2.786
			C155.875,472.594,158.675,477.852,162.172,482.149z"/>
		<path fill-rule="evenodd" clip-rule="evenodd" d="M510.531,569.649c-3.175-1.554-5.701-2.072-7.149-3.606
			c-16.248-17.203-32.598-34.324-48.193-52.105c-2.646-3.019-1.864-9.042-2.67-13.677c4.644,0.615,10.75-0.444,13.688,2.122
			c17.441,15.213,34.375,31.044,50.868,47.285c2.515,2.478,3.337,8.626,2.233,12.252
			C518.338,565.111,513.572,567.146,510.531,569.649z"/>
		<path fill-rule="evenodd" clip-rule="evenodd" d="M536.723,291.121c11.043,1.073,24.985,2.076,38.807,3.975
			c4.314,0.593,9.115,2.756,12.207,5.742c3.328,3.213,4.908,8.234,7.25,12.467c-4.859,1.814-9.9,5.549-14.547,5.107
			c-19.404-1.842-38.735-4.655-57.979-7.796c-4.283-0.699-8.757-3.508-11.927-6.597c-2.198-2.143-3.232-6.522-2.909-9.711
			c0.137-1.319,5.129-2.821,8.006-3.044C521.651,290.795,527.733,291.121,536.723,291.121z"/>
		<path fill-rule="evenodd" clip-rule="evenodd" d="M502.63,414.889c26.628,5.652,51.352,12.345,67.841,34.532
			c2.154,2.899,3.007,7.749,2.332,11.289c-0.279,1.464-7.117,3.635-9.383,2.448c-20.824-10.907-41.44-22.243-61.712-34.139
			c-2.733-1.607-3.701-6.93-4.415-10.735C497.126,417.393,501.329,415.681,502.63,414.889z"/>
		<path fill-rule="evenodd" clip-rule="evenodd" d="M555.314,19.529c2.727,2.226,7.514,4.23,8.346,7.304
			c1.012,3.731,0.156,10.43-2.434,12.274c-16.982,12.097-34.487,23.498-52.268,34.394c-2.734,1.676-7.778-0.42-11.754-0.771
			c0.618-3.853,0.047-8.527,2.045-11.426C512.843,41.595,531.169,27.926,555.314,19.529z"/>
		<path fill-rule="evenodd" clip-rule="evenodd" d="M54.34,277.543c3.25,0,7.127-1.137,9.621,0.237
			c5.193,2.861,9.653,7.051,14.415,10.695c-3.63,3.458-6.78,9.051-10.977,9.996c-16.584,3.735-33.429,6.774-50.335,8.297
			c-4.274,0.386-9.14-5.799-13.732-8.964c3.526-3.71,6.397-9.232,10.703-10.793c12.946-4.696,26.454-7.849,39.742-11.603
			C53.965,276.121,54.153,276.832,54.34,277.543z"/>
		<path fill-rule="evenodd" clip-rule="evenodd" d="M60.603,180.586c-16.204-2.292-28.632-3.796-40.96-5.883
			c-7.801-1.322-16.159-5.269-12.976-14.018c1.559-4.282,12.08-8.66,17.405-7.546c12.943,2.705,25.419,8.147,37.644,13.489
			c3.528,1.541,5.572,6.482,8.295,9.865C65.884,178.288,61.758,180.083,60.603,180.586z"/>
		<path fill-rule="evenodd" clip-rule="evenodd" d="M43.458,46.654c10.35,1.624,20.236,1.63,28.855,4.938
			c9.671,3.712,18.4,10.11,27.061,16.04c1.871,1.282,2.681,5.765,2.116,8.37c-0.368,1.692-4.938,4.32-6.22,3.686
			c-17.134-8.465-34.027-17.418-50.924-26.359C43.892,53.087,44.08,51.63,43.458,46.654z"/>
		<path fill-rule="evenodd" clip-rule="evenodd" fill="#FFF200" d="M265.287,498.312c-22.495,6.997-28.429,2.896-33.412-17.267
			c-7.028-28.43-16.213-56.323-23.818-84.625c-7.34-27.315-12.659-55.224-21.011-82.208
			c-11.414-36.885-26.647-72.642-36.988-109.788c-13.8-49.572,3.604-91.99,38.194-127.503c8.689-8.921,21.635-14.288,33.417-19.496
			c34.581-15.286,70.83-22.613,108.853-20.899c48.158,2.171,90.448,39.297,98.823,86.922c6.559,37.288-1.104,72.963-9.592,109.071
			c-18.319,77.979-34.992,156.347-52.501,234.519c-2.234,9.967-4.614,20.062-8.539,29.418c-2.109,5.026-6.899,10.163-11.794,12.545
			c-14.315,6.967-18.779,3.42-19.424-12.615c-0.466-11.613-2.597-23.176-2.776-34.779c-0.344-22.287,0.651-44.596,0.144-66.871
			c-0.282-12.421-0.641-25.358-4.226-37.065c-5.22-17.05-4.375-32.759,1.867-49.077c17.137-44.796,35.021-89.364,50.16-134.837
			c6.193-18.605,6.32-39.281,8.651-59.08c0.52-4.424,0.117-10.142-2.313-13.48c-4.66-6.409-10.286-14.319-17.04-16.24
			c-4.615-1.313-14.453,5.012-17.434,10.416c-17.275,31.361-33.219,63.458-49.594,95.316c-2.614,5.084-5.13,10.216-7.691,15.326
			c-1.158-0.277-2.314-0.556-3.471-0.834c-3.112-17.641-5.414-35.476-9.596-52.859c-3.239-13.466-7.425-27.09-13.727-39.336
			c-8.088-15.715-20.277-15.734-30.005-0.982c-12.881,19.529-15.958,41.588-13.8,64.392c5.343,56.464,16.293,111.5,40.942,163.229
			c11.169,23.44,6.268,48.67,4.763,73.145C260.583,441.501,256.288,470.146,265.287,498.312z"/>
		<path fill-rule="evenodd" clip-rule="evenodd" fill="#FFF200" d="M357.638,122.298c-0.624,64.539-29.023,116.771-55.856,171.384
			c-10.267-11.56-11.821-23.595-10.731-36.217C293.392,230.332,335.02,144.596,357.638,122.298z"/>
		<path fill-rule="evenodd" clip-rule="evenodd" fill="#FFF200" d="M234.768,159.603c1.266-8.144,1.462-14.843,3.56-20.88
			c1.269-3.65,5.488-6.275,8.38-9.36c2.599,3.388,6.903,6.499,7.501,10.209c2.665,16.527,4.243,33.229,6.267,49.859
			c3.54,29.094,6.576,58.263,10.949,87.231c1.71,11.324,6.788,22.104,9.623,33.312c0.838,3.315-0.741,7.242-1.212,10.887
			c-3.363-2.152-8.888-3.659-9.753-6.556c-7.98-26.721-16.107-53.466-22.28-80.639C242.145,208.764,238.848,183.324,234.768,159.603
			z"/>
		<path fill-rule="evenodd" clip-rule="evenodd" fill="#FFF200" d="M310.339,509.853c0.278-0.631-1.021,3.165-1.414,3.07
			c-6.97-1.62-14.155-3.023-20.563-6.032c-2.833-1.33-6.395-6.897-5.63-9.227c10.36-31.564,0.357-62.876-0.212-94.265
			c-0.216-11.954,1.307-24.048,3.324-35.856c0.553-3.238,5.756-5.682,8.827-8.491c1.668,3.447,4.57,6.81,4.812,10.354
			c2.064,30.182,3.374,60.414,5.481,90.592C306.063,475.729,308.307,491.386,310.339,509.853z"/>
		<path fill-rule="evenodd" clip-rule="evenodd" d="M459.227,137.916c-2.519-38.474-17.572-70.396-49.614-92.813
			C348.719,2.498,283.319-2.595,215.722,25.73c-68.293,28.616-100.575,81.534-94.076,154.968c2.062,23.295,9.75,46.438,17.301,68.83
			c13.122,38.909,27.262,77.346,30.283,118.855c0.508,6.975,4.909,13.776,8.017,20.422c4.291,9.178,11.169,17.674,13.254,27.263
			c8.304,38.188,15.54,76.619,22.403,115.102c2.683,15.046,5.705,18.294,21.003,16.415c5.065-0.62,10.154-1.033,15.233-1.541
			c0.208,1.471,0.415,2.938,0.623,4.41c-9.62,2.25-19.501,3.778-28.736,7.104c-3.828,1.381-6.27,6.603-9.343,10.08
			c3.668,2.211,7.101,5.601,11.054,6.391c8.896,1.78,18.05,2.272,27.101,3.289c0.288,1.219,0.575,2.438,0.863,3.658
			c-5.66,1.944-11.512,3.465-16.933,5.934c-7.947,3.617-15.583,7.913-23.353,11.921c8.475,0.793,16.936,1.821,25.428,2.303
			c6.692,0.377,13.421,0.073,20.133,0.073c0.236,1.893,0.471,3.781,0.706,5.671c-10.354,3.002-20.819,5.679-30.995,9.189
			c-3.333,1.151-5.917,4.474-8.844,6.803c3.024,3.011,5.579,7.533,9.19,8.654c4.622,1.432,10.103,0.252,15.199-0.036
			c5.155-0.29,10.293-0.863,15.439-1.312c0.479,1.517,0.956,3.038,1.434,4.555c-4.884,2.272-9.956,4.219-14.598,6.906
			c-4.921,2.853-13.792,7.353-13.332,9.488c1.553,7.191,5.457,14.608,10.501,20.047c3.288,3.544,10.115,5.244,15.357,5.244
			c11.581-0.002,20.1,4.161,28.274,12.427c13.896,14.049,34.185,10.628,42.797-6.856c4.338-8.808,10.505-12.171,19.779-12.495
			c16.689-0.586,25.57-12.499,32.729-25.152c4.292-7.585,0.945-15.017-7.798-17.672c-5.66-1.723-11.899-2.015-17.893-2.094
			c-18.864-0.247-37.733-0.091-56.602-0.091c3.688-3.727,7.789-5.408,12.05-6.094c21.134-3.405,42.392-6.128,63.401-10.145
			c4.108-0.785,7.327-6.223,10.953-9.515c-4.232-1.906-8.613-5.71-12.683-5.4c-20.374,1.554-40.662,4.258-61.004,6.347
			c-2.956,0.303-6.031-0.532-9.051-0.837c-0.163-1.826-0.326-3.651-0.488-5.478c14.222-2.72,28.438-5.479,42.671-8.152
			c7.76-1.458,15.876-1.849,23.192-4.49c4.326-1.564,7.404-6.578,11.04-10.04c-4.429-1.665-8.857-4.678-13.285-4.678
			c-6.88,0-13.826,1.753-20.624,3.306c-9.982,2.277-19.772,5.449-29.801,7.468c-8.727,1.755-17.115,1.09-22.936-9.035
			c3.432-0.963,5.533-1.749,7.707-2.129c21.099-3.695,42.322-6.796,63.238-11.331c5.415-1.173,9.872-6.775,14.771-10.344
			c-5.885-2.096-11.637-5.313-17.684-6.021c-8.828-1.034-17.871-0.265-27.766-0.265c1.465-2.26,1.78-3.38,2.441-3.648
			c1.696-0.689,3.562-1.454,5.329-1.394c23.215,0.824,39.888-6.234,40.538-33.053c0.009-0.425,0.405-0.833,0.553-1.273
			c14.026-42.7,28.048-85.402,42.058-128.11c0.289-0.881,0.388-1.822,0.591-2.732c7.855-35.43,15.313-70.955,23.673-106.266
			C455.818,220.593,461.967,179.764,459.227,137.916z M341.885,642.634c0.572,2.193,1.146,4.383,1.715,6.576
			c-15.961,6.849-31.463,15.604-48.106,19.631c-6.924,1.678-16.289-6.733-24.543-10.56c0.072-1.281,0.144-2.564,0.215-3.85
			C294.738,650.5,318.313,646.568,341.885,642.634z M270.083,314.305c-7.98-26.721-16.107-53.466-22.28-80.639
			c-5.659-24.903-8.955-50.342-13.036-74.064c1.266-8.144,1.462-14.843,3.56-20.88c1.269-3.65,5.488-6.275,8.38-9.36
			c2.599,3.388,6.903,6.499,7.501,10.209c2.665,16.527,4.243,33.229,6.267,49.859c3.54,29.094,6.576,58.263,10.949,87.231
			c1.71,11.324,6.788,22.104,9.623,33.312c0.838,3.315-0.741,7.242-1.212,10.887C276.473,318.709,270.948,317.202,270.083,314.305z
			 M308.925,512.923c-6.97-1.62-14.155-3.023-20.563-6.032c-2.833-1.33-6.395-6.897-5.63-9.227
			c10.36-31.564,0.357-62.876-0.212-94.265c-0.216-11.954,1.307-24.048,3.324-35.856c0.553-3.238,5.756-5.682,8.827-8.491
			c1.668,3.447,4.57,6.81,4.812,10.354c2.064,30.182,3.374,60.414,5.481,90.592c1.098,15.731,3.342,31.388,5.374,49.854
			C310.617,509.222,309.318,513.018,308.925,512.923z M291.05,257.465c2.342-27.133,43.97-112.869,66.588-135.167
			c-0.624,64.539-29.023,116.771-55.856,171.384C291.515,282.123,289.96,270.087,291.05,257.465z M419.753,232.518
			c-18.319,77.979-34.992,156.347-52.501,234.519c-2.234,9.967-4.614,20.062-8.539,29.418c-2.109,5.026-6.899,10.163-11.794,12.545
			c-14.315,6.967-18.779,3.42-19.424-12.615c-0.466-11.613-2.597-23.176-2.776-34.779c-0.344-22.287,0.651-44.596,0.144-66.871
			c-0.282-12.421-0.641-25.358-4.226-37.065c-5.22-17.05-4.375-32.759,1.867-49.077c17.137-44.796,35.021-89.364,50.16-134.837
			c6.193-18.605,6.32-39.281,8.651-59.08c0.52-4.424,0.117-10.142-2.313-13.48c-4.66-6.409-10.286-14.319-17.04-16.24
			c-4.615-1.313-14.453,5.012-17.434,10.416c-17.275,31.361-33.219,63.458-49.594,95.316c-2.614,5.084-5.13,10.216-7.691,15.326
			c-1.158-0.277-2.314-0.556-3.471-0.834c-3.112-17.641-5.414-35.476-9.596-52.859c-3.239-13.466-7.425-27.09-13.727-39.336
			c-8.088-15.715-20.277-15.734-30.005-0.982c-12.881,19.529-15.958,41.588-13.8,64.392c5.343,56.464,16.293,111.5,40.942,163.229
			c11.169,23.44,6.268,48.67,4.763,73.145c-1.768,28.734-6.063,57.38,2.936,85.545c-22.495,6.997-28.429,2.896-33.412-17.267
			c-7.028-28.43-16.213-56.323-23.818-84.625c-7.34-27.315-12.659-55.224-21.011-82.208
			c-11.414-36.885-26.647-72.642-36.988-109.788c-13.8-49.572,3.604-91.99,38.194-127.503c8.689-8.921,21.635-14.288,33.417-19.496
			c34.581-15.286,70.83-22.613,108.853-20.899c48.158,2.171,90.448,39.297,98.823,86.922
			C435.903,160.734,428.24,196.41,419.753,232.518z"/>
	</g>
</g>
</svg>
