<?xml version="1.0" encoding="utf-8"?>
<!-- Generator: Adobe Illustrator 16.0.0, SVG Export Plug-In . SVG Version: 6.00 Build 0)  -->
<!DOCTYPE svg PUBLIC "-//W3C//DTD SVG 1.1//EN" "http://www.w3.org/Graphics/SVG/1.1/DTD/svg11.dtd">
<svg version="1.1" id="Layer_1" xmlns="http://www.w3.org/2000/svg" xmlns:xlink="http://www.w3.org/1999/xlink" x="0px" y="0px"
	 width="180px" height="172.8px" viewBox="0 0 180 172.8" enable-background="new 0 0 180 172.8" xml:space="preserve">
<g>
	<g>
		<path fill="#3C2A2A" d="M110.469,6.337v7.249H76.698h-3v3v44.82v3h3h22.533h3v-3V47.788v-3h-3H86.26v-8.241h12.971h11.237v11.241
			v13.618v10.275v0.465H66.327V6.337H110.469 M113.469,3.337H63.327v71.81h50.142v-3.465V61.406V47.788V33.547H99.231H83.26v14.241
			h15.971v13.618H76.698v-44.82h36.771V3.337L113.469,3.337z"/>
		<polygon fill="#DF4452" points="73.698,16.586 73.698,13.586 76.698,13.586 110.469,13.586 110.469,6.337 66.327,6.337 
			66.327,72.147 110.469,72.147 110.469,71.682 110.469,61.406 110.469,47.788 110.469,36.547 99.231,36.547 86.26,36.547 
			86.26,44.788 99.231,44.788 102.231,44.788 102.231,47.788 102.231,61.406 102.231,64.406 99.231,64.406 76.698,64.406 
			73.698,64.406 73.698,61.406 		"/>
	</g>
	<g>
		<path fill="#DF4452" d="M128.092,73.647V4.837l49.496,0v68.809H128.092z M139.332,62.906h27.763v-47.82h-27.763V62.906z"/>
		<path fill="#3C2A2A" d="M129.592,6.337l46.496,0v65.809h-46.496v-0.465V61.406v-44.82v-2.601V6.337 M137.832,64.406h3h24.763h3v-3
			v-44.82v-3h-3h-24.763h-3v3v44.82V64.406 M126.592,3.337v10.648v2.601v44.82v10.275v3.465h52.496V3.338L126.592,3.337
			L126.592,3.337z M140.832,61.406v-44.82h24.763v44.82H140.832L140.832,61.406z"/>
		<g>
			<path fill="#3C2A2A" d="M165.595,64.406h3v-3v-44.82v-3h-3h-24.763h-3v3v44.82v3h3H165.595z M140.832,16.586h24.763v44.82
				h-24.763V16.586z"/>
			<path fill="#3C2A2A" d="M126.592,3.337v10.648v2.601v44.82v10.275v3.465h52.496V3.338L126.592,3.337z M176.088,72.147h-46.496
				v-0.465V61.406v-44.82v-2.601V6.337l46.496,0V72.147z"/>
		</g>
	</g>
</g>
<g>
	<path fill="#3C2A2A" d="M121.279,172.558l-25.634-25.632l0.432-13.43l-80.939-80.94L6.47,61.221L1.422,26.954l34.217,5.002
		l-8.619,8.707l80.249,80.249l13.277-0.583l26.48,26.481l-21.045,4.702L121.279,172.558z M98.687,145.723l20.854,20.854l3.93-17.577
		l17.576-3.929l-21.688-21.688l-13.277,0.583L22.788,40.673l6.542-6.608l-24.352-3.56l3.591,24.375l6.569-6.567l83.98,83.979
		L98.687,145.723z"/>
	<polygon fill="#DF4452" points="141.047,145.071 119.359,123.383 106.082,123.966 22.788,40.673 29.33,34.065 4.978,30.506 
		8.569,54.881 15.138,48.314 99.118,132.293 98.687,145.723 119.541,166.577 123.471,149 	"/>
</g>
</svg>
