<?xml version="1.0" encoding="utf-8"?>
<!-- Generator: Adobe Illustrator 16.0.0, SVG Export Plug-In . SVG Version: 6.00 Build 0)  -->
<!DOCTYPE svg PUBLIC "-//W3C//DTD SVG 1.1//EN" "http://www.w3.org/Graphics/SVG/1.1/DTD/svg11.dtd">
<svg version="1.1" xmlns="http://www.w3.org/2000/svg" xmlns:xlink="http://www.w3.org/1999/xlink" x="0px" y="0px" width="222px"
	 height="210px" viewBox="0 0 222 210" enable-background="new 0 0 222 210" xml:space="preserve">
<g id="Layer_2" display="none">
	<path display="inline" fill-rule="evenodd" clip-rule="evenodd" fill="#FFFFFF" d="M111.386,111.391
		c0.521,0.074,1.043,0.149,1.564,0.224c0.072,1.375,0.105,2.753,0.224,4.125c0.521,6.065,5.303,10.094,11,9.291
		c7.074-0.998,11.834-7.989,10.183-14.959c-1.226-5.168-6.732-7.988-12.452-6.525c-2.306,0.589-4.72,1.212-7.044,1.087
		c-1.193-0.065-3.135-1.613-3.305-2.712c-0.918-5.963,1.232-9.378,6.722-12.381c2.606-1.426,5.327-2.951,7.36-5.048
		c4.001-4.128,4.202-9.328,3.192-14.767c-0.883-4.755-4.921-3.549-7.813-4.479c-4.799-1.544-5.865-5.878-6.963-9.82
		c-1-3.593,2.516-4.668,4.857-6.154c5.336-3.385,5.505-5.068,0.796-9.066c-0.803-0.681-1.632-1.336-2.49-1.943
		c-5.958-4.22-5.976-4.222-2.481-10.953c0.9-1.734,1.834-3.461,2.898-5.096c2.948-4.523,6.082-8.928,8.901-13.529
		c0.866-1.416,1.722-3.663,1.166-4.883c-0.505-1.108-2.925-1.827-4.521-1.867c-5.411-0.135-10.854-0.181-16.245,0.254
		C81.354,4.254,57.528,13.688,32.991,20.129c-3.248,0.853-4.858,3.241-3.473,7.007c2.218,6.032,1.178,11.894-1.785,17.418
		c-1.774,3.309-3.698,6.563-5.842,9.642c-2.826,4.06-3.84,8.474-3.196,13.271c0.5,3.72,1.538,7.381,1.837,11.109
		c0.278,3.467,1.962,5.234,4.963,6.716c7.401,3.657,8.372,7.549,3.406,14.204c-4.027,5.397-5.468,11.336-4.868,17.833
		c0.4,4.33,1.427,8.604,1.783,12.937c0.122,1.485-0.473,3.633-1.538,4.517c-5.846,4.848-9.058,11.06-10.75,18.32
		c-3.81,16.343-2.364,32.923-2.401,49.438c-0.007,3.247,1.616,4.45,5.089,4.515c39.319,0.711,78.573-0.521,117.765-3.665
		c1.703-0.138,3.687-1.233,4.882-2.502c7.111-7.548,13.954-15.348,21.05-22.908c2.468-2.628,3.012-4.554,0.378-7.63
		c-4.554-5.318-4.245-6.902,0.603-12.259c1.313-1.451,2.828-2.745,3.973-4.314c1.055-1.448,1.736-3.169,3.059-5.67
		c8.082-2.479,8.074-2.482,12.748-11.24c0.636-1.191,1.261-2.432,2.121-3.452c3.358-3.977,8.78-3.865,12.01-0.014
		c1.631,1.946,3.497,3.736,5.458,5.353c2.46,2.026,4.916,1.359,5.607-1.576c2.234-9.477,3.55-19.032-0.477-28.688
		c3.286-3.063,5.292-6.618,2.538-11.634c-0.833-1.516-0.393-3.81-0.305-5.738c0.301-6.785-1.083-9.229-6.597-11.852
		c3.396-6.825,7.244-13.481,10.016-20.557c1.51-3.852,2.016-8.525,1.478-12.632c-0.571-4.366-3.078-4.643-5.945-1.325
		c-6.396,7.396-12.705,14.868-19.196,22.18c-1.451,1.636-3.474,2.779-5.287,4.076c-2.245,1.605-4.705,2.945-6.787,4.733
		c-5.901,5.067-11.723,10.231-17.427,15.518c-1.783,1.652-3.631,3.597-4.515,5.786c-2.759,6.823-5.023,13.845-7.606,20.742
		c-0.416,1.112-1.546,2.873-2.233,2.823c-4.663-0.345-6.953,2.996-9.797,5.623c-0.874,0.806-2.884,1.858-3.195,1.56
		c-2.258-2.145-3.597-0.239-4.961,0.935c-5.365,4.607-10.715,9.237-15.934,14.011c-1.963,1.796-3.193,1.775-5.251-0.064
		c-2.858-2.555-6.216-4.559-9.42-6.709c-2.131-1.429-4.367-2.703-6.554-4.048c0.203-0.419,0.404-0.84,0.607-1.26
		c2.218,0.582,4.421,1.24,6.661,1.734c12.082,2.663,17.051-1.927,15.135-13.908c-0.238-1.483-0.496-2.992-0.443-4.478
		C110.407,113.122,111.03,112.26,111.386,111.391z"/>
	<path display="inline" fill-rule="evenodd" clip-rule="evenodd" fill="#FFFFFF" d="M85.226,42.786
		c2.995-1.537,5.674-2.912,8.354-4.288c0.351,0.358,0.701,0.716,1.052,1.074c-1.025,1.963-2.053,3.927-3.161,6.048
		c2.84,0.574,5.453,1.005,8.015,1.64c5.626,1.395,10.059,3.609,11.217,10.43c1.015,5.98,4.273,10.917,11.257,11.951
		c1.008,0.149,2.667,1.753,2.564,2.477c-0.33,2.333-1.032,6.361-2.143,6.553c-7.518,1.3-12.103,5.422-13.932,13.105
		c-2.432-2.051-4.305-3.633-6.177-5.213c-0.473,0.192-0.944,0.384-1.417,0.576c0.298,1.465,0.207,3.179,0.958,4.353
		c3.885,6.061,2.914,13.214-3.027,17.219c-3.946,2.661-8.593,4.298-12.467,7.043c-2.391,1.693-3.917,4.607-6.586,7.906
		c-5.888,0.873-11.29-2.189-14.262-8.894c-0.583-1.313-2.211-3.329-3.031-3.183c-6.136,1.09-7.53-4.644-10.771-7.413
		c-2.045-1.748-0.097-4.722,2.899-4.927c5.871-0.402,8.181-3.302,6.836-8.852c-0.54,0.055-1.193-0.051-1.662,0.195
		c-5.602,2.951-9.095,2.23-11.214-3.671c-2.049-5.708-3.455-11.829-3.938-17.865c-0.499-6.219,3.135-8.669,9.183-7.778
		c2.136,0.314,4.357,0.05,6.886,0.05c-1.555-5.041-5.611-5.571-9.28-6.358c-3.493-0.75-5.661,1.262-7.023,4.319
		c-0.179,0.401-0.468,0.805-0.81,1.076c-5.059,3.998-5.333,8.218-3.092,14.485c3.32,9.29,4.513,19.325,6.926,28.963
		c0.581,2.32,2.004,4.732,3.716,6.415c7.483,7.353,14.488,15.317,24.141,20.101c3.907,1.937,4.962,5.3,4.125,10.42
		c-3.309-1.917-6.671-3.105-9.016-5.356c-9.222-8.851-18.253-17.908-27.084-27.15c-4.255-4.454-6.957-9.828-5.986-16.366
		c0.773-5.207-1.799-8.317-6.445-9.939c-3.544-1.238-4.823-3.735-5.765-7.277c-2.536-9.537-0.485-18.061,5.356-25.508
		c4.16-5.302,6.163-10.844,5.806-17.489c-0.077-1.435,0.92-2.929,1.423-4.396c1.318,0.522,2.604,1.156,3.96,1.547
		c6.444,1.859,12.83,4.052,19.389,5.355c6.466,1.285,13.133,1.526,19.681,2.452C85.591,37.309,85.568,37.469,85.226,42.786z
		 M105.601,80.354c0.898-4.949,1.721-9.217,2.42-13.505c0.164-1.007-0.106-2.081-0.154-3.125c-0.143-3.112-0.199-6.231-0.458-9.333
		c-0.076-0.906-0.724-1.764-1.109-2.645c-0.907,0.575-2.001,0.985-2.686,1.757c-1.426,1.607-2.344,3.795-4.003,5.03
		c-2.309,1.718-2.466,2.95-0.567,5.028c0.902,0.988,1.167,2.559,1.721,3.866c-0.357,0.34-0.713,0.681-1.068,1.021
		c-1.857-0.738-3.661-1.698-5.584-2.141c-1.502-0.346-3.153-0.049-4.738-0.039c0.89,1.465,1.471,3.332,2.738,4.31
		c2.575,1.988,5.607,3.372,8.285,5.244C102.302,77.154,103.933,78.878,105.601,80.354z M57.317,82.469
		c0.62-3.268,1.499-6.235,1.626-9.235c0.074-1.716-0.657-3.846-1.776-5.138c-1.413-1.63-3.47-2.891-5.491-3.725
		c-1.082-0.446-2.671,0.339-4.032,0.568c0.435,1.383,0.524,3.66,1.368,3.986c2.87,1.109,2.896,2.906,2.375,5.341
		C50.293,79.389,53.018,82.464,57.317,82.469z M72.618,65.31c2.845-4.566,5.144-8.257,7.582-12.169
		C74.441,53.372,70.57,58.862,72.618,65.31z M74.26,49.177c-0.552-0.245-1.104-0.49-1.655-0.735
		c-2.936,2.997-4.965,6.41-5.572,10.476c0.48,0.221,0.961,0.441,1.44,0.662C70.403,56.113,72.332,52.645,74.26,49.177z"/>
	<path display="inline" fill-rule="evenodd" clip-rule="evenodd" fill="#FFFFFF" d="M209.003,50.922
		c-0.521,2.536-0.533,5.329-1.661,7.557c-2.703,5.348-5.709,10.583-9.073,15.536c-1.125,1.655-3.691,2.352-5.632,3.427
		c-2.474,1.37-5.296,2.328-7.351,4.158c-1.088,0.968-0.868,3.405-1.239,5.18c1.53-0.075,3.097,0.03,4.584-0.261
		c3.433-0.674,6.801-1.894,10.251-2.148c1.293-0.096,2.987,1.673,4.013,2.975c0.521,0.664,0.372,2.804-0.189,3.164
		c-0.955,0.615-2.473,0.389-3.758,0.451c-3.642,0.174-7.309,0.125-10.913,0.582c-1.126,0.143-2.344,1.449-3.037,2.531
		c-0.623,0.974-0.586,2.371-0.84,3.582c1.178-0.078,2.366-0.099,3.536-0.245c4.341-0.54,8.676-1.481,13.01-1.468
		c1.296,0.004,3.674,2.693,3.6,4.044c-0.094,1.682-1.954,4.246-3.516,4.653c-2.936,0.768-6.219,0.103-9.329,0.364
		c-1.293,0.109-2.515,1.062-3.771,1.63c0.855,1.118,1.499,2.846,2.606,3.224c2.2,0.751,4.648,0.94,7.009,1.039
		c5.116,0.213,6.188,1.277,5.882,6.221c-0.338,5.466-0.624,10.936-0.934,16.403c-0.493,0.124-0.99,0.246-1.483,0.37
		c-1.742-4.62-3.486-9.239-5.16-13.675c-2.611,0.802-4.481,1.592-6.426,1.921c-2.897,0.49-5.631,0.427-7.245-2.898
		c-0.413-0.85-2.144-1.06-3.269-1.563c-0.237,1.076-0.435,2.163-0.716,3.229c-1.468,5.582-2.114,11.582-4.645,16.631
		c-3.31,6.6-12.855,6.337-17.184,0.331c-6.598-9.156-8.099-18.244-2.639-28.941c3.914-7.667,8.532-14.124,14.834-19.971
		c12.196-11.313,25.282-21.795,35.349-35.248c1.064-1.424,1.644-3.212,2.447-4.832C207.077,49.556,208.041,50.239,209.003,50.922z"
		/>
	<path display="inline" fill-rule="evenodd" clip-rule="evenodd" fill="#FFFFFF" d="M151.139,161.077
		c-5.86-9.02-11.266-17.255-16.522-25.582c-0.459-0.726-0.336-2.313,0.169-3.062c1.407-2.088,3.156-3.943,5.227-6.441
		c3.546,4.619,6.313,8.25,9.109,11.857c2.844,3.67,5.844,7.227,8.493,11.032c0.709,1.02,1.021,3.182,0.418,4.09
		C156.321,155.551,154.045,157.752,151.139,161.077z"/>
	<path display="inline" fill-rule="evenodd" clip-rule="evenodd" fill="#FFFFFF" d="M104.369,113.979
		c0.753,3.775,1.813,6.76,1.823,9.749c0.012,3.396-6.128,4.962-10.126,2.693c-2.314-1.311-4.508-2.832-7.323-4.618
		C93.726,119.31,98.57,116.883,104.369,113.979z"/>
	<path display="inline" fill-rule="evenodd" clip-rule="evenodd" fill="#FFFFFF" d="M122.167,119.387
		c-2.034-0.082-3.588-1.513-3.697-4.411c-0.117-3.102,3.476-6.977,6.655-6.364c1.674,0.323,3.902,2.347,4.253,3.955
		C130.018,115.511,125.912,119.375,122.167,119.387z"/>
	<path display="inline" fill-rule="evenodd" clip-rule="evenodd" fill="#FFFFFF" d="M100.782,40.249
		c4.849,1.111,9.695,2.221,14.847,3.401c-1.467,4.075-3.547,4.75-6.689,2.857c-2.795-1.685-5.658-3.259-8.491-4.882
		C100.56,41.166,100.671,40.708,100.782,40.249z"/>
	<path display="inline" fill-rule="evenodd" clip-rule="evenodd" fill="#FFFFFF" d="M91.155,141.771
		c2.12,1.796,4.477,3.397,6.226,5.504c0.554,0.668-0.509,2.68-0.832,4.075c-1.058-0.344-2.628-0.368-3.079-1.09
		c-1.489-2.399-2.577-5.049-3.819-7.601C90.153,142.363,90.654,142.066,91.155,141.771z"/>
</g>
<g id="Layer_1">
	<g>
		<path fill-rule="evenodd" clip-rule="evenodd" fill="#3D2B2B" d="M111.386,111.391c-0.356,0.869-0.979,1.731-1.011,2.614
			c-0.053,1.485,0.205,2.994,0.443,4.478c1.916,11.981-3.053,16.571-15.135,13.908c-2.24-0.494-4.442-1.152-6.661-1.734
			c-0.203,0.42-0.405,0.841-0.607,1.26c2.187,1.345,4.423,2.619,6.554,4.048c3.204,2.15,6.562,4.154,9.42,6.709
			c2.058,1.84,3.288,1.86,5.251,0.064c5.219-4.773,10.569-9.403,15.934-14.011c1.364-1.174,2.703-3.079,4.961-0.935
			c0.312,0.299,2.321-0.754,3.195-1.56c2.844-2.627,5.134-5.968,9.797-5.623c0.688,0.05,1.817-1.711,2.233-2.823
			c2.583-6.897,4.848-13.919,7.606-20.742c0.884-2.189,2.731-4.134,4.515-5.786c5.704-5.287,11.525-10.451,17.427-15.518
			c2.082-1.788,4.542-3.127,6.787-4.733c1.813-1.297,3.836-2.44,5.287-4.076c6.491-7.312,12.801-14.783,19.196-22.18
			c2.867-3.318,5.374-3.041,5.945,1.325c0.538,4.106,0.032,8.78-1.478,12.632c-2.771,7.076-6.62,13.731-10.016,20.557
			c5.514,2.623,6.897,5.067,6.597,11.852c-0.088,1.928-0.528,4.222,0.305,5.738c2.754,5.016,0.748,8.571-2.538,11.634
			c4.026,9.656,2.711,19.212,0.477,28.688c-0.691,2.936-3.147,3.603-5.607,1.576c-1.961-1.616-3.827-3.406-5.458-5.353
			c-3.229-3.852-8.651-3.963-12.01,0.014c-0.86,1.021-1.485,2.261-2.121,3.452c-4.674,8.758-4.666,8.762-12.748,11.24
			c-1.322,2.501-2.004,4.222-3.059,5.67c-1.145,1.569-2.659,2.863-3.973,4.314c-4.848,5.356-5.156,6.94-0.603,12.259
			c2.634,3.076,2.09,5.002-0.378,7.63c-7.096,7.561-13.938,15.36-21.05,22.908c-1.195,1.269-3.179,2.364-4.882,2.502
			c-39.192,3.145-78.446,4.376-117.765,3.665c-3.473-0.064-5.096-1.268-5.089-4.515c0.038-16.515-1.409-33.095,2.401-49.438
			c1.692-7.261,4.904-13.473,10.75-18.32c1.065-0.884,1.659-3.031,1.538-4.517c-0.356-4.332-1.383-8.606-1.783-12.937
			c-0.601-6.497,0.841-12.436,4.868-17.833c4.965-6.655,3.995-10.547-3.406-14.204c-3.001-1.482-4.685-3.249-4.963-6.716
			c-0.299-3.728-1.338-7.389-1.837-11.109c-0.644-4.796,0.37-9.211,3.196-13.271c2.144-3.079,4.068-6.333,5.842-9.642
			c2.963-5.524,4.003-11.386,1.785-17.418c-1.385-3.766,0.225-6.155,3.473-7.007c24.538-6.442,48.363-15.875,73.946-17.938
			c5.39-0.435,10.833-0.389,16.245-0.254c1.596,0.04,4.016,0.759,4.521,1.867c0.556,1.22-0.3,3.467-1.166,4.883
			c-2.819,4.601-5.953,9.005-8.901,13.529c-1.064,1.635-1.998,3.362-2.898,5.096c-3.495,6.73-3.477,6.733,2.481,10.953
			c0.858,0.607,1.688,1.262,2.49,1.943c4.709,3.998,4.54,5.681-0.796,9.066c-2.342,1.485-5.857,2.561-4.857,6.154
			c1.098,3.942,2.164,8.275,6.963,9.82c2.892,0.93,6.93-0.276,7.813,4.479c1.01,5.439,0.809,10.638-3.192,14.767
			c-2.033,2.097-4.754,3.622-7.36,5.048c-5.489,3.003-7.64,6.418-6.722,12.381c0.169,1.099,2.111,2.647,3.305,2.712
			c2.324,0.125,4.738-0.499,7.044-1.087c5.72-1.463,11.227,1.357,12.452,6.525c1.651,6.97-3.108,13.961-10.183,14.959
			c-5.697,0.803-10.479-3.226-11-9.291c-0.118-1.372-0.151-2.75-0.224-4.125C112.43,111.54,111.907,111.465,111.386,111.391z
			 M85.226,42.786c0.342-5.317,0.366-5.477-4.544-6.171C74.133,35.688,67.466,35.447,61,34.163
			c-6.56-1.304-12.945-3.497-19.389-5.355c-1.356-0.391-2.642-1.025-3.96-1.547c-0.502,1.467-1.5,2.96-1.423,4.396
			c0.357,6.646-1.646,12.188-5.806,17.489c-5.842,7.447-7.892,15.971-5.356,25.508c0.941,3.542,2.221,6.039,5.765,7.277
			c4.646,1.622,7.219,4.732,6.445,9.939c-0.971,6.539,1.731,11.912,5.986,16.366c8.831,9.242,17.863,18.3,27.084,27.15
			c2.344,2.251,5.707,3.439,9.016,5.356c0.836-5.12-0.218-8.483-4.125-10.42c-9.653-4.783-16.658-12.748-24.141-20.101
			c-1.712-1.683-3.135-4.095-3.716-6.415c-2.414-9.639-3.606-19.674-6.926-28.963c-2.241-6.267-1.967-10.487,3.092-14.485
			c0.342-0.271,0.63-0.674,0.81-1.076c1.362-3.057,3.53-5.069,7.023-4.319c3.669,0.787,7.725,1.317,9.28,6.358
			c-2.529,0-4.75,0.264-6.886-0.05c-6.048-0.891-9.682,1.559-9.183,7.778c0.484,6.036,1.89,12.157,3.938,17.865
			c2.119,5.902,5.612,6.622,11.214,3.671c0.468-0.247,1.122-0.141,1.662-0.195c1.344,5.55-0.966,8.45-6.836,8.852
			c-2.996,0.205-4.944,3.179-2.899,4.927c3.242,2.77,4.635,8.503,10.771,7.413c0.82-0.146,2.449,1.869,3.031,3.183
			c2.973,6.704,8.374,9.767,14.262,8.894c2.669-3.299,4.196-6.213,6.586-7.906c3.874-2.745,8.521-4.382,12.467-7.043
			c5.941-4.005,6.912-11.158,3.027-17.219c-0.752-1.174-0.66-2.888-0.958-4.353c0.473-0.192,0.944-0.384,1.417-0.576
			c1.873,1.581,3.745,3.162,6.177,5.213c1.829-7.684,6.414-11.805,13.932-13.105c1.11-0.192,1.813-4.221,2.143-6.553
			c0.103-0.724-1.557-2.328-2.564-2.477c-6.984-1.034-10.243-5.97-11.257-11.951c-1.158-6.82-5.59-9.035-11.217-10.43
			c-2.563-0.635-5.175-1.066-8.015-1.64c1.108-2.121,2.136-4.085,3.161-6.048c-0.351-0.358-0.701-0.716-1.052-1.074
			C90.9,39.874,88.221,41.249,85.226,42.786z M35.312,150.26c-0.269,0.28-0.539,0.562-0.808,0.842
			c-0.019-0.422-0.124-0.861-0.042-1.265c0.396-1.961-2.781-8.567-4.213-8.146c-2.323,0.68-5.375,2.111-6.205,4.045
			c-2.462,5.747-5.081,11.794-5.636,17.906c-0.918,10.129-0.196,20.4-0.324,30.609c-0.052,4.128,1.738,5.415,5.75,5.311
			c16.923-0.437,33.853-0.614,50.779-0.932c14.442-0.271,28.887-0.513,43.323-0.979c3.871-0.126,7.936-0.408,11.529-1.688
			c10.682-3.807,16.169-13.064,21.741-22.073c0.306-0.496,0.11-1.526-0.195-2.139c-1.331-2.667-2.575-5.417-4.254-7.861
			c-2.187-3.182-4.832-6.043-7.144-9.144c-3.771-5.059-7.358-10.255-11.215-15.246c-0.605-0.786-2.608-1.451-3.284-1.043
			c-2.234,1.349-4.164,3.207-6.201,4.881c-8.415,6.924-15.564,15.201-24.042,22.107c-5.658,4.612-10.446,10.343-15.345,15.822
			c-4.373,4.889-8.04,5.226-12.997,0.757c-2.441-2.203-5.138-4.121-7.593-6.309c-3.553-3.164-7.345-6.161-10.379-9.779
			c-3.033-3.616-5.061-8.061-7.928-11.84C39.365,152.432,37.114,151.516,35.312,150.26z M209.003,50.922
			c-0.962-0.683-1.926-1.366-2.888-2.049c-0.804,1.62-1.383,3.408-2.447,4.832c-10.066,13.452-23.152,23.935-35.349,35.248
			c-6.302,5.847-10.92,12.304-14.834,19.971c-5.46,10.697-3.959,19.785,2.639,28.941c4.328,6.006,13.874,6.269,17.184-0.331
			c2.53-5.049,3.177-11.049,4.645-16.631c0.281-1.065,0.479-2.152,0.716-3.229c1.125,0.504,2.855,0.714,3.269,1.563
			c1.614,3.325,4.348,3.389,7.245,2.898c1.944-0.329,3.814-1.119,6.426-1.921c1.674,4.436,3.418,9.055,5.16,13.675
			c0.493-0.124,0.99-0.246,1.483-0.37c0.31-5.468,0.596-10.938,0.934-16.403c0.306-4.943-0.766-6.008-5.882-6.221
			c-2.36-0.099-4.809-0.288-7.009-1.039c-1.107-0.378-1.751-2.105-2.606-3.224c1.256-0.568,2.478-1.521,3.771-1.63
			c3.11-0.261,6.394,0.404,9.329-0.364c1.562-0.407,3.422-2.971,3.516-4.653c0.074-1.351-2.304-4.04-3.6-4.044
			c-4.334-0.014-8.669,0.928-13.01,1.468c-1.17,0.146-2.358,0.167-3.536,0.245c0.254-1.21,0.217-2.607,0.84-3.582
			c0.693-1.082,1.911-2.389,3.037-2.531c3.604-0.457,7.271-0.407,10.913-0.582c1.285-0.062,2.803,0.164,3.758-0.451
			c0.562-0.36,0.711-2.5,0.189-3.164c-1.025-1.302-2.72-3.071-4.013-2.975c-3.45,0.254-6.818,1.474-10.251,2.148
			c-1.487,0.292-3.054,0.186-4.584,0.261c0.371-1.774,0.151-4.211,1.239-5.18c2.055-1.83,4.877-2.788,7.351-4.158
			c1.94-1.075,4.507-1.771,5.632-3.427c3.364-4.954,6.37-10.188,9.073-15.536C208.47,56.25,208.482,53.458,209.003,50.922z
			 M72.021,174.729c2.03-2.783,3.088-4.812,4.667-6.278c3.065-2.847,6.396-5.413,9.667-8.03c2.915-2.332,2.395-3.964-0.703-5.682
			c-9.626-5.336-18.638-11.46-26.138-19.708c-3.092-3.4-7.25-5.818-10.44-9.147c-4.633-4.833-8.776-10.133-13.267-15.108
			c-0.667-0.739-2.147-1.151-3.158-1.018c-0.61,0.082-1.682,1.863-1.453,2.281c2.7,4.911,1.85,10.104,1.605,15.282
			c-0.037,0.785,0.644,1.68,1.164,2.402c1.991,2.764,3.968,5.546,6.102,8.198c7.476,9.293,14.913,18.623,22.587,27.751
			C65.343,168.874,68.676,171.531,72.021,174.729z M52.041,23.16c2.072,0.698,2.854,1.072,3.677,1.221
			c7.671,1.384,15.304,3.322,23.04,3.915c7.165,0.55,14.005,5.167,21.491,1.886c0.28-0.123,0.932,0.148,1.165,0.436
			c3.06,3.768,3.914,0.619,4.704-1.625c0.743-2.118,1.03-4.396,1.588-6.924c2.815-0.873,5.927-6.094,5.869-10.961
			c-1.678-0.284-3.502-1.05-5.171-0.801c-10.013,1.495-20.028,3.02-29.964,4.943c-7.075,1.369-14.044,3.313-21.02,5.155
			C55.877,20.81,54.507,21.868,52.041,23.16z M151.139,161.077c2.906-3.325,5.183-5.526,6.894-8.105
			c0.604-0.908,0.291-3.07-0.418-4.09c-2.649-3.806-5.649-7.362-8.493-11.032c-2.796-3.607-5.563-7.238-9.109-11.857
			c-2.07,2.498-3.819,4.354-5.227,6.441c-0.505,0.749-0.628,2.336-0.169,3.062C139.873,143.822,145.278,152.058,151.139,161.077z
			 M104.369,113.979c-5.798,2.903-10.643,5.33-15.625,7.824c2.815,1.786,5.009,3.308,7.323,4.618
			c3.998,2.269,10.138,0.703,10.126-2.693C106.181,120.739,105.122,117.755,104.369,113.979z M122.167,119.387
			c3.745-0.012,7.851-3.876,7.211-6.82c-0.351-1.608-2.579-3.632-4.253-3.955c-3.18-0.612-6.772,3.263-6.655,6.364
			C118.579,117.874,120.133,119.305,122.167,119.387z M100.782,40.249c-0.111,0.458-0.223,0.917-0.333,1.375
			c2.833,1.624,5.696,3.198,8.491,4.882c3.142,1.894,5.222,1.218,6.689-2.857C110.478,42.47,105.631,41.36,100.782,40.249z
			 M91.155,141.771c-0.501,0.296-1.002,0.593-1.503,0.889c1.242,2.552,2.33,5.201,3.819,7.601c0.45,0.722,2.021,0.746,3.079,1.09
			c0.323-1.396,1.385-3.407,0.832-4.075C95.632,145.168,93.275,143.566,91.155,141.771z"/>
		<path fill-rule="evenodd" clip-rule="evenodd" fill="#61789C" d="M35.312,150.26c1.802,1.256,4.053,2.172,5.317,3.837
			c2.868,3.779,4.896,8.224,7.928,11.84c3.034,3.618,6.826,6.615,10.379,9.779c2.455,2.188,5.152,4.105,7.593,6.309
			c4.957,4.469,8.624,4.132,12.997-0.757c4.899-5.479,9.687-11.21,15.345-15.822c8.478-6.906,15.626-15.184,24.042-22.107
			c2.037-1.674,3.967-3.532,6.201-4.881c0.676-0.408,2.679,0.257,3.284,1.043c3.856,4.991,7.443,10.188,11.215,15.246
			c2.312,3.101,4.957,5.962,7.144,9.144c1.679,2.444,2.923,5.194,4.254,7.861c0.306,0.612,0.501,1.643,0.195,2.139
			c-5.572,9.009-11.06,18.267-21.741,22.073c-3.594,1.279-7.658,1.562-11.529,1.688c-14.436,0.467-28.881,0.708-43.323,0.979
			c-16.926,0.317-33.856,0.495-50.779,0.932c-4.012,0.104-5.801-1.183-5.75-5.311c0.128-10.209-0.594-20.48,0.324-30.609
			c0.555-6.112,3.174-12.159,5.636-17.906c0.829-1.934,3.881-3.365,6.205-4.045c1.433-0.421,4.609,6.186,4.213,8.146
			c-0.082,0.403,0.023,0.843,0.042,1.265C34.773,150.821,35.042,150.54,35.312,150.26z"/>
		<path fill-rule="evenodd" clip-rule="evenodd" fill="#61789C" d="M72.021,174.729c-3.345-3.198-6.678-5.855-9.367-9.057
			c-7.674-9.128-15.111-18.458-22.587-27.751c-2.134-2.652-4.111-5.435-6.102-8.198c-0.52-0.723-1.2-1.617-1.164-2.402
			c0.245-5.179,1.095-10.371-1.605-15.282c-0.229-0.418,0.843-2.199,1.453-2.281c1.011-0.134,2.492,0.278,3.158,1.018
			c4.491,4.976,8.634,10.275,13.267,15.108c3.19,3.329,7.348,5.747,10.44,9.147c7.5,8.248,16.512,14.372,26.138,19.708
			c3.097,1.718,3.618,3.35,0.703,5.682c-3.271,2.617-6.602,5.184-9.667,8.03C75.108,169.918,74.05,171.946,72.021,174.729z"/>
		<path fill-rule="evenodd" clip-rule="evenodd" fill="#61789C" d="M52.041,23.16c2.467-1.292,3.836-2.35,5.377-2.757
			c6.976-1.842,13.945-3.786,21.02-5.155c9.937-1.923,19.952-3.448,29.964-4.943c1.669-0.249,3.493,0.517,5.171,0.801
			c0.059,4.867-3.054,10.088-5.869,10.961c-0.558,2.528-0.846,4.807-1.588,6.924c-0.79,2.245-1.644,5.394-4.704,1.625
			c-0.233-0.288-0.885-0.559-1.165-0.436c-7.486,3.281-14.326-1.336-21.491-1.886c-7.735-0.593-15.368-2.531-23.04-3.915
			C54.895,24.232,54.113,23.858,52.041,23.16z"/>
		<path fill-rule="evenodd" clip-rule="evenodd" fill="#3D2B2B" d="M105.601,80.354c-1.668-1.475-3.299-3.199-5.203-4.532
			c-2.678-1.872-5.71-3.255-8.285-5.244c-1.267-0.978-1.848-2.845-2.738-4.31c1.585-0.011,3.236-0.307,4.738,0.039
			c1.924,0.443,3.728,1.403,5.584,2.141c0.355-0.34,0.711-0.681,1.068-1.021c-0.554-1.307-0.819-2.877-1.721-3.866
			c-1.899-2.078-1.742-3.31,0.567-5.028c1.659-1.235,2.577-3.423,4.003-5.03c0.685-0.772,1.779-1.182,2.686-1.757
			c0.385,0.881,1.033,1.739,1.109,2.645c0.259,3.102,0.316,6.221,0.458,9.333c0.048,1.043,0.318,2.118,0.154,3.125
			C107.322,71.136,106.499,75.405,105.601,80.354z"/>
		<path fill-rule="evenodd" clip-rule="evenodd" fill="#3D2B2B" d="M57.317,82.469c-4.299-0.005-7.024-3.08-5.929-8.202
			c0.521-2.435,0.494-4.232-2.375-5.341c-0.844-0.326-0.933-2.604-1.368-3.986c1.36-0.229,2.95-1.014,4.032-0.568
			c2.021,0.834,4.078,2.095,5.491,3.725c1.12,1.292,1.851,3.422,1.776,5.138C58.816,76.234,57.937,79.201,57.317,82.469z"/>
		<path fill-rule="evenodd" clip-rule="evenodd" fill="#3D2B2B" d="M72.618,65.31c-2.048-6.448,1.823-11.938,7.582-12.169
			C77.762,57.053,75.463,60.744,72.618,65.31z"/>
		<path fill-rule="evenodd" clip-rule="evenodd" fill="#3D2B2B" d="M74.26,49.177c-1.929,3.468-3.857,6.936-5.787,10.403
			c-0.479-0.22-0.96-0.441-1.44-0.662c0.606-4.066,2.636-7.479,5.572-10.476C73.157,48.687,73.708,48.933,74.26,49.177z"/>
	</g>
</g>
</svg>
