<?xml version="1.0" encoding="utf-8"?>
<!-- Generator: Adobe Illustrator 16.0.0, SVG Export Plug-In . SVG Version: 6.00 Build 0)  -->
<!DOCTYPE svg PUBLIC "-//W3C//DTD SVG 1.1//EN" "http://www.w3.org/Graphics/SVG/1.1/DTD/svg11.dtd">
<svg version="1.1" id="Layer_1" xmlns="http://www.w3.org/2000/svg" xmlns:xlink="http://www.w3.org/1999/xlink" x="0px" y="0px"
	 width="400px" height="325px" viewBox="0 0 400 325" enable-background="new 0 0 400 325" xml:space="preserve">
<g>
	<g>
		<path fill-rule="evenodd" clip-rule="evenodd" fill="#3D2B2B" d="M191.617,320.893c-12.45-0.641-24.91-1.127-37.347-1.965
			c-12.263-0.825-24.486-2.251-36.754-2.973c-16.848-0.99-33.048-4.852-48.456-11.405c-10.796-4.593-21.413-9.937-31.294-16.226
			c-5.897-3.755-10.339-9.874-15.226-15.124c-9.263-9.951-14.166-22.401-16.962-35.187c-2.938-13.433-5.426-27.297-3.901-41.183
			c0.923-8.408,5.431-15.682,10.563-22.437c12.512-16.471,28.334-29.125,46.07-39.38c12.958-7.493,26.159-14.622,39.595-21.214
			c13.656-6.701,27.459-13.29,41.713-18.526c11.366-4.175,23.446-6.522,35.331-9.117c5.541-1.21,8.882-4.547,10.042-9.3
			c2.542-10.411,5.601-8.506,13.294-8.097c11.532,0.614,23.033,1.802,34.546,2.76c13.185,1.098,26.379,2.112,39.535,3.478
			c1.276,0.132,3.015,2.339,3.336,3.841c0.765,3.57,2.547,5.285,6.071,6.374c21.836,6.75,42.475,16.371,60.982,29.664
			c13.169,9.458,25.743,20.081,37.082,31.654c11.091,11.32,17.319,25.672,18.955,41.918c1.489,14.779,1.103,29.499-1.259,43.994
			c-2.71,16.634-7.663,32.842-22.884,42.768c-9.178,5.983-18.983,11.113-28.866,15.883c-20.523,9.907-42.433,15.478-64.654,20.22
			c-24.426,5.215-48.981,8.664-73.975,8.761c-5.175,0.021-10.352,0.003-15.528,0.003C191.624,320.35,191.62,320.621,191.617,320.893
			z M211.255,168.992c-17.094,1.331-32.93,2.031-48.62,3.934c-16.104,1.952-32.279,4.18-48.042,7.9
			c-25.168,5.941-47.99,17.747-69.486,31.885c-9.052,5.953-16.81,13.618-18.789,25.112c-0.875,5.085-1.733,10.281-1.594,15.398
			c0.107,3.967,0.728,8.686,2.98,11.658c3.893,5.136,8.707,9.965,14.063,13.525c14.254,9.476,29.727,16.919,46.469,20.555
			c15.032,3.265,30.377,5.409,45.694,6.944c13.278,1.33,26.742,1.916,40.07,1.405c23.082-0.884,46.146-2.574,69.169-4.498
			c15.718-1.313,31.53-2.686,46.986-5.663c21.891-4.219,43.088-11.166,62.611-22.262c9.342-5.311,18.937-10.546,25.506-19.497
			c4.927-6.712,7.584-18.612,2.286-27.682c-7.072-12.105-17.145-20.693-28.624-27.316c-10.863-6.267-22.835-10.855-34.718-15.056
			c-17.794-6.292-36.218-10.133-55.113-11.646C244.746,172.301,227.421,170.501,211.255,168.992z M178.688,96.78
			c-0.257-0.511-0.514-1.021-0.771-1.532c-0.768,0.063-1.545,0.067-2.302,0.197c-22.467,3.845-43.422,12.414-64.165,21.323
			c-12.478,5.359-24.513,11.872-36.341,18.583c-9.727,5.52-19.196,11.641-28.138,18.351c-6.962,5.224-13.191,11.521-19.256,17.813
			c-3.649,3.786-6.595,8.327-9.445,12.791c-6.821,10.685-5.382,22.634-4.639,34.379c0.237,3.748,1.265,7.447,2.001,11.558
			c1.066-0.74,1.663-0.924,1.799-1.283c4.996-13.128,14.806-22.112,26.027-29.693c13.776-9.307,29.314-14.997,44.694-20.972
			c19.18-7.449,39.284-11.145,59.471-14.256c10.988-1.693,22.156-2.281,33.259-3.152c5.848-0.458,4.672-4.667,4.721-8.179
			c0.055-3.925-2.652-4.317-5.701-3.997c-5.457,0.574-10.918,1.118-16.366,1.771c-7.512,0.9-15.044,1.688-22.51,2.889
			c-10.953,1.762-21.822,4.058-32.789,5.713c-6.546,0.988-13.124-2.841-15.749-8.314c-2.656-5.536-1.313-11.617,3.442-16.846
			c5.8-6.377,13.28-9.947,20.938-13.482c18.29-8.443,36.417-17.206,56.561-20.573C175.303,99.553,176.941,97.842,178.688,96.78z
			 M233.817,78.516c-8.991-0.446-17.695-0.771-26.383-1.338c-8.613-0.563-10.255,1.067-9.159,9.777
			c1.009,8.013,2.016,16.027,3.111,24.029c1.2,8.773,2.529,17.531,3.744,26.303c0.61,4.404,3.302,6.584,7.491,6.763
			c21.686,0.922,43.375,1.792,65.067,2.549c6.309,0.22,7.604-1.348,6.175-7.559c-3.869-16.814-7.895-33.593-11.976-50.357
			c-0.415-1.703-1.631-3.211-2.479-4.815c-3.938,3.565-7.359,6.664-10.612,9.609c1.643,2.989,4.059,6.264,5.268,9.936
			c1.027,3.116,2.485,4.127,5.509,4.059c1.719-0.04,3.451,0.521,5.178,0.812c0.07,0.565,0.142,1.13,0.212,1.694
			c-2.731,1.064-5.481,2.081-8.187,3.211c-1.395,0.582-2.811,1.217-4.035,2.084c-3.478,2.464-6.564,5.738-10.369,7.409
			c-3.542,1.555-5.086,3.094-4.715,7.028c0.404,4.281-0.035,8.564-5.052,11.722c-0.421-5.555-0.842-11.109-1.29-17.015
			c-9.083-2.579-19.091-4.771-21.175-17.064c-5.059,2.786-9.539,3.073-14.605,0.465c3.914-4.237,8.176-5.511,13.574-4.126
			c1.935-7.501,6.112-12.865,13.716-14.949c7.334-2.011,14.309-0.227,19.374,1.635c4.388-3.406,7.727-5.996,11.937-9.264
			c-7.376-0.67-13.641-1.208-19.898-1.823c-2.654-0.262-3.762,0.893-4.205,3.472c-0.156,0.915-1.782,2.329-2.544,2.215
			c-1.158-0.173-2.415-1.3-3.123-2.36C233.814,81.791,234.033,80.448,233.817,78.516z M284.472,109.167
			c4.394,0.667,8.063,0.523,11.123,1.817c9.483,4.011,19.047,8.015,28.001,13.05c11.96,6.724,23.511,14.211,34.981,21.759
			c7.605,5.002,10.119,12.18,7.31,21.136c-1.461,4.656-3.273,6.232-8.039,5.21c-10.232-2.195-20.385-4.781-30.645-6.835
			c-11.235-2.25-22.558-4.056-33.834-6.106c-4.492-0.817-4.018,3.327-5.313,5.535c-0.138,0.234,2.42,2.24,3.895,3.15
			c0.759,0.469,1.924,0.217,2.847,0.486c14.873,4.349,30.023,7.946,44.526,13.301c17.617,6.504,31.455,18.896,44.391,32.226
			c1.022,1.056,3.216,2.552,3.753,2.19c1.307-0.881,2.734-2.726,2.748-4.194c0.08-8.883,0.663-17.896-0.578-26.628
			C387,166.7,376.694,152.062,362.109,141.1c-15.833-11.9-32.388-22.949-49.311-33.249c-9.331-5.679-20.063-9.059-30.162-13.476
			c-0.451,0.382-0.901,0.765-1.354,1.146C282.428,100.422,283.573,105.324,284.472,109.167z M183.719,139.428
			c0-0.66,0.152-1.944-0.026-3.179c-0.968-6.729-1.949-13.458-3.056-20.164c-2.081-12.613,0.783-10.583-11.88-7.87
			c-20.139,4.315-38.774,13.104-57.024,22.427c-4.378,2.236-8.867,6.065-11.075,10.32c-3.374,6.501-2.802,8.647,4.826,9.783
			c2.984,0.445,6.167,0.215,9.174-0.256C137.463,146.916,160.245,143.206,183.719,139.428z M286.162,114.91
			c-0.065,1.306-0.229,1.954-0.108,2.542c2.199,10.692,4.338,21.399,6.795,32.033c0.264,1.138,2.319,2.368,3.728,2.657
			c11.656,2.399,23.386,4.447,35.031,6.892c6.297,1.321,12.407,3.606,18.733,4.685c3.472,0.591,8.477,2.954,10.525-1.394
			c2.146-4.558-2.021-7.825-5.391-10.279c-6.096-4.438-12.342-8.705-18.777-12.632C320.848,129.74,304.297,121.462,286.162,114.91z
			 M244.024,119.063c2.053-0.34,4.523-0.462,6.802-1.186c4.471-1.42,7.458-4.436,8.195-9.234c0.612-3.984-0.508-7.624-3.883-9.803
			c-6.019-3.882-12.836-5.47-19.857-3.976c-2.779,0.591-5.98,2.477-7.509,4.763c-1.557,2.327-2.771,6.832-1.553,8.707
			C230.163,114.403,235.955,118.584,244.024,119.063z"/>
		<path fill-rule="evenodd" clip-rule="evenodd" fill="#3D2B2B" d="M249.735,7.651c-2.714,10.983-5.318,21.567-7.952,32.145
			c-0.504,2.025-0.871,4.148-1.784,5.987c-0.642,1.293-2.101,2.181-3.196,3.25c-0.639-1.22-2.001-2.57-1.809-3.64
			c2.313-12.846,4.747-25.673,7.486-38.433c0.308-1.433,2.686-2.42,4.104-3.615C247.546,4.657,248.506,5.97,249.735,7.651z"/>
		<path fill-rule="evenodd" clip-rule="evenodd" fill="#3D2B2B" d="M205.637,47.867c-1.041,0.299-2.351,1.136-3.196,0.803
			c-1.037-0.41-2.022-1.672-2.449-2.787c-4.589-11.973-9.133-23.964-13.452-36.036c-0.395-1.103,0.497-3.208,1.475-4.077
			c0.708-0.627,3.166-0.503,3.768,0.203c1.703,1.994,3.403,4.3,4.124,6.77c3.191,10.936,6.038,21.971,9.015,32.969
			C205.048,46.179,205.225,46.632,205.637,47.867z"/>
		<path fill-rule="evenodd" clip-rule="evenodd" fill="#3D2B2B" d="M146.298,31.947c2.029,0.622,3.649,0.704,4.721,1.512
			c9.089,6.859,18.105,13.816,27.05,20.862c0.796,0.626,0.931,2.093,1.373,3.17c-1.305,0.148-2.979,0.898-3.86,0.356
			c-10.413-6.404-20.746-12.941-30.971-19.641c-1.003-0.658-1.824-2.819-1.502-3.925C143.42,33.212,145.319,32.606,146.298,31.947z"
			/>
		<path fill-rule="evenodd" clip-rule="evenodd" fill="#3D2B2B" d="M275.63,59.878c-0.512-1.65-1.606-3.407-1.159-3.998
			c7.379-9.768,14.869-19.457,22.614-28.934c0.76-0.93,3.354-0.36,5.096-0.487c-0.02,1.779,0.713,4.2-0.174,5.235
			c-7.555,8.818-15.393,17.394-23.188,26.004C278.201,58.381,277.268,58.777,275.63,59.878z"/>
		<path fill-rule="evenodd" clip-rule="evenodd" fill="#3D2B2B" d="M341.301,53.86c-8.55,7.369-34.606,19.046-40.049,17.377
			c12.143-6.312,23.34-12.209,34.646-17.891C336.992,52.796,338.757,53.576,341.301,53.86z"/>
		<path fill-rule="evenodd" clip-rule="evenodd" fill="#3D2B2B" d="M169.576,76.741c-9.729,3.41-36.739,0.082-40.259-4.74
			C132.44,70.473,165.399,74.136,169.576,76.741z"/>
		<path fill-rule="evenodd" clip-rule="evenodd" fill="#3D2B2B" d="M311.951,88.467c4.709-0.79,9.393-1.813,14.131-2.31
			c5.22-0.546,10.488-0.733,15.738-0.773c0.98-0.007,1.971,1.421,2.957,2.188c-0.81,0.84-1.558,2.338-2.438,2.42
			c-8.648,0.804-17.314,1.446-25.987,1.937c-1.413,0.08-2.882-0.804-4.324-1.242C312.003,89.947,311.978,89.207,311.951,88.467z"/>
		<path fill-rule="evenodd" clip-rule="evenodd" fill="#EEEC7B" d="M211.255,168.992c16.166,1.509,33.491,3.309,50.849,4.698
			c18.896,1.513,37.319,5.354,55.113,11.646c11.883,4.2,23.854,8.789,34.718,15.056c11.479,6.623,21.552,15.211,28.624,27.316
			c5.298,9.069,2.641,20.97-2.286,27.682c-6.569,8.951-16.164,14.187-25.506,19.497c-19.523,11.096-40.721,18.043-62.611,22.262
			c-15.456,2.978-31.269,4.351-46.986,5.663c-23.023,1.924-46.088,3.614-69.169,4.498c-13.328,0.511-26.792-0.075-40.07-1.405
			c-15.317-1.535-30.662-3.68-45.694-6.944c-16.742-3.636-32.214-11.079-46.469-20.555c-5.356-3.561-10.17-8.39-14.063-13.525
			c-2.253-2.973-2.874-7.691-2.98-11.658c-0.139-5.117,0.719-10.313,1.594-15.398c1.979-11.494,9.736-19.159,18.789-25.112
			c21.497-14.138,44.318-25.943,69.486-31.885c15.764-3.721,31.938-5.948,48.042-7.9
			C178.325,171.023,194.161,170.323,211.255,168.992z M218.234,180.721c-19.223,1.281-38.486,2.134-57.657,3.95
			c-23.411,2.219-46.252,7.565-68.382,15.503c-16.987,6.093-33.361,13.432-47.197,25.604c-9.453,8.316-11.755,22.657-4.374,32.789
			c1.421,1.951,2.962,3.902,4.787,5.454c4.544,3.866,9.043,7.868,14.005,11.14c6.389,4.212,13.099,7.99,19.924,11.453
			c1.791,0.908,5.321,0.816,6.594-0.374c1.258-1.175,0.922-4.333,0.847-6.606c-0.271-8.198-1.517-16.449-0.91-24.569
			c0.732-9.812,1.618-10.231,10.349-5.895c12.452,6.186,25.617,9.594,39.174,11.868c15.366,2.577,30.534,6.889,46.377,5.452
			c0.964-0.088,1.946,0.034,2.918,0.013c11.438-0.27,22.895-0.229,34.306-0.944c6.502-0.408,12.954-1.916,19.38-3.175
			c12.294-2.408,24.757-4.277,36.771-7.703c12-3.422,23.579-8.359,35.244-12.888c3.053-1.186,4.628-0.438,5.527,2.361
			c1.904,5.922,4.04,11.8,5.427,17.847c0.98,4.268,0.989,8.775,1.232,13.188c0.143,2.576,1.081,4.197,3.8,3.688
			c2.19-0.41,4.395-1.103,6.4-2.067c11.154-5.362,22.636-10.277,30.813-20.175c2.956-3.579,6.682-6.883,8.455-11.001
			c3.437-7.977,0.883-15.621-5.221-21.211c-5.998-5.492-12.575-10.691-19.695-14.547c-16.334-8.849-33.988-14.417-51.931-19.225
			C269.961,183.886,244.267,181.672,218.234,180.721z"/>
		<path fill-rule="evenodd" clip-rule="evenodd" fill="#EEEC7B" d="M178.688,96.78c-1.747,1.062-3.385,2.773-5.256,3.086
			c-20.144,3.367-38.271,12.13-56.561,20.573c-7.659,3.535-15.138,7.104-20.938,13.482c-4.755,5.229-6.099,11.31-3.442,16.846
			c2.625,5.473,9.203,9.302,15.749,8.314c10.967-1.655,21.836-3.951,32.789-5.713c7.465-1.201,14.998-1.988,22.51-2.889
			c5.447-0.652,10.909-1.196,16.366-1.771c3.049-0.32,5.756,0.071,5.701,3.997c-0.049,3.512,1.127,7.721-4.721,8.179
			c-11.104,0.871-22.271,1.459-33.259,3.152c-20.187,3.111-40.291,6.807-59.471,14.256c-15.38,5.975-30.917,11.665-44.694,20.972
			c-11.221,7.581-21.031,16.565-26.027,29.693c-0.136,0.359-0.733,0.543-1.799,1.283c-0.736-4.11-1.764-7.81-2.001-11.558
			c-0.744-11.745-2.182-23.694,4.639-34.379c2.85-4.464,5.796-9.005,9.445-12.791c6.065-6.292,12.293-12.588,19.256-17.813
			c8.942-6.71,18.411-12.831,28.138-18.351c11.828-6.711,23.863-13.224,36.341-18.583c20.743-8.91,41.697-17.478,64.165-21.323
			c0.756-0.129,1.534-0.134,2.302-0.197C178.174,95.759,178.431,96.27,178.688,96.78z"/>
		<path fill-rule="evenodd" clip-rule="evenodd" fill="#E6E7E8" d="M233.817,78.516c0.216,1.932-0.003,3.275,0.549,4.103
			c0.708,1.06,1.965,2.187,3.123,2.36c0.762,0.113,2.388-1.301,2.544-2.215c0.443-2.579,1.551-3.733,4.205-3.472
			c6.258,0.615,12.522,1.152,19.898,1.823c-4.21,3.268-7.549,5.858-11.937,9.264c-5.065-1.862-12.04-3.646-19.374-1.635
			c-7.604,2.084-11.781,7.448-13.716,14.949c-5.398-1.385-9.66-0.111-13.574,4.126c5.066,2.608,9.547,2.321,14.605-0.465
			c2.084,12.293,12.092,14.485,21.175,17.064c0.448,5.906,0.869,11.46,1.29,17.015c5.017-3.158,5.456-7.441,5.052-11.722
			c-0.371-3.934,1.173-5.473,4.715-7.028c3.805-1.671,6.892-4.945,10.369-7.409c1.225-0.867,2.641-1.502,4.035-2.084
			c2.705-1.13,5.455-2.147,8.187-3.211c-0.07-0.564-0.142-1.129-0.212-1.694c-1.727-0.291-3.459-0.852-5.178-0.812
			c-3.023,0.068-4.481-0.943-5.509-4.059c-1.209-3.671-3.625-6.946-5.268-9.936c3.253-2.946,6.674-6.044,10.612-9.609
			c0.848,1.604,2.063,3.112,2.479,4.815c4.081,16.764,8.106,33.543,11.976,50.357c1.429,6.21,0.134,7.778-6.175,7.559
			c-21.692-0.758-43.382-1.627-65.067-2.549c-4.189-0.179-6.881-2.359-7.491-6.763c-1.215-8.771-2.544-17.529-3.744-26.303
			c-1.095-8.002-2.103-16.017-3.111-24.029c-1.096-8.71,0.546-10.34,9.159-9.777C216.122,77.746,224.826,78.07,233.817,78.516z
			 M210.918,138.132c0.654,0.118,1.309,0.235,1.963,0.354c5.243-5.295,12.804-8.138,16.975-16.127
			c-11.071-2.598-13.175,6.992-18.363,11.563C210.689,134.631,211.08,136.695,210.918,138.132z M261.616,120.701
			c-0.432,0.262-1.761,0.634-1.868,1.228c-0.169,0.939,0.152,2.433,0.836,2.985c4.867,3.925,9.849,7.714,14.892,11.414
			c0.552,0.404,1.981,0.278,2.527-0.176c0.483-0.402,0.716-2.043,0.353-2.385c-4.561-4.278-9.224-8.45-13.943-12.554
			C263.896,120.765,262.867,120.909,261.616,120.701z M219.869,92.229c0.795-0.322,1.59-0.645,2.384-0.968
			c-0.401-2.011-0.119-5.021-1.331-5.851c-3.996-2.739-8.534-4.691-12.864-6.946c-0.438,0.572-0.874,1.145-1.312,1.717
			C211.122,84.198,215.496,88.214,219.869,92.229z"/>
		<path fill-rule="evenodd" clip-rule="evenodd" fill="#EEEC7B" d="M284.472,109.167c-0.898-3.844-2.044-8.746-3.188-13.646
			c0.452-0.381,0.902-0.764,1.354-1.146c10.1,4.417,20.831,7.796,30.162,13.476c16.923,10.3,33.478,21.349,49.311,33.249
			c14.585,10.962,24.891,25.6,27.528,44.164c1.241,8.732,0.658,17.745,0.578,26.628c-0.014,1.469-1.441,3.313-2.748,4.194
			c-0.537,0.361-2.73-1.135-3.753-2.19c-12.936-13.33-26.773-25.722-44.391-32.226c-14.503-5.354-29.653-8.952-44.526-13.301
			c-0.923-0.27-2.088-0.018-2.847-0.486c-1.475-0.91-4.032-2.916-3.895-3.15c1.295-2.208,0.82-6.352,5.313-5.535
			c11.276,2.051,22.599,3.856,33.834,6.106c10.26,2.054,20.412,4.64,30.645,6.835c4.766,1.022,6.578-0.554,8.039-5.21
			c2.81-8.956,0.296-16.133-7.31-21.136c-11.471-7.547-23.021-15.035-34.981-21.759c-8.954-5.035-18.518-9.039-28.001-13.05
			C292.534,109.69,288.865,109.834,284.472,109.167z"/>
		<path fill-rule="evenodd" clip-rule="evenodd" fill="#E6E7E8" d="M244.024,119.063c-8.069-0.479-13.861-4.66-17.805-10.729
			c-1.219-1.875-0.004-6.379,1.553-8.707c1.528-2.286,4.729-4.171,7.509-4.763c7.021-1.495,13.839,0.093,19.857,3.976
			c3.375,2.179,4.495,5.818,3.883,9.803c-0.737,4.799-3.725,7.814-8.195,9.234C248.548,118.601,246.077,118.723,244.024,119.063z"/>
		<path fill-rule="evenodd" clip-rule="evenodd" fill="#3D2B2B" d="M218.234,180.721c26.032,0.951,51.727,3.165,76.964,9.929
			c17.942,4.808,35.597,10.376,51.931,19.225c7.12,3.855,13.697,9.055,19.695,14.547c6.104,5.59,8.657,13.234,5.221,21.211
			c-1.773,4.118-5.499,7.422-8.455,11.001c-8.178,9.897-19.659,14.813-30.813,20.175c-2.006,0.965-4.21,1.657-6.4,2.067
			c-2.719,0.51-3.657-1.111-3.8-3.688c-0.243-4.412-0.252-8.92-1.232-13.188c-1.387-6.047-3.522-11.925-5.427-17.847
			c-0.899-2.8-2.475-3.547-5.527-2.361c-11.665,4.528-23.244,9.466-35.244,12.888c-12.014,3.426-24.477,5.295-36.771,7.703
			c-6.426,1.259-12.878,2.767-19.38,3.175c-11.411,0.716-22.868,0.675-34.306,0.944c-0.972,0.021-1.954-0.101-2.918-0.013
			c-15.843,1.437-31.011-2.875-46.377-5.452c-13.557-2.274-26.722-5.683-39.174-11.868c-8.73-4.337-9.616-3.917-10.349,5.895
			c-0.606,8.12,0.639,16.371,0.91,24.569c0.075,2.273,0.411,5.432-0.847,6.606c-1.273,1.19-4.804,1.282-6.594,0.374
			c-6.826-3.463-13.536-7.241-19.924-11.453c-4.962-3.271-9.461-7.273-14.005-11.14c-1.825-1.552-3.365-3.503-4.787-5.454
			c-7.382-10.132-5.08-24.473,4.374-32.789c13.836-12.172,30.209-19.511,47.197-25.604c22.129-7.938,44.971-13.284,68.382-15.503
			C179.749,182.854,199.011,182.002,218.234,180.721z M72.283,217.942c2.374,9.574,8.247,15.075,15.343,18.121
			c9.589,4.116,19.789,7.013,29.948,9.544c12.165,3.03,24.518,5.38,36.871,7.563c19.417,3.433,39.079,4.598,58.648,2.417
			c30.445-3.395,60.249-10.366,88.973-20.92c10.747-3.948,20.283-11.229,30.288-17.132c2.61-1.541,2.85-3.432-0.33-4.891
			c-2.771-1.271-5.461-2.726-8.258-3.932c-15.836-6.834-32.397-11.078-49.449-13.346c-12.012-1.598-24.048-3.323-36.127-4.009
			c-13.743-0.779-27.56-0.876-41.324-0.509c-13.894,0.371-27.95,0.563-41.597,2.85c-17.304,2.9-34.421,7.294-51.324,12.084
			C93.188,208.831,82.966,213.768,72.283,217.942z"/>
		<path fill-rule="evenodd" clip-rule="evenodd" fill="#3D2B2B" d="M210.918,138.132c0.162-1.437-0.229-3.5,0.574-4.209
			c5.188-4.572,7.292-14.161,18.363-11.563c-4.171,7.989-11.731,10.832-16.975,16.127
			C212.227,138.367,211.572,138.25,210.918,138.132z"/>
		<path fill-rule="evenodd" clip-rule="evenodd" fill="#3D2B2B" d="M261.616,120.701c1.251,0.208,2.28,0.064,2.796,0.512
			c4.72,4.104,9.383,8.276,13.943,12.554c0.363,0.341,0.131,1.982-0.353,2.385c-0.546,0.454-1.976,0.58-2.527,0.176
			c-5.043-3.7-10.024-7.489-14.892-11.414c-0.684-0.552-1.005-2.045-0.836-2.985C259.855,121.335,261.185,120.963,261.616,120.701z"
			/>
		<path fill-rule="evenodd" clip-rule="evenodd" fill="#3D2B2B" d="M219.869,92.229c-4.373-4.016-8.747-8.031-13.123-12.047
			c0.438-0.573,0.874-1.145,1.312-1.717c4.33,2.254,8.868,4.207,12.864,6.946c1.212,0.83,0.93,3.84,1.331,5.851
			C221.459,91.585,220.664,91.907,219.869,92.229z"/>
	</g>
</g>
</svg>
