<?xml version="1.0" encoding="utf-8"?>
<!-- Generator: Adobe Illustrator 16.0.0, SVG Export Plug-In . SVG Version: 6.00 Build 0)  -->
<!DOCTYPE svg PUBLIC "-//W3C//DTD SVG 1.1//EN" "http://www.w3.org/Graphics/SVG/1.1/DTD/svg11.dtd">
<svg version="1.1" id="Layer_1" xmlns="http://www.w3.org/2000/svg" xmlns:xlink="http://www.w3.org/1999/xlink" x="0px" y="0px"
	 width="720px" height="100.125px" viewBox="0 50.375 720 100.125" enable-background="new 0 50.375 720 100.125"
	 xml:space="preserve">
<polygon fill="#473C3C" points="719.896,57.656 678.996,148.181 663.857,144.699 680.912,107.143 681.556,105.728 680.573,104.517 
	645.54,61 656.789,51.734 685.896,87.901 688.434,91.046 690.153,87.383 706.981,51.52 "/>
<polygon fill="#473C3C" points="654.552,130.52 647.709,146.263 597.065,146.263 597.065,51.848 611.545,50.864 611.545,128.187 
	611.545,130.721 614.082,130.711 "/>
<path fill="#473C3C" d="M581.448,81.111c2.396,5.92,3.609,12.396,3.609,19.251c0,6.906-1.213,13.408-3.609,19.329
	c-2.387,5.908-5.959,11.259-10.593,15.907c-4.657,4.569-10.05,8.09-16.008,10.489c-5.969,2.398-12.448,3.61-19.264,3.61
	c-6.756,0-13.193-1.212-19.113-3.61c-5.919-2.385-11.272-5.919-15.916-10.478c-4.711-4.696-8.323-10.086-10.731-15.994
	c-2.41-5.922-3.637-12.396-3.637-19.253c0-6.804,1.227-13.254,3.637-19.175c2.408-5.909,6.021-11.284,10.717-15.995
	c4.658-4.606,10.012-8.142,15.918-10.516c5.932-2.372,12.37-3.573,19.124-3.573c6.814,0,13.294,1.213,19.264,3.61
	c5.958,2.399,11.351,5.921,15.985,10.479C575.489,69.836,579.063,75.201,581.448,81.111z M560.302,126.508
	c6.489-6.943,9.784-15.731,9.784-26.146c0-10.313-3.32-19.075-9.859-26.042c-6.58-7.008-14.871-10.553-24.643-10.553
	c-9.771,0-18.052,3.534-24.604,10.528c-6.513,6.943-9.822,15.716-9.822,26.067c0,10.414,3.297,19.202,9.783,26.146
	c6.541,6.993,14.821,10.541,24.644,10.541C545.455,137.048,553.774,133.501,560.302,126.508z"/>
<path fill="#473C3C" d="M478.119,84.126c0,9.52-2.713,16.855-8.318,22.421c-5.515,5.503-13.103,8.293-22.52,8.293h-10.189h-2.524
	v2.523v30.313l-14.908,0.946V53.274h27.622c9.454,0,16.803,2.752,22.443,8.396C475.382,67.326,478.119,74.671,478.119,84.126z
	 M464.551,84.126c0-5.643-1.692-10.162-5.052-13.432c-3.329-3.243-7.938-4.898-13.707-4.898h-8.7h-2.524v2.525v31.482v2.526h2.524
	h8.7c5.859,0,10.491-1.616,13.771-4.784C462.87,94.34,464.551,89.834,464.551,84.126z"/>
<path fill="#473C3C" d="M403.35,81.111c2.395,5.92,3.608,12.396,3.608,19.251c0,6.906-1.214,13.408-3.608,19.329
	c-2.388,5.908-5.96,11.259-10.593,15.907c-4.656,4.569-10.051,8.09-16.007,10.489c-5.971,2.398-12.448,3.61-19.264,3.61
	c-6.757,0-13.194-1.212-19.114-3.61c-5.92-2.385-11.286-5.919-15.918-10.478c-4.709-4.696-8.319-10.086-10.729-15.994
	c-2.412-5.922-3.638-12.396-3.638-19.253c0-6.804,1.226-13.254,3.638-19.175c2.411-5.909,6.021-11.298,10.717-15.995
	c4.656-4.606,10.011-8.142,15.918-10.516c5.931-2.372,12.356-3.573,19.125-3.573c6.813,0,13.291,1.213,19.264,3.61
	c5.957,2.399,11.35,5.921,15.982,10.479C397.39,69.836,400.962,75.201,403.35,81.111z M382.205,126.508
	c6.486-6.943,9.783-15.731,9.783-26.146c0-10.313-3.321-19.075-9.86-26.042c-6.578-7.008-14.873-10.553-24.642-10.553
	c-9.771,0-18.054,3.534-24.605,10.528c-6.515,6.929-9.824,15.704-9.824,26.067c0,10.414,3.297,19.202,9.785,26.146
	c6.526,6.993,14.82,10.541,24.644,10.541C367.356,137.048,375.663,133.501,382.205,126.508z"/>
<polygon fill="#473C3C" points="298.418,52.265 298.418,146.859 242.445,91.21 238.19,86.98 238.139,92.977 237.686,144.407 
	222.827,146.15 222.827,52.492 278.814,107.888 283.132,112.166 283.106,106.081 282.954,54.89 "/>
<path fill="#473C3C" d="M205.28,80.619c2.297,5.681,3.471,11.905,3.471,18.482c0,6.627-1.174,12.875-3.471,18.556
	c-2.298,5.681-5.72,10.82-10.176,15.277c-4.468,4.381-9.646,7.777-15.364,10.071c-5.729,2.3-11.956,3.46-18.494,3.46
	c-6.487,0-12.66-1.16-18.354-3.46c-5.681-2.294-10.831-5.691-15.289-10.062c-4.504-4.519-7.976-9.682-10.286-15.364
	c-2.323-5.68-3.499-11.891-3.499-18.479c0-6.527,1.176-12.725,3.499-18.406c2.31-5.681,5.782-10.844,10.286-15.35
	c4.47-4.431,9.608-7.827,15.289-10.099c5.68-2.287,11.867-3.434,18.354-3.434c6.539,0,12.764,1.16,18.494,3.471
	c5.718,2.287,10.896,5.681,15.352,10.049C199.558,69.8,202.981,74.938,205.28,80.619z M194.536,99.101
	c0-9.948-3.207-18.392-9.506-25.109c-6.35-6.766-14.353-10.201-23.784-10.201c-9.429,0-17.42,3.421-23.745,10.163
	c-6.288,6.691-9.468,15.161-9.468,25.147c0,10.035,3.168,18.518,9.428,25.221c6.313,6.742,14.316,10.164,23.784,10.164
	c9.52,0,17.546-3.422,23.848-10.164C191.353,117.618,194.536,109.136,194.536,99.101z"/>
<polygon fill="#473C3C" points="96.356,52.983 107.204,144.483 92.306,146.49 86.625,102.143 85.729,95.099 81.981,101.133 
	53.639,146.794 24.716,101.422 20.917,95.476 20.071,102.482 14.707,146.895 0.115,144.535 10.402,52.946 51.658,118.49 
	53.816,121.91 55.936,118.465 "/>
</svg>
