<?xml version="1.0" encoding="utf-8"?>
<!-- Generator: Adobe Illustrator 16.0.0, SVG Export Plug-In . SVG Version: 6.00 Build 0)  -->
<!DOCTYPE svg PUBLIC "-//W3C//DTD SVG 1.1//EN" "http://www.w3.org/Graphics/SVG/1.1/DTD/svg11.dtd">
<svg version="1.1" id="Layer_1" xmlns="http://www.w3.org/2000/svg" xmlns:xlink="http://www.w3.org/1999/xlink" x="0px" y="0px"
	 width="475.168px" height="65.246px" viewBox="0 0 475.168 65.246" enable-background="new 0 0 475.168 65.246"
	 xml:space="preserve">
<polygon fill="#3C2A2A" points="467.239,5.428 441.104,63.271 431.432,61.046 442.329,37.049 442.741,36.144 442.112,35.371 
	419.729,7.565 426.916,1.645 445.514,24.754 447.136,26.764 448.235,24.424 458.987,1.508 "/>
<polygon fill="#3C2A2A" points="425.486,51.986 421.114,62.046 388.753,62.046 388.753,1.717 398.005,1.089 398.005,50.495 
	398.005,52.115 399.627,52.108 "/>
<path fill="#3C2A2A" d="M378.775,20.416c1.533,3.783,2.307,7.92,2.307,12.301c0,4.412-0.773,8.566-2.307,12.349
	c-1.524,3.775-3.807,7.196-6.768,10.165c-2.976,2.92-6.421,5.169-10.228,6.702c-3.815,1.533-7.954,2.308-12.31,2.308
	c-4.316,0-8.43-0.774-12.213-2.308c-3.782-1.523-7.202-3.781-10.171-6.693c-3.008-3.001-5.317-6.444-6.856-10.221
	c-1.54-3.783-2.323-7.921-2.323-12.301c0-4.348,0.783-8.47,2.323-12.253c1.539-3.775,3.849-7.21,6.847-10.22
	c2.979-2.944,6.398-5.202,10.173-6.719c3.79-1.516,7.904-2.283,12.22-2.283c4.354,0,8.493,0.775,12.31,2.307
	c3.807,1.533,7.251,3.784,10.212,6.696C374.968,13.211,377.251,16.639,378.775,20.416z M365.263,49.422
	c4.147-4.437,6.251-10.052,6.251-16.705c0-6.59-2.12-12.188-6.298-16.641c-4.203-4.478-9.503-6.743-15.746-6.743
	s-11.535,2.258-15.721,6.728c-4.162,4.437-6.276,10.042-6.276,16.656c0,6.653,2.105,12.269,6.251,16.705
	c4.179,4.469,9.471,6.735,15.746,6.735C355.778,56.156,361.093,53.891,365.263,49.422z"/>
<path fill="#3C2A2A" d="M312.753,22.342c0,6.083-1.734,10.77-5.315,14.326c-3.524,3.518-8.372,5.3-14.391,5.3h-6.51h-1.613v1.612
	v19.368l-9.526,0.604V2.629h17.649c6.041,0,10.737,1.759,14.341,5.364C311.002,11.607,312.753,16.301,312.753,22.342z
	 M304.082,22.342c0-3.605-1.081-6.493-3.227-8.583c-2.128-2.072-5.072-3.129-8.759-3.129h-5.559h-1.613v1.613V32.36v1.612h1.613
	h5.559c3.744,0,6.704-1.031,8.8-3.056C303.009,28.868,304.082,25.989,304.082,22.342z"/>
<path fill="#3C2A2A" d="M264.978,20.416c1.531,3.783,2.307,7.92,2.307,12.301c0,4.412-0.775,8.566-2.307,12.349
	c-1.525,3.775-3.808,7.196-6.769,10.165c-2.976,2.92-6.421,5.169-10.228,6.702c-3.815,1.533-7.954,2.308-12.309,2.308
	c-4.317,0-8.431-0.774-12.213-2.308c-3.783-1.523-7.211-3.781-10.171-6.693c-3.008-3.001-5.315-6.444-6.856-10.221
	c-1.541-3.783-2.324-7.921-2.324-12.301c0-4.348,0.783-8.47,2.324-12.253c1.541-3.775,3.848-7.219,6.848-10.22
	c2.976-2.944,6.396-5.202,10.171-6.719c3.79-1.516,7.896-2.283,12.22-2.283c4.354,0,8.493,0.775,12.309,2.307
	c3.807,1.533,7.251,3.784,10.212,6.696C261.169,13.211,263.452,16.639,264.978,20.416z M251.467,49.422
	c4.144-4.437,6.251-10.052,6.251-16.705c0-6.59-2.122-12.188-6.3-16.641c-4.203-4.478-9.503-6.743-15.746-6.743
	c-6.244,0-11.536,2.258-15.721,6.728c-4.162,4.427-6.276,10.034-6.276,16.656c0,6.653,2.106,12.269,6.251,16.705
	c4.17,4.469,9.47,6.735,15.746,6.735C241.979,56.156,247.286,53.891,251.467,49.422z"/>
<polygon fill="#3C2A2A" points="197.93,1.983 197.93,62.426 162.164,26.869 159.446,24.165 159.413,27.997 159.124,60.858 
	149.63,61.973 149.63,2.129 185.404,37.524 188.163,40.259 188.146,36.37 188.048,3.661 "/>
<path fill="#3C2A2A" d="M138.418,20.101c1.467,3.63,2.218,7.606,2.218,11.809c0,4.234-0.75,8.227-2.218,11.858
	c-1.468,3.629-3.655,6.912-6.503,9.76c-2.855,2.8-6.163,4.969-9.816,6.437c-3.662,1.469-7.639,2.21-11.817,2.21
	c-4.145,0-8.089-0.741-11.728-2.21c-3.63-1.468-6.92-3.638-9.769-6.43c-2.878-2.888-5.097-6.187-6.573-9.816
	c-1.484-3.629-2.235-7.599-2.235-11.809c0-4.17,0.751-8.131,2.235-11.76c1.476-3.63,3.695-6.929,6.573-9.809
	c2.856-2.832,6.139-5.001,9.769-6.453c3.63-1.46,7.583-2.194,11.728-2.194c4.179,0,8.156,0.742,11.817,2.218
	c3.653,1.461,6.961,3.63,9.809,6.421C134.762,13.188,136.949,16.471,138.418,20.101z M131.553,31.91
	c0-6.356-2.05-11.751-6.074-16.043c-4.057-4.324-9.17-6.518-15.197-6.518c-6.024,0-11.13,2.186-15.171,6.493
	c-4.018,4.275-6.05,9.688-6.05,16.068c0,6.413,2.024,11.833,6.024,16.116c4.033,4.307,9.147,6.494,15.197,6.494
	c6.083,0,11.212-2.188,15.238-6.494C129.519,43.743,131.553,38.322,131.553,31.91z"/>
<polygon fill="#3C2A2A" points="68.821,2.443 75.751,60.908 66.232,62.191 62.603,33.854 62.03,29.353 59.635,33.208 41.525,62.385 
	23.045,33.394 20.618,29.594 20.077,34.071 16.648,62.448 7.325,60.941 13.899,2.419 40.26,44.299 41.638,46.484 42.993,44.283 "/>
</svg>
