<?xml version="1.0" encoding="utf-8"?>
<!-- Generator: Adobe Illustrator 16.0.0, SVG Export Plug-In . SVG Version: 6.00 Build 0)  -->
<!DOCTYPE svg PUBLIC "-//W3C//DTD SVG 1.1//EN" "http://www.w3.org/Graphics/SVG/1.1/DTD/svg11.dtd">
<svg version="1.1" id="Layer_1" xmlns="http://www.w3.org/2000/svg" xmlns:xlink="http://www.w3.org/1999/xlink" x="0px" y="0px"
	 width="187.2px" height="201.6px" viewBox="0 0 187.2 201.6" enable-background="new 0 0 187.2 201.6" xml:space="preserve">
<g>
	<g>
		<path fill="#F4B4B5" d="M25.004,138.146c0,0,1.136,37.78,1.136,44.507s3.843,12.814,11.211,12.814s11.211-7.048,11.211-12.493
			s-1.922-39.72-1.922-39.72L25.004,138.146z"/>
		<path d="M37.351,198.83c-8.581,0-14.574-6.653-14.574-16.178c0-6.6-1.123-44.028-1.134-44.406
			c-0.031-1.045,0.425-2.046,1.235-2.707c0.81-0.661,1.881-0.905,2.899-0.667l21.636,5.108c1.45,0.343,2.501,1.598,2.585,3.085
			c0.078,1.404,1.927,34.432,1.927,39.908C51.926,190.6,46.354,198.83,37.351,198.83z M28.497,142.426
			c0.299,10.19,1.007,34.83,1.007,40.227c0,4.359,2.055,9.45,7.848,9.45c5.354,0,7.848-5.447,7.848-9.129
			c0-4.439-1.337-29.032-1.778-37.023L28.497,142.426z"/>
	</g>
	<g>
		<path fill="#F4B4B5" d="M139.359,138.146c0,0,1.135,37.78,1.135,44.507s3.843,12.814,11.211,12.814s11.211-7.048,11.211-12.493
			s-1.922-39.72-1.922-39.72L139.359,138.146z"/>
		<path d="M151.705,198.83c-8.581,0-14.574-6.653-14.574-16.178c0-6.6-1.122-44.028-1.133-44.406
			c-0.032-1.045,0.425-2.046,1.234-2.707c0.811-0.661,1.882-0.904,2.9-0.667l21.635,5.108c1.45,0.343,2.501,1.598,2.585,3.085
			c0.078,1.404,1.927,34.432,1.927,39.908C166.279,190.6,160.707,198.83,151.705,198.83z M142.851,142.426
			c0.3,10.19,1.007,34.83,1.007,40.227c0,4.359,2.056,9.45,7.848,9.45c5.354,0,7.848-5.447,7.848-9.129
			c0-4.439-1.336-29.032-1.777-37.023L142.851,142.426z"/>
	</g>
</g>
<g>
	<circle fill="#F4B4B5" cx="93.961" cy="113.784" r="6.727"/>
	<path d="M93.96,122.914c-5.034,0-9.129-4.096-9.129-9.13s4.095-9.129,9.129-9.129c5.035,0,9.129,4.095,9.129,9.129
		S98.995,122.914,93.96,122.914z M93.96,109.46c-2.384,0-4.324,1.939-4.324,4.324s1.939,4.324,4.324,4.324s4.326-1.939,4.326-4.324
		S96.345,109.46,93.96,109.46z"/>
</g>
<g>
	<path fill="#EE333F" d="M93.96,162.312c11.996,0,15.718-11.995,19.387-11.995c3.667,0,58.35-6.466,61.466-6.813
		c3.119-0.346,6.641-0.808,6.641-4.444c0-3.638,0-21.767,0-23.672c0,0,0.576-3.753-4.1-5.196s-19.571-4.387-21.651-4.732
		c-2.077-0.347-4.906-0.693-4.906-7.448c0-6.755,10.501-50.053,10.982-56.299c0.48-6.246,0.961-12.333-14.254-20.34
		C132.31,13.363,114.551,6.957,93.96,6.957c-20.59,0-38.349,6.407-53.563,14.415c-15.216,8.007-14.735,14.094-14.254,20.34
		c0.48,6.246,10.982,49.544,10.982,56.299c0,6.755-2.829,7.102-4.907,7.448c-2.079,0.346-16.974,3.289-21.65,4.732
		c-4.676,1.443-4.1,5.196-4.1,5.196c0,1.905,0,20.033,0,23.672c0,3.637,3.521,4.099,6.639,4.444
		c3.119,0.347,57.8,6.813,61.468,6.813C78.242,150.316,81.964,162.312,93.96,162.312z"/>
	<path d="M93.96,167.597c-10.144,0-15.736-6.478-19.077-10.347c-0.481-0.557-1.092-1.266-1.526-1.708
		c-4.835-0.345-21.532-2.203-55.408-6.154c-2.935-0.343-4.905-0.572-5.426-0.63c-2.805-0.312-11.341-1.261-11.341-9.698v-23.408
		c-0.231-3.014,1.103-8.434,7.826-10.51c5.139-1.586,20.454-4.583,22.34-4.897l0.117-0.019c0.06-0.01,0.125-0.021,0.19-0.032
		c0.087-0.395,0.184-1.082,0.184-2.183c0-3.247-3.746-20.552-6.226-32.004c-2.792-12.901-4.516-20.957-4.742-23.89
		c-0.666-8.653,0.16-16.527,17.063-25.424C57.143,6.585,75.468,1.671,93.96,1.671c18.493,0,36.818,4.914,56.025,15.022
		c16.902,8.896,17.729,16.771,17.063,25.409c-0.227,2.947-1.95,11.003-4.742,23.904c-2.479,11.451-6.226,28.757-6.226,32.004
		c0,1.102,0.098,1.789,0.186,2.184c0.063,0.011,0.129,0.021,0.188,0.031l0.118,0.019c1.885,0.315,17.197,3.31,22.34,4.898
		c6.724,2.075,8.058,7.495,7.826,10.508v23.409c0,8.438-8.537,9.387-11.342,9.699c-0.521,0.057-2.486,0.287-5.415,0.628
		c-33.885,3.952-50.583,5.811-55.418,6.155c-0.435,0.442-1.045,1.151-1.526,1.708C109.696,161.119,104.104,167.597,93.96,167.597z"
		/>
</g>
<g>
	<path fill="#EE333F" d="M93.96,162.312c11.996,0,15.718-11.995,19.387-11.995c3.667,0,58.35-6.466,61.466-6.813
		c3.119-0.346,6.641-0.808,6.641-4.444c0-3.638,0-21.767,0-23.672c0,0,0.576-3.753-4.1-5.196s-19.571-4.387-21.651-4.732
		c-2.077-0.347-4.906-0.693-4.906-7.448c0-6.755,10.501-50.053,10.982-56.299c0.48-6.246,0.961-12.333-14.254-20.34
		C132.31,13.363,114.551,6.957,93.96,6.957c-20.59,0-38.349,6.407-53.563,14.415c-15.216,8.007-14.735,14.094-14.254,20.34
		c0.48,6.246,10.982,49.544,10.982,56.299c0,6.755-2.829,7.102-4.907,7.448c-2.079,0.346-16.974,3.289-21.65,4.732
		c-4.676,1.443-4.1,5.196-4.1,5.196c0,1.905,0,20.033,0,23.672c0,3.637,3.521,4.099,6.639,4.444
		c3.119,0.347,57.8,6.813,61.468,6.813C78.242,150.316,81.964,162.312,93.96,162.312z"/>
</g>
<g>
	<rect x="60.647" y="34.024" fill="#F4B4B5" width="66.626" height="30.11"/>
	<path d="M127.273,67.498H60.647c-1.858,0-3.363-1.505-3.363-3.363v-30.11c0-1.858,1.505-3.363,3.363-3.363h66.626
		c1.857,0,3.363,1.505,3.363,3.363v30.11C130.637,65.992,129.131,67.498,127.273,67.498z M64.011,60.771h59.899V37.387H64.011
		V60.771z"/>
</g>
<g>
	<circle fill="#F4B4B5" cx="93.96" cy="113.784" r="29.469"/>
	<path d="M93.959,146.617c-18.103,0-32.832-14.729-32.832-32.833s14.729-32.833,32.832-32.833c18.104,0,32.833,14.729,32.833,32.833
		S112.063,146.617,93.959,146.617z M93.959,87.678c-14.394,0-26.104,11.711-26.104,26.106c0,14.395,11.71,26.106,26.104,26.106
		c14.395,0,26.107-11.712,26.107-26.106C120.066,99.389,108.354,87.678,93.959,87.678z"/>
</g>
<g>
	<path d="M93.96,122.914c-5.034,0-9.129-4.096-9.129-9.13s4.095-9.129,9.129-9.129c5.035,0,9.129,4.095,9.129,9.129
		S98.995,122.914,93.96,122.914z M93.96,109.46c-2.384,0-4.324,1.939-4.324,4.324s1.939,4.324,4.324,4.324s4.326-1.939,4.326-4.324
		S96.345,109.46,93.96,109.46z"/>
</g>
</svg>
