<?xml version="1.0" encoding="utf-8"?>
<!-- Generator: Adobe Illustrator 16.0.0, SVG Export Plug-In . SVG Version: 6.00 Build 0)  -->
<!DOCTYPE svg PUBLIC "-//W3C//DTD SVG 1.1//EN" "http://www.w3.org/Graphics/SVG/1.1/DTD/svg11.dtd">
<svg version="1.1" id="Layer_1" xmlns="http://www.w3.org/2000/svg" xmlns:xlink="http://www.w3.org/1999/xlink" x="0px" y="0px"
	 width="206px" height="187px" viewBox="0 0 206 187" enable-background="new 0 0 206 187" xml:space="preserve">
<g>
	<path fill-rule="evenodd" clip-rule="evenodd" fill="#FFFFFF" d="M8.585,98.445c-0.057,0-0.112,0-0.169,0
		c0,7.327,0.008,14.656-0.002,21.983c-0.014,10.054-0.041,20.107-0.065,30.16c-0.011,4.51-0.025,9.021-0.049,13.531
		c-0.007,1.313-0.077,2.629-0.072,3.943c0.005,1.104-0.5,1.758-1.561,2.014c-0.227,0.054-0.44,0.169-0.667,0.225
		c-1.19,0.287-2.077,1.034-2.935,1.858c-0.689,0.662-0.867,1.428-0.633,2.312c0.272,1.028,0.742,1.922,1.751,2.433
		c0.628,0.317,1.22,0.711,1.859,0.998c1.467,0.658,2.458,1.659,2.708,3.317c0.152,1.011,0.797,1.671,1.726,2.066
		c0.388,0.166,0.767,0.353,1.153,0.524c1.571,0.695,3.031,0.194,4.472-0.433c1.167-0.508,1.354-1.587,1.517-2.675
		c0.021-0.138,0.061-0.274,0.104-0.407c0.243-0.734,0.709-1.21,1.514-1.264c0.936-0.063,1.874-0.187,2.807-0.154
		c2.954,0.104,5.906,0.289,8.86,0.404c3.47,0.135,6.941,0.226,10.412,0.345c1.967,0.066,3.933,0.154,5.899,0.222
		c0.469,0.016,0.939-0.033,1.408-0.016c1.874,0.067,2.578,0.714,2.85,2.596c0.343,2.371,0.789,2.848,3.12,3.247
		c0.505,0.086,1.03,0.114,1.542,0.084c2.19-0.13,2.947-0.846,3.272-3.026c0.24-1.613,0.857-2.285,2.449-2.651
		c0.319-0.073,0.641-0.162,0.965-0.176c2.811-0.121,5.623-0.291,8.435-0.314c1.73-0.014,3.465,0.321,5.194,0.289
		c3.095-0.056,6.186-0.32,9.282-0.401c2.249-0.06,4.505-0.03,6.752,0.084c1.531,0.078,2.593,1.116,2.951,2.598
		c0.11,0.456,0.162,0.929,0.308,1.372c0.309,0.935,0.831,1.25,1.814,1.166c0.865-0.073,1.535-0.453,1.859-1.283
		c0.29-0.739,0.547-1.495,0.773-2.258c0.48-1.621,0.645-1.838,2.32-1.869c3.235-0.061,6.473-0.06,9.71-0.042
		c8.357,0.045,16.71,0.239,25.05,0.859c1.474,0.109,2.539,0.441,3.365,1.802c1.042,1.715,3.335,1.526,4.354-0.209
		c0.118-0.202,0.22-0.415,0.336-0.617c0.764-1.331,1.888-2.01,3.447-2.033c2.488-0.035,4.975-0.181,7.462-0.195
		c8.737-0.053,17.476-0.078,26.214-0.095c1.426-0.002,1.807,0.359,2.035,1.774c0.135,0.832,0.206,1.676,0.341,2.509
		c0.189,1.172,0.873,1.902,1.994,2.323c1.46,0.545,2.855,0.219,4.273-0.129c1.097-0.269,1.855-0.907,2.178-1.981
		c0.267-0.894,0.464-1.81,0.654-2.724c0.313-1.508,1.151-2.264,2.705-2.356c0.516-0.031,1.034-0.011,1.55-0.007
		c1.08,0.01,2.163,0.073,3.241,0.026c1.507-0.064,2.533-0.954,2.805-2.319c0.236-1.189-0.421-2.579-1.62-3.162
		c-0.664-0.323-1.407-0.521-2.137-0.664c-1.103-0.217-2.234-0.287-3.336-0.511c-1.521-0.308-2.487-1.529-2.49-3.094
		c-0.01-4.085,0.033-8.17-0.005-12.256c-0.03-3.329-0.153-6.658-0.221-9.987c-0.008-0.369,0.071-0.741,0.112-1.112
		c0.137-1.207,0.389-2.413,0.394-3.62c0.034-8.407,0.001-16.814,0.026-25.223c0.012-3.476,0.195-6.949,0.159-10.424
		c-0.041-3.896-0.328-7.79-0.358-11.685c-0.131-16.439,0.157-32.879-0.31-49.319c-0.209-7.369-0.024-14.75,0.021-22.125
		c0.019-2.864,0.131-5.728,0.222-8.59c0.058-1.826,0.319-3.662,0.199-5.474c-0.201-3.011-1.33-4.306-3.693-4.784
		c-1.283-0.259-2.585-0.605-3.877-0.601c-4.368,0.015-8.726-0.07-13.091-0.31c-4.544-0.25-9.106-0.207-13.662-0.231
		c-8.127-0.043-16.254-0.042-24.382-0.06c-0.611-0.001-1.222-0.021-1.831-0.02c-8.129,0.007-16.257-0.006-24.384,0.032
		c-4.649,0.022-9.298,0.105-13.946,0.2c-2.671,0.054-5.342,0.281-8.012,0.26c-2.387-0.018-4.771-0.36-7.16-0.401
		c-8.077-0.138-16.155-0.251-24.233-0.287c-6.857-0.03-13.715,0.019-20.572,0.111c-4.601,0.062-9.201,0.253-13.8,0.398
		c-1.736,0.055-3.471,0.135-5.206,0.223c-2.313,0.116-4.569,0.462-6.658,1.564C9.596,5.134,9.167,5.656,9.151,6.59
		c-0.028,1.594-0.205,3.185-0.257,4.779c-0.1,3.05-0.167,6.102-0.229,9.154C8.55,26.204,8.361,31.885,8.363,37.566
		c0.004,8.923,0.18,17.847,0.212,26.771C8.616,75.707,8.585,87.076,8.585,98.445z"/>
	<path fill-rule="evenodd" clip-rule="evenodd" fill="#3D2B2B" d="M8.585,98.445c0-11.369,0.03-22.739-0.01-34.108
		c-0.032-8.924-0.208-17.848-0.212-26.771C8.361,31.885,8.55,26.204,8.665,20.523c0.062-3.052,0.129-6.104,0.229-9.154
		C8.946,9.775,9.123,8.184,9.151,6.59c0.016-0.934,0.444-1.456,1.222-1.866c2.088-1.103,4.345-1.449,6.658-1.564
		c1.735-0.087,3.47-0.167,5.206-0.223c4.6-0.146,9.199-0.337,13.8-0.398c6.856-0.092,13.715-0.141,20.572-0.111
		c8.078,0.036,16.156,0.148,24.233,0.287c2.389,0.041,4.773,0.383,7.16,0.401c2.669,0.021,5.34-0.206,8.012-0.26
		c4.648-0.095,9.296-0.178,13.946-0.2c8.127-0.038,16.255-0.025,24.384-0.032c0.609,0,1.22,0.019,1.831,0.02
		c8.128,0.019,16.255,0.017,24.382,0.06c4.556,0.024,9.118-0.019,13.662,0.231c4.365,0.24,8.723,0.324,13.091,0.31
		c1.292-0.005,2.594,0.341,3.877,0.601c2.363,0.479,3.492,1.773,3.693,4.784c0.12,1.812-0.142,3.648-0.199,5.474
		c-0.091,2.863-0.203,5.727-0.222,8.59c-0.045,7.375-0.229,14.756-0.021,22.125c0.467,16.44,0.179,32.88,0.31,49.319
		c0.03,3.895,0.317,7.789,0.358,11.685c0.036,3.475-0.147,6.948-0.159,10.424c-0.025,8.408,0.008,16.815-0.026,25.223
		c-0.005,1.207-0.257,2.413-0.394,3.62c-0.041,0.371-0.12,0.743-0.112,1.112c0.067,3.329,0.19,6.658,0.221,9.987
		c0.038,4.086-0.005,8.171,0.005,12.256c0.003,1.564,0.97,2.786,2.49,3.094c1.102,0.224,2.233,0.294,3.336,0.511
		c0.729,0.144,1.473,0.341,2.137,0.664c1.199,0.583,1.856,1.973,1.62,3.162c-0.271,1.365-1.298,2.255-2.805,2.319
		c-1.078,0.047-2.161-0.017-3.241-0.026c-0.516-0.004-1.034-0.024-1.55,0.007c-1.554,0.093-2.392,0.849-2.705,2.356
		c-0.19,0.914-0.388,1.83-0.654,2.724c-0.322,1.074-1.081,1.713-2.178,1.981c-1.418,0.348-2.813,0.674-4.273,0.129
		c-1.121-0.421-1.805-1.151-1.994-2.323c-0.135-0.833-0.206-1.677-0.341-2.509c-0.229-1.415-0.609-1.776-2.035-1.774
		c-8.738,0.017-17.477,0.042-26.214,0.095c-2.487,0.015-4.974,0.16-7.462,0.195c-1.56,0.023-2.684,0.702-3.447,2.033
		c-0.116,0.202-0.218,0.415-0.336,0.617c-1.02,1.735-3.313,1.924-4.354,0.209c-0.826-1.36-1.892-1.692-3.365-1.802
		c-8.34-0.62-16.692-0.814-25.05-0.859c-3.237-0.018-6.475-0.019-9.71,0.042c-1.676,0.031-1.84,0.248-2.32,1.869
		c-0.226,0.763-0.483,1.519-0.773,2.258c-0.324,0.83-0.994,1.21-1.859,1.283c-0.983,0.084-1.506-0.231-1.814-1.166
		c-0.146-0.443-0.197-0.916-0.308-1.372c-0.358-1.481-1.42-2.52-2.951-2.598c-2.247-0.114-4.503-0.144-6.752-0.084
		c-3.096,0.081-6.187,0.346-9.282,0.401c-1.729,0.032-3.463-0.303-5.194-0.289c-2.812,0.023-5.624,0.193-8.435,0.314
		c-0.324,0.014-0.646,0.103-0.965,0.176c-1.592,0.366-2.209,1.038-2.449,2.651c-0.325,2.181-1.082,2.896-3.272,3.026
		c-0.511,0.03-1.037,0.002-1.542-0.084c-2.332-0.399-2.777-0.876-3.12-3.247c-0.272-1.882-0.976-2.528-2.85-2.596
		c-0.468-0.018-0.939,0.031-1.408,0.016c-1.966-0.067-3.933-0.155-5.899-0.222c-3.471-0.119-6.942-0.21-10.412-0.345
		c-2.954-0.115-5.906-0.3-8.86-0.404c-0.933-0.032-1.871,0.091-2.807,0.154c-0.805,0.054-1.271,0.529-1.514,1.264
		c-0.044,0.133-0.083,0.27-0.104,0.407c-0.163,1.088-0.35,2.167-1.517,2.675c-1.441,0.627-2.901,1.128-4.472,0.433
		c-0.386-0.172-0.765-0.358-1.153-0.524c-0.929-0.396-1.574-1.056-1.726-2.066c-0.25-1.658-1.24-2.659-2.708-3.317
		c-0.64-0.287-1.231-0.681-1.859-0.998c-1.01-0.511-1.479-1.404-1.751-2.433c-0.233-0.884-0.056-1.649,0.633-2.312
		c0.857-0.824,1.745-1.571,2.935-1.858c0.227-0.056,0.44-0.171,0.667-0.225c1.062-0.256,1.566-0.909,1.561-2.014
		c-0.005-1.314,0.064-2.63,0.072-3.943c0.023-4.511,0.038-9.021,0.049-13.531c0.025-10.053,0.051-20.106,0.065-30.16
		c0.01-7.327,0.002-14.656,0.002-21.983C8.473,98.445,8.529,98.445,8.585,98.445z M183.765,76.02c-0.023,0-0.049,0-0.072,0
		c-0.089-5.26-0.207-10.52-0.261-15.779c-0.113-11.086-0.203-22.173-0.284-33.259c-0.038-5.074-0.032-10.149-0.05-15.224
		c-0.002-0.469-0.01-0.941-0.067-1.406c-0.122-0.994-0.704-1.672-1.659-1.868c-2.613-0.535-5.223-1.113-7.917-1.106
		c-3.289,0.008-6.578,0.005-9.866-0.036C158,7.273,152.41,7.219,146.825,7.052c-1.501-0.045-2.357,0.565-2.738,1.871
		c-0.416,1.434-0.902,2.904-0.96,4.374c-0.174,4.456-0.236,8.921-0.191,13.381c0.055,5.541,0.296,11.079,0.376,16.62
		c0.021,1.393-0.282,2.789-0.405,4.187c-0.056,0.651-0.141,1.327-0.029,1.959c0.38,2.156,0.213,4.299,0.044,6.455
		c-0.216,2.762-0.404,5.527,0.22,8.275c0.155,0.679,0.184,1.396,0.2,2.097c0.175,7.513,0.358,15.025,0.494,22.538
		c0.124,6.903,0.201,13.809,0.287,20.712c0.101,8.173,0.177,16.347,0.287,24.519c0.094,6.904,0.22,13.807,0.337,20.711
		c0.086,5.126,0.802,10.194,1.426,15.271c0.234,1.909,0.845,2.504,2.728,2.537c3.239,0.058,6.482,0.044,9.723-0.035
		c3.236-0.078,6.469-0.332,9.704-0.403c3.993-0.089,7.987-0.054,11.98-0.103c2.337-0.028,4.223-1.559,4.39-3.744
		c0.29-3.801,0.052-7.569-0.595-11.352c-0.399-2.328-1.396-3.962-3.319-5.216c-1.175-0.764-2.13-1.894-3.353-2.546
		c-2.341-1.246-4.176-2.948-5.706-5.092c-1.446-2.026-3.456-3.313-5.963-3.626c-2.092-0.261-4.197-0.461-6.303-0.551
		c-2.033-0.087-3.64-1.123-5.291-2.095c-0.219-0.129-0.378-0.418-0.487-0.666c-0.832-1.899,0.161-3.701,2.214-3.955
		c0.644-0.08,1.311,0.006,1.967,0.04c0.888,0.048,1.775,0.164,2.663,0.174c2.913,0.031,5.827,0.048,8.74,0.029
		c2.043-0.012,3.629,0.835,4.756,2.493c0.638,0.937,1.422,1.607,2.498,1.941c1.722,0.532,2.895,1.682,3.679,3.267
		c0.146,0.295,0.27,0.603,0.444,0.879c0.523,0.826,1.165,0.976,2.034,0.51c0.721-0.387,1.057-0.914,1.055-1.8
		c-0.006-3.709,0.114-7.419,0.112-11.13c-0.005-10.289-0.056-20.578-0.074-30.866C183.754,91.148,183.765,83.583,183.765,76.02z
		 M96.261,42.999c-0.024,0-0.048,0-0.073,0c0-3.336-0.013-6.672,0.003-10.008c0.027-5.731,0.097-11.463,0.094-17.194
		c-0.001-1.687-0.136-3.379-0.307-5.059c-0.211-2.079-0.828-2.52-2.855-2.624c-1.537-0.078-3.085-0.261-4.588-0.585
		c-2.028-0.438-4.053-0.734-6.129-0.733c-3.383,0-6.766-0.047-10.148-0.049c-2.913-0.001-5.828-0.018-8.738,0.069
		c-2.621,0.077-3.324,1.264-3.643,3.124c-0.126,0.739-0.215,1.487-0.265,2.235c-0.208,3.138-0.42,6.276-0.585,9.417
		c-0.263,5.016-0.554,10.033-0.712,15.052c-0.17,5.398-0.214,10.801-0.29,16.202c-0.058,4.131-0.195,8.266-0.077,12.394
		c0.089,3.101,0.161,6.191-0.035,9.287c-0.112,1.78-0.205,3.563-0.229,5.345c-0.038,2.782,1.411,4.546,3.912,5.601
		c0.719,0.304,1.41,0.75,2.005,1.259c1.939,1.658,3.596,3.501,4.587,5.954c0.942,2.331,2.225,4.524,3.346,6.784
		c0.145,0.291,0.241,0.611,0.323,0.928c0.726,2.813,1.417,5.633,2.175,8.436c0.39,1.441,0.75,2.921,1.369,4.27
		c1.962,4.268,1.522,8.382-0.567,12.431c-0.514,0.995-1.207,1.899-1.704,2.901c-0.368,0.743-0.767,1.572-0.783,2.37
		c-0.084,4.269-0.063,8.541-0.048,12.812c0.001,0.451,0.138,0.935,0.33,1.348c0.413,0.889,0.911,1.09,1.824,0.759
		c1.036-0.375,1.866-1,2.522-1.93c2.008-2.847,4.44-5.226,7.763-6.509c0.871-0.336,1.794-0.532,2.678-0.835
		c1.199-0.411,1.638-1.138,1.407-2.389c-0.101-0.547-0.34-1.068-0.533-1.597c-0.272-0.747-0.58-1.482-0.836-2.234
		c-0.514-1.508-1.024-3.017-1.492-4.538c-0.261-0.849-0.463-1.719-0.638-2.591c-0.105-0.526,0.199-0.914,0.659-1.129
		c0.502-0.234,0.79,0.123,1.029,0.483c1.04,1.556,2.107,3.068,2.339,5.04c0.135,1.145,0.647,2.244,0.987,3.365
		c0.286,0.942,0.554,1.89,0.855,2.826c0.343,1.067,0.735,2.12,1.067,3.19c0.149,0.482,0.42,1.081,0.261,1.477
		c-0.483,1.206-1.149,2.341-1.744,3.503c-0.82,0.083-1.641,0.166-2.461,0.25c-0.046,0.004-0.095,0.006-0.141,0
		c-3.058-0.438-5.247,0.94-6.951,3.331c-0.109,0.153-0.228,0.299-0.343,0.447c-1.375,1.781-2.703,3.603-4.141,5.331
		c-1.145,1.375-1.982,2.836-2.123,4.65c-0.129,1.675-1.097,2.719-2.571,3.409c-1.44,0.676-2.835,1.446-4.277,2.118
		c-1.194,0.559-1.81,1.505-1.875,2.758c-0.08,1.545-0.106,3.102-0.014,4.644c0.091,1.53,0.718,2.2,2.246,2.427
		c1.666,0.248,3.352,0.413,5.035,0.497c3.235,0.162,6.473,0.285,9.711,0.339c3.1,0.052,6.203,0.06,9.3-0.039
		c2.354-0.075,3.432-1.182,3.553-3.496c0.151-2.858,0.236-5.722,0.313-8.585c0.271-10.049,0.273-20.099,0.033-30.15
		c-0.04-1.683-0.597-2.879-1.826-3.885c-0.181-0.148-0.344-0.32-0.527-0.467c-2.08-1.677-2.643-4.054-2.846-6.515
		c-0.145-1.755,0.982-2.467,2.62-1.851c1.611,0.605,2.432,0.262,3.112-1.333c0.493-1.156,0.545-2.359,0.341-3.591
		c-0.229-1.387-0.594-2.777-0.611-4.17c-0.044-3.802,0.028-7.606,0.125-11.408c0.05-1.921,0.445-3.848,0.347-5.754
		c-0.171-3.323-0.546-6.64-0.949-9.946c-0.217-1.783-0.557-1.989-2.331-2.221c-0.278-0.036-0.557-0.086-0.826-0.161
		c-3.242-0.892-6.541-1.192-9.892-0.973c-2.498,0.164-4.158,1.444-4.301,4.089c-0.068,1.26-0.13,2.54,0.008,3.789
		c0.44,3.99,1.46,7.815,3.514,11.317c0.353,0.601,0.596,1.27,0.866,1.916c0.325,0.778,0.651,1.557,0.929,2.353
		c0.415,1.191,0.819,2.388,1.17,3.599c0.287,0.99,0.439,2.02,0.738,3.006c0.495,1.637,0.657,3.296,0.676,5
		c0.016,1.492-0.708,2.594-1.565,3.665c-0.451,0.564-1.018,0.629-1.624,0.235c-0.932-0.603-1.7-1.339-1.916-2.489
		c-0.181-0.968-0.322-1.944-0.525-2.907c-0.135-0.639-0.283-1.288-0.541-1.883c-0.931-2.15-1.9-4.283-2.875-6.415
		c-0.429-0.937-0.8-1.926-1.385-2.759c-0.813-1.158-1.232-2.413-1.407-3.778c-0.137-1.07-0.298-2.142-0.343-3.218
		c-0.146-3.514-1.107-6.716-3.222-9.587c-0.882-1.198-1.561-2.567-2.186-3.927c-0.667-1.455-0.248-2.188,1.279-2.599
		c0.315-0.085,0.651-0.098,0.964-0.191c1.691-0.508,3.044-1.426,3.734-3.135c0.912-2.261,1.82-4.522,2.335-6.92
		c0.137-0.636,0.431-1.238,0.647-1.857c0.434-1.236,0.923-2.458,1.284-3.715c0.602-2.1,1.482-4.053,2.811-5.788
		c0.913-1.192,1.911-2.321,2.801-3.53c1.376-1.869,2.57-3.825,2.395-6.3c-0.03-0.416,0.08-0.84,0.098-1.262
		c0.027-0.646,0.37-1.053,0.948-1.263c0.553-0.202,0.87,0.208,1.199,0.538c0.165,0.165,0.33,0.343,0.446,0.542
		c1.083,1.864,2.169,3.728,3.221,5.609c0.201,0.36,0.289,0.794,0.374,1.206c0.377,1.824-0.003,2.657-1.625,3.616
		c-0.404,0.239-0.82,0.457-1.225,0.694c-1.234,0.725-2.37,1.612-3.029,2.88c-0.97,1.867-1.802,3.809-2.638,5.742
		c-0.463,1.072-0.843,2.184-1.209,3.293c-0.484,1.467-1.073,2.923-1.339,4.433c-0.378,2.145,1.086,3.18,3.077,2.374
		c0.906-0.367,1.856-0.629,2.793-0.914c1.283-0.39,2.354-0.077,3.356,0.846c0.786,0.722,1.728,1.277,2.614,1.887
		c0.485,0.333,0.978,0.207,1.171-0.302c0.308-0.817,0.626-1.676,0.681-2.534c0.162-2.529,0.259-5.067,0.27-7.602
		C96.283,57.845,96.261,50.422,96.261,42.999z M53.309,49.913c0.046,0,0.092,0,0.138,0c0-12.26,0-24.52-0.002-36.78
		c0-0.845,0.004-1.693-0.047-2.536c-0.117-1.912-1.412-3.322-3.333-3.575c-4.22-0.555-8.435-0.12-12.643,0.175
		C33.776,7.453,30.139,7.815,26.5,8.156c-1.674,0.156-3.355,0.307-5.012,0.583c-1.373,0.229-2.095,1.184-2.193,2.561
		c-0.119,1.685-0.223,3.372-0.282,5.059c-0.162,4.646-0.332,9.291-0.429,13.938c-0.061,2.956-0.09,5.918,0.036,8.871
		c0.128,3.005,0.361,5.997-0.201,8.983c-0.129,0.69-0.224,1.394-0.25,2.095c-0.172,4.644-0.331,9.289-0.474,13.933
		c-0.118,3.802-0.272,7.604-0.298,11.406c-0.047,7.045-0.036,14.09,0.002,21.136c0.013,2.297,0.26,4.591,0.267,6.888
		c0.006,1.922-0.228,3.842-0.276,5.765c-0.139,5.588-0.155,11.174,0.298,16.754c0.295,3.648,0.522,7.302,0.74,10.956
		c0.361,6.066-0.38,12.098-0.603,18.146c-0.162,4.409-0.354,8.818-0.509,13.228c-0.044,1.249,0.241,1.721,1.404,2.09
		c0.744,0.235,1.558,0.309,2.345,0.331c0.695,0.021,1.395-0.174,2.094-0.189c2.254-0.05,4.509-0.04,6.763-0.096
		c1.171-0.027,2.346-0.092,3.509-0.229c1.83-0.217,2.683-1.493,2.245-3.298c-0.12-0.497-0.327-0.976-0.508-1.456
		c-0.87-2.308-2.251-4.322-3.67-6.309c-0.92-1.291-1.133-2.573-0.493-4.094c0.466-1.107,0.637-2.343,0.907-3.528
		c0.2-0.878-0.1-1.615-0.577-2.379c-0.868-1.386-1.608-2.853-2.398-4.288c-0.865-1.574-0.543-2.911,0.658-4.217
		c0.651-0.707,1.122-1.613,1.529-2.497c0.19-0.413,0.205-1.061,0.014-1.468c-0.731-1.566-1.509-3.119-2.4-4.599
		c-1.079-1.79-0.974-4.738,0.403-6.325c0.737-0.852,1.505-1.681,2.322-2.454c0.59-0.561,0.838-1.163,0.81-1.979
		c-0.069-2.017-0.067-4.037-0.086-6.057c-0.007-0.668,0.065-1.325,0.586-1.82c0.849-0.808,1.613-1.753,2.583-2.374
		c2.504-1.605,4.801-3.438,6.872-5.568c2.454-2.524,4.997-4.966,7.371-7.563c1.978-2.163,3.162-4.773,3.292-7.748
		c0.181-4.126,0.374-8.256,0.399-12.385C53.349,68.608,53.309,59.26,53.309,49.913z M135.054,128.257
		c-0.927-0.787-1.117-1.692-0.909-2.641c0.231-1.046,0.577-2.071,0.938-3.082c0.346-0.972,0.748-1.924,1.174-2.862
		c0.461-1.018,0.938-2.033,1.48-3.008c0.685-1.228,1.461-2.404,2.159-3.624c0.426-0.744,0.368-1.521,0.015-2.298
		c-0.472-1.034-1.138-1.828-2.313-2.071c-0.549-0.115-1.098-0.244-1.639-0.393c-2.659-0.726-5.111-1.836-7.146-3.761
		c-0.795-0.752-1.045-1.632-0.911-2.676c0.173-1.331,0.716-1.74,2.01-1.322c0.841,0.271,1.645,0.688,2.419,1.121
		c1.467,0.82,3.05,0.892,4.65,0.769c0.428-0.033,0.977-0.244,1.223-0.563c0.594-0.771,1.18-1.603,1.502-2.506
		c0.254-0.713,0.242-1.588,0.117-2.354c-0.24-1.473-2.114-2.403-3.516-1.777c-1.036,0.462-2.057,0.899-3.218,0.895
		c-1.546-0.006-2.717-0.568-3.342-2.076c-0.48-1.156-0.334-1.68,0.711-2.348c0.83-0.529,1.669-1.054,2.435-1.667
		c0.378-0.304,0.753-0.767,0.865-1.223c0.457-1.867-0.405-3.566-2.12-4.46c-0.497-0.259-0.932-0.285-1.462-0.053
		c-1.199,0.525-2.129,1.285-2.829,2.424c-0.528,0.861-1.19,1.7-1.971,2.331c-0.846,0.683-1.591,0.315-1.878-0.738
		c-0.086-0.313-0.13-0.645-0.14-0.97c-0.041-1.361-0.096-2.723-0.08-4.085s0.39-1.849,1.678-2.251
		c2.313-0.722,4.456-1.618,5.804-3.861c0.469-0.779,0.894-1.5,1.062-2.397c0.138-0.73,0.315-1.479,0.635-2.142
		c0.638-1.32,1.932-1.942,3.375-1.749c0.277,0.038,0.547,0.135,0.823,0.183c1.605,0.278,2.501-0.313,2.819-1.905
		c0.741-3.7,0.385-7.406-0.217-11.061c-0.364-2.208-0.436-4.374-0.294-6.581c0.057-0.884,0.016-1.779-0.038-2.665
		c-0.052-0.846-0.354-1.652-1.263-1.825c-0.848-0.161-1.133,0.662-1.521,1.227c-0.475,0.695-0.905,1.427-1.433,2.079
		c-0.614,0.756-1.442,1.069-2.393,0.703c-0.951-0.367-0.868-1.235-0.867-2.035c0.002-0.939,0.091-1.883,0.01-2.814
		c-0.079-0.914-0.705-1.277-1.482-0.867c-1.131,0.595-2.213,1.315-2.507,2.689c-0.354,1.65-1.247,3.02-2.13,4.409
		c-0.534,0.841-1.272,1.178-2.228,1.236c-1.515,0.092-2.884-0.322-4.127-1.149c-1.212-0.807-2.461-0.787-3.758-0.288
		c-0.568,0.219-1.12,0.487-1.701,0.658c-2.31,0.682-4.405-0.799-4.52-3.194c-0.066-1.36,0.04-2.742-0.16-4.079
		c-0.202-1.354,0.383-2.115,1.288-2.998c1.136-1.109,2.428-1.495,3.906-1.632c0.603-0.056,1.228-0.132,1.78-0.355
		c0.325-0.131,0.658-0.534,0.75-0.878c0.133-0.495-0.307-0.725-0.746-0.839c-0.271-0.07-0.543-0.18-0.817-0.189
		c-3.377-0.113-6.755-0.285-10.132-0.285c-2.25,0-3.167,0.823-3.521,3.039c-0.311,1.941-0.54,3.911-0.588,5.874
		c-0.198,7.886-0.347,15.773-0.438,23.661c-0.033,2.783,0.414,5.509,1.54,8.101c1.044,2.404,2.77,4.215,4.85,5.71
		c0.359,0.259,0.984,0.277,1.463,0.214c1.068-0.139,1.872-0.784,2.583-1.575c0.721-0.802,1.46-1.596,2.261-2.315
		c0.694-0.624,1.21-0.512,1.775,0.211c0.523,0.668,0.475,1.435,0.259,2.155c-0.394,1.299-0.897,2.564-1.333,3.851
		c-0.255,0.749-0.629,1.504-0.667,2.271c-0.161,3.188-0.226,6.382-0.302,9.573c-0.071,3.048-0.099,6.098-0.182,9.146
		c-0.019,0.698-0.109,1.421-0.324,2.08c-0.125,0.387-0.53,0.896-0.864,0.939c-0.314,0.041-0.849-0.379-1.021-0.729
		c-0.306-0.615-0.431-1.324-0.592-2.005c-0.321-1.36-1.205-2.267-2.428-2.086c-2.027,0.299-4.082,0.594-5.882,1.734
		c-0.693,0.439-1.098,1.011-1.159,1.816c-0.036,0.468-0.041,0.938-0.043,1.406c-0.009,1.926-0.01,3.852-0.017,5.776
		c-0.012,2.908-0.033,5.817-0.037,8.726c-0.001,0.619,0.074,1.226,0.632,1.642c0.953,0.711,2.308,0.642,3.214-0.179
		c0.277-0.251,0.518-0.549,0.809-0.783c2.091-1.691,2.533-3.705,1.304-6.118c-0.314-0.617-0.511-1.317-0.644-2.001
		c-0.186-0.957,0.404-1.594,1.101-2.127c0.711-0.544,1.352-0.174,1.924,0.25c0.525,0.389,1.052,0.813,1.454,1.319
		c0.816,1.025,1.496,2.161,2.333,3.167c0.747,0.894,1.58,1.734,2.471,2.484c0.852,0.718,1.451,0.561,2.112-0.364
		c0.162-0.228,0.25-0.511,0.42-0.73c1.402-1.814,2.773-3.654,4.243-5.412c0.637-0.761,1.512-0.496,1.755,0.479
		c0.118,0.477,0.106,1.053-0.046,1.517c-0.295,0.884-0.744,1.714-1.108,2.576c-0.398,0.941-0.877,1.867-1.13,2.849
		c-0.292,1.129-0.382,2.311-0.544,3.473c-0.303,2.147-1.618,3.141-3.798,2.893c-0.413-0.048-0.866-0.058-1.255,0.062
		c-2.492,0.761-5.041,1.036-7.638,1.031c-0.431-0.001-1.018,0.143-1.268,0.441c-1.383,1.655-2.465,3.448-2.016,5.767
		c0.331,1.705,1.229,2.549,2.984,2.595c0.789,0.021,1.585-0.127,2.375-0.219c1.434-0.166,2.858-0.723,4.312-0.246
		c2.398,0.784,4.824,0.528,7.251,0.277c2.048-0.212,4.086-0.514,6.136-0.698c1.214-0.109,1.595-0.403,1.579-1.612
		c-0.004-0.371-0.069-0.751-0.168-1.11c-0.761-2.772-1.625-5.495-3.687-7.646c-0.354-0.371-0.655-0.8-0.941-1.229
		c-0.18-0.269-0.342-0.571-0.418-0.883c-0.226-0.915,0.118-1.376,1.04-1.644c1.16-0.336,2.078-0.102,2.895,0.835
		c0.756,0.865,1.378,1.761,1.66,2.894c0.555,2.219,1.685,4.184,2.996,6.008c1.165,1.619,1.886,3.315,2.012,5.305
		c0.116,1.838,2.317,3.709,4.182,3.652c0.91-0.028,1.3-0.271,1.499-1.172c0.182-0.819,0.303-1.669,0.31-2.508
		c0.031-3.617,0.02-7.235-0.004-10.854c-0.006-0.795-0.054-1.604-0.206-2.381c-0.325-1.657-1.184-1.969-2.603-1.03
		C136.847,127.111,135.945,127.682,135.054,128.257z M100.867,20.106c0.157,3.632,0.251,7.059,0.472,10.477
		c0.139,2.149,1.002,2.719,3.05,2.244c1.854-0.43,3.704-0.35,5.592-0.189c1.762,0.15,3.565,0.108,5.324-0.081
		c2.732-0.292,5.438-0.626,7.93,0.909c1.751,1.079,3.594,1.136,5.563,0.837c1.418-0.216,2.852-0.575,4.324-0.186
		c0.994,0.263,2.02,0.416,3.037,0.567c1.749,0.26,2.48-0.225,2.734-1.966c0.256-1.762,0.395-3.542,0.535-5.318
		c0.052-0.65-0.018-1.313-0.065-1.968c-0.19-2.525-0.424-5.048-0.583-7.575c-0.151-2.39-0.197-4.786-0.345-7.175
		c-0.137-2.204-1.276-3.232-3.381-3.347c-2.574-0.14-5.146-0.43-7.72-0.458c-7.517-0.079-15.034-0.112-22.55-0.045
		c-2.287,0.02-3.269,0.77-3.439,3.208C101.106,13.458,101.014,16.884,100.867,20.106z M66.13,147.975
		c0.201-2.503-0.319-4.79-2.2-6.569c-0.948-0.896-1.994-1.713-3.089-2.42c-0.556-0.359-1.311-0.498-1.991-0.557
		c-1.68-0.145-3.245,0.389-4.754,1.054c-2.74,1.207-5.477,2.423-8.189,3.689c-1.619,0.756-3.091,1.728-4.4,2.987
		c-1.526,1.47-2.843,3.058-4.104,4.771c-1.336,1.813-0.837,3.642-0.923,5.502c-0.006,0.153,0.164,0.326,0.274,0.473
		c0.708,0.931,1.486,1.815,2.123,2.793c1.198,1.841,2.48,3.655,3.414,5.63c0.713,1.51,1.687,2.806,2.583,4.169
		c0.236,0.358,0.699,0.683,1.117,0.784c1.276,0.31,2.561,0.461,3.894,0.136c1.254-0.304,2.019-0.969,2.153-2.249
		c0.19-1.817,0.228-3.656,0.519-5.454c0.275-1.7-0.36-3.002-1.334-4.257c-0.512-0.659-1.114-1.124-1.987-1.168
		c-1.685-0.086-3.368-0.256-5.052-0.263c-1.757-0.007-3.043-0.701-3.963-2.184c-0.688-1.108-0.629-1.975,0.353-2.846
		c0.342-0.303,0.78-0.51,1.195-0.718c1.002-0.504,2.059-0.911,3.016-1.486c2.207-1.326,4.36-2.741,6.553-4.093
		c0.472-0.291,1.002-0.608,1.532-0.662c1.295-0.131,2.611-0.048,3.907-0.171c2.628-0.252,3.559,1.602,4.489,3.488
		c0.083,0.167,0.156,0.347,0.188,0.53c0.299,1.648,1.606,2.325,2.897,3.019c0.556,0.299,1.04,0.16,1.313-0.375
		c0.228-0.443,0.398-0.948,0.452-1.442C66.187,149.39,66.13,148.68,66.13,147.975z M36.086,140.746
		c0.058,2.079,1.109,2.68,2.364,1.993c0.573-0.313,1.114-0.686,1.687-1c1.762-0.966,3.498-1.991,5.308-2.858
		c2.696-1.29,5.442-2.481,8.178-3.688c2.931-1.29,5.809-1.785,8.565,0.502c0.593,0.493,1.383,0.791,2.128,1.043
		c0.824,0.277,1.421-0.097,1.515-0.956c0.05-0.467-0.125-1.001-0.332-1.442c-0.277-0.589-0.729-1.094-1.027-1.674
		c-1.23-2.394-2.984-4.251-5.248-5.738c-2.377-1.562-4.722-1.543-7.197-0.436c-0.897,0.401-1.808,0.778-2.685,1.222
		c-0.664,0.337-1.321,0.709-1.917,1.152c-2.914,2.165-5.356,4.838-7.893,7.408c-0.89,0.9-1.777,1.814-2.563,2.803
		C36.522,139.64,36.282,140.365,36.086,140.746z M68.182,124.247c-0.235-0.617-0.512-1.454-0.872-2.252
		c-0.209-0.467-0.537-0.882-0.834-1.305c-1.223-1.734-2.794-3.007-4.85-3.635c-1.119-0.341-2.234-0.694-3.348-1.053
		c-0.814-0.263-1.626-0.46-2.462-0.097c-2.229,0.966-4.688,1.369-6.738,2.776c-1.156,0.793-2.353,1.526-3.499,2.333
		c-1.495,1.053-3.023,2.071-4.417,3.248c-2.107,1.779-4.117,3.675-6.155,5.534c-0.983,0.896-1.013,1.978-0.137,2.926
		c0.317,0.344,0.661,0.505,1.125,0.33c1.226-0.464,2.458-0.873,3.484-1.772c1.41-1.232,2.879-2.402,4.36-3.549
		c1.038-0.805,2.134-1.533,3.214-2.28c1.349-0.935,2.7-1.864,4.064-2.774c1.313-0.876,2.635-0.73,3.993-0.048
		c0.745,0.374,1.534,0.703,2.34,0.906c1.548,0.388,3.046,0.826,4.488,1.569c1.319,0.68,2.789,1.09,4.222,1.519
		c1.071,0.321,1.46,0.051,1.773-1.002C68.04,125.266,68.069,124.886,68.182,124.247z M109.423,172.588c0,0.023,0,0.046,0,0.069
		c2.111,0,4.223,0.03,6.331-0.011c1.686-0.033,2.714-1.069,2.801-2.704c0.117-2.219-1.796-4.333-3.925-4.7
		c-3.662-0.633-7.227-1.601-10.02-4.308c-0.235-0.228-0.472-0.461-0.738-0.649c-1.212-0.855-2.535-0.488-3.106,0.87
		c-0.143,0.341-0.266,0.714-0.288,1.078c-0.113,1.867-0.166,3.739-0.288,5.605c-0.106,1.621,0.585,2.895,1.595,4.07
		c0.429,0.501,0.918,0.705,1.589,0.692C105.391,172.564,107.407,172.588,109.423,172.588z M62.771,114.79c0,0.002,0,0.004,0,0.006
		c1.22,0,2.441,0.006,3.662-0.002c0.562-0.004,1.007-0.22,1.205-0.788c0.311-0.893,0.343-1.877-0.229-2.569
		c-0.882-1.069-1.964-1.982-3.012-2.902c-0.488-0.429-1.121-0.687-1.646-1.079c-1.641-1.224-3.561-1.874-5.421-2.625
		c-1.297-0.523-2.618-0.342-3.679,0.643c-0.96,0.889-1.909,1.813-2.729,2.828c-1.461,1.811-3.116,3.342-5.136,4.533
		c-1.198,0.707-2.243,1.687-3.308,2.601c-0.61,0.523-0.478,1.032,0.266,1.409c0.75,0.38,1.493,0.273,2.128-0.191
		c1.095-0.8,2.346-1.124,3.628-1.438c0.857-0.211,1.734-0.465,2.507-0.879c1.87-1.001,3.843-0.64,5.796-0.591
		c0.261,0.007,0.551,0.156,0.772,0.316c0.887,0.647,1.883,0.78,2.941,0.735C61.267,114.766,62.02,114.79,62.771,114.79z
		 M110.118,96.936c-0.034,0-0.068,0-0.103,0c0-1.125,0.016-2.251-0.009-3.376c-0.008-0.366-0.023-0.788-0.201-1.085
		c-0.768-1.281-1.476-2.613-2.958-3.284c-0.633-0.286-1.166-0.783-1.762-1.156c-0.354-0.222-0.724-0.45-1.119-0.569
		c-0.784-0.238-1.559,0.007-1.888,0.564c-0.452,0.766,0.124,1.21,0.571,1.685c0.033,0.034,0.073,0.06,0.107,0.092
		c1.639,1.505,2.081,3.3,1.203,5.353c-0.405,0.942-0.93,1.833-1.414,2.741c-0.746,1.399-0.717,3.025,0.287,3.913
		c1.047,0.925,2.184,1.793,3.402,2.468c1.495,0.83,2.891,0.23,3.539-1.354c0.191-0.469,0.313-0.996,0.328-1.501
		C110.146,99.932,110.118,98.433,110.118,96.936z M111.958,159.031c0.146-0.031,0.374-0.084,0.604-0.128
		c1.286-0.248,2.574-0.487,3.859-0.741c1.742-0.346,3.484-0.698,5.227-1.053c0.613-0.126,1.042-0.457,1.035-1.131
		c-0.006-0.622-0.311-1.083-0.921-1.271c-0.354-0.109-0.723-0.179-1.09-0.229c-2.734-0.37-5.473-0.721-8.204-1.101
		c-1.467-0.205-2.786-0.748-3.934-1.723c-0.852-0.724-1.769-1.369-2.666-2.037c-0.418-0.312-0.843-0.597-1.405-0.247
		c-0.558,0.345-0.787,0.84-0.611,1.432c0.236,0.801,0.494,1.614,0.891,2.342c0.514,0.938,1.165,1.805,1.772,2.692
		C107.806,157.726,109.558,158.854,111.958,159.031z M58.623,97.607c0.033,0.993,0.315,1.865,0.776,2.707
		c1.154,2.107,3.198,2.586,5.313,2.884c0.355,0.051,0.815-0.194,1.136-0.428c0.863-0.63,0.974-1.515,0.754-2.514
		c-0.523-2.37-1.724-4.439-2.946-6.479c-0.413-0.688-1.148-1.232-1.835-1.695c-1.156-0.778-1.977-0.49-2.311,0.852
		C59.125,94.471,58.911,96.048,58.623,97.607z M140.272,82.299c-0.065-0.594-0.095-1.299-0.23-1.983
		c-0.221-1.114-0.705-1.496-1.827-1.572c-1.104-0.075-1.799,0.372-2.162,1.391c-0.733,2.06,0.046,3.856,2.173,5.015
		c0.999,0.543,1.741,0.209,1.929-0.923C140.254,83.63,140.232,83.014,140.272,82.299z M60.709,163.917
		c-0.652,0.151-0.968,0.643-1.016,1.215c-0.119,1.397-0.179,2.801-0.195,4.202c-0.005,0.399,0.165,0.834,0.356,1.199
		c0.385,0.733,0.964,0.824,1.62,0.313c0.651-0.507,0.905-1.222,0.837-1.995c-0.105-1.21-0.272-2.42-0.498-3.614
		C61.701,164.644,61.413,164.074,60.709,163.917z"/>
	<path fill-rule="evenodd" clip-rule="evenodd" fill="#FFFFFF" d="M183.765,76.02c0,7.564-0.011,15.128,0.003,22.692
		c0.019,10.288,0.069,20.577,0.074,30.866c0.002,3.711-0.118,7.421-0.112,11.13c0.002,0.886-0.334,1.413-1.055,1.8
		c-0.869,0.466-1.511,0.316-2.034-0.51c-0.175-0.276-0.299-0.584-0.444-0.879c-0.784-1.585-1.957-2.734-3.679-3.267
		c-1.076-0.334-1.86-1.005-2.498-1.941c-1.127-1.658-2.713-2.505-4.756-2.493c-2.913,0.019-5.827,0.002-8.74-0.029
		c-0.888-0.01-1.775-0.126-2.663-0.174c-0.656-0.034-1.323-0.12-1.967-0.04c-2.053,0.254-3.046,2.056-2.214,3.955
		c0.109,0.248,0.269,0.537,0.487,0.666c1.651,0.972,3.258,2.008,5.291,2.095c2.105,0.09,4.211,0.29,6.303,0.551
		c2.507,0.313,4.517,1.6,5.963,3.626c1.53,2.144,3.365,3.846,5.706,5.092c1.223,0.652,2.178,1.782,3.353,2.546
		c1.924,1.254,2.92,2.888,3.319,5.216c0.646,3.782,0.885,7.551,0.595,11.352c-0.167,2.186-2.053,3.716-4.39,3.744
		c-3.993,0.049-7.987,0.014-11.98,0.103c-3.235,0.071-6.468,0.325-9.704,0.403c-3.24,0.079-6.483,0.093-9.723,0.035
		c-1.883-0.033-2.493-0.628-2.728-2.537c-0.624-5.076-1.34-10.145-1.426-15.271c-0.117-6.904-0.243-13.807-0.337-20.711
		c-0.11-8.172-0.187-16.346-0.287-24.519c-0.086-6.903-0.163-13.809-0.287-20.712c-0.136-7.513-0.319-15.025-0.494-22.538
		c-0.017-0.701-0.045-1.418-0.2-2.097c-0.624-2.748-0.436-5.513-0.22-8.275c0.169-2.156,0.336-4.299-0.044-6.455
		c-0.111-0.632-0.026-1.308,0.029-1.959c0.123-1.397,0.426-2.794,0.405-4.187c-0.08-5.541-0.321-11.079-0.376-16.62
		c-0.045-4.46,0.018-8.925,0.191-13.381c0.058-1.47,0.544-2.94,0.96-4.374c0.381-1.305,1.237-1.916,2.738-1.871
		c5.585,0.167,11.175,0.221,16.763,0.29c3.288,0.041,6.577,0.044,9.866,0.036c2.694-0.007,5.304,0.571,7.917,1.106
		c0.955,0.196,1.537,0.874,1.659,1.868c0.058,0.465,0.065,0.938,0.067,1.406c0.018,5.074,0.012,10.149,0.05,15.224
		c0.081,11.086,0.171,22.173,0.284,33.259c0.054,5.26,0.172,10.52,0.261,15.779C183.716,76.019,183.741,76.02,183.765,76.02z
		 M149.977,50.442c0.729,1.438,1.441,2.852,2.165,4.26c0.257,0.499,0.646,0.952,0.795,1.478c0.94,3.329,2.086,6.595,2.229,10.125
		c0.131,3.227,0.557,6.443,0.868,9.663c0.146,1.491,0.341,2.961,0.104,4.478c-0.764,4.872-1.115,9.784-1.217,14.713
		c-0.023,1.167,0.026,2.346,0.161,3.507c0.238,2.066,2.32,2.655,3.892,1.274c1.13-0.99,1.662-2.254,1.831-3.69
		c0.225-1.909,0.443-3.821,0.58-5.737c0.372-5.187,1.997-9.872,5.307-13.946c2.002-2.464,3.396-5.269,4.288-8.317
		c0.089-0.303,0.152-0.649,0.1-0.954c-0.244-1.423-1.838-3.064-3.302-3.266c-1.2-0.165-2.448-0.309-3.636-0.16
		c-2.396,0.301-3.448-1.229-4.428-2.932c-0.23-0.399-0.297-0.889-0.485-1.316c-0.756-1.71-1.432-3.466-2.326-5.102
		c-0.932-1.703-2.371-3.022-3.895-4.216C152.121,49.61,151.169,49.392,149.977,50.442z M154.86,115.224
		c-0.053-0.005-0.104-0.009-0.157-0.015c0-0.985,0.038-1.972-0.015-2.952c-0.031-0.601-0.127-1.22-0.328-1.781
		c-0.357-0.989-1.825-1.936-2.64-1.707c-1.177,0.328-2.242,0.918-2.453,2.237c-0.191,1.189-0.365,2.445-0.188,3.618
		c0.437,2.889,0.484,5.785,0.516,8.69c0.02,1.811,0.631,3.496,1.304,5.144c0.399,0.977,1.256,1.031,1.761,0.087
		c0.501-0.937,1.009-1.955,1.142-2.985C154.245,122.127,154.521,118.671,154.86,115.224z"/>
	<path fill-rule="evenodd" clip-rule="evenodd" fill="#FFFFFF" d="M96.261,42.999c0,7.423,0.021,14.846-0.012,22.269
		c-0.011,2.535-0.108,5.072-0.27,7.602c-0.055,0.858-0.373,1.717-0.681,2.534c-0.193,0.509-0.686,0.635-1.171,0.302
		c-0.887-0.61-1.829-1.165-2.614-1.887c-1.002-0.923-2.074-1.236-3.356-0.846c-0.938,0.284-1.887,0.547-2.793,0.914
		c-1.991,0.806-3.455-0.229-3.077-2.374c0.266-1.51,0.855-2.966,1.339-4.433c0.367-1.11,0.746-2.221,1.209-3.293
		c0.836-1.933,1.668-3.875,2.638-5.742c0.659-1.268,1.794-2.155,3.029-2.88c0.404-0.238,0.821-0.456,1.225-0.694
		c1.623-0.958,2.002-1.792,1.625-3.616c-0.085-0.411-0.173-0.846-0.374-1.206c-1.052-1.881-2.138-3.745-3.221-5.609
		c-0.116-0.2-0.281-0.378-0.446-0.542c-0.329-0.33-0.646-0.739-1.199-0.538c-0.578,0.21-0.921,0.618-0.948,1.263
		c-0.018,0.421-0.127,0.846-0.098,1.262c0.175,2.475-1.019,4.431-2.395,6.3c-0.89,1.209-1.888,2.338-2.801,3.53
		c-1.329,1.735-2.208,3.688-2.811,5.788c-0.361,1.257-0.85,2.479-1.284,3.715c-0.217,0.619-0.511,1.221-0.647,1.857
		c-0.515,2.398-1.424,4.659-2.335,6.92c-0.689,1.709-2.042,2.627-3.734,3.135c-0.313,0.093-0.649,0.106-0.964,0.191
		c-1.526,0.41-1.946,1.144-1.279,2.599c0.625,1.359,1.303,2.729,2.186,3.927c2.114,2.871,3.075,6.073,3.222,9.587
		c0.045,1.077,0.206,2.148,0.343,3.218c0.175,1.365,0.594,2.62,1.407,3.778c0.585,0.833,0.956,1.822,1.385,2.759
		c0.975,2.132,1.945,4.265,2.875,6.415c0.258,0.595,0.406,1.244,0.541,1.883c0.204,0.963,0.344,1.939,0.525,2.907
		c0.216,1.15,0.984,1.887,1.916,2.489c0.606,0.394,1.173,0.329,1.624-0.235c0.857-1.071,1.582-2.173,1.565-3.665
		c-0.019-1.704-0.182-3.363-0.676-5c-0.298-0.986-0.451-2.016-0.738-3.006c-0.351-1.211-0.755-2.407-1.17-3.599
		c-0.277-0.796-0.604-1.574-0.929-2.353c-0.27-0.646-0.513-1.315-0.866-1.916c-2.053-3.501-3.073-7.327-3.514-11.317
		c-0.138-1.249-0.076-2.528-0.008-3.789c0.143-2.645,1.803-3.925,4.301-4.089c3.351-0.219,6.65,0.082,9.892,0.973
		c0.27,0.074,0.548,0.125,0.826,0.161c1.774,0.231,2.114,0.438,2.331,2.221c0.403,3.306,0.777,6.623,0.949,9.946
		c0.098,1.907-0.297,3.833-0.347,5.754c-0.098,3.802-0.17,7.606-0.125,11.408c0.017,1.393,0.381,2.783,0.611,4.17
		c0.204,1.231,0.152,2.435-0.341,3.591c-0.68,1.595-1.5,1.938-3.112,1.333c-1.638-0.616-2.764,0.096-2.62,1.851
		c0.204,2.461,0.767,4.838,2.846,6.515c0.183,0.146,0.346,0.318,0.527,0.467c1.229,1.006,1.786,2.202,1.826,3.885
		c0.24,10.052,0.239,20.102-0.033,30.15c-0.077,2.863-0.162,5.727-0.313,8.585c-0.121,2.314-1.199,3.421-3.553,3.496
		c-3.097,0.099-6.201,0.091-9.3,0.039c-3.238-0.054-6.477-0.177-9.711-0.339c-1.683-0.084-3.369-0.249-5.035-0.497
		c-1.527-0.227-2.154-0.896-2.246-2.427c-0.092-1.542-0.066-3.099,0.014-4.644c0.065-1.253,0.681-2.199,1.875-2.758
		c1.441-0.672,2.837-1.442,4.277-2.118c1.474-0.69,2.441-1.734,2.571-3.409c0.141-1.814,0.979-3.275,2.123-4.65
		c1.438-1.729,2.766-3.55,4.141-5.331c0.115-0.148,0.234-0.294,0.343-0.447c1.704-2.391,3.893-3.769,6.951-3.331
		c0.046,0.006,0.095,0.004,0.141,0c0.82-0.084,1.641-0.167,2.461-0.25c0.595-1.162,1.26-2.297,1.744-3.503
		c0.159-0.396-0.112-0.994-0.261-1.477c-0.332-1.07-0.724-2.123-1.067-3.19c-0.301-0.937-0.569-1.884-0.855-2.826
		c-0.34-1.121-0.852-2.221-0.987-3.365c-0.231-1.972-1.299-3.484-2.339-5.04c-0.24-0.36-0.527-0.718-1.029-0.483
		c-0.46,0.215-0.764,0.603-0.659,1.129c0.175,0.872,0.377,1.742,0.638,2.591c0.468,1.521,0.979,3.03,1.492,4.538
		c0.256,0.752,0.564,1.487,0.836,2.234c0.193,0.528,0.432,1.05,0.533,1.597c0.23,1.251-0.208,1.978-1.407,2.389
		c-0.884,0.303-1.808,0.499-2.678,0.835c-3.323,1.283-5.754,3.662-7.763,6.509c-0.657,0.93-1.487,1.555-2.522,1.93
		c-0.914,0.331-1.411,0.13-1.824-0.759c-0.192-0.413-0.329-0.896-0.33-1.348c-0.016-4.271-0.037-8.543,0.048-12.812
		c0.016-0.798,0.415-1.627,0.783-2.37c0.497-1.002,1.19-1.906,1.704-2.901c2.089-4.049,2.529-8.163,0.567-12.431
		c-0.62-1.349-0.979-2.828-1.369-4.27c-0.757-2.803-1.449-5.623-2.175-8.436c-0.082-0.316-0.178-0.637-0.323-0.928
		c-1.122-2.26-2.404-4.453-3.346-6.784c-0.991-2.453-2.647-4.296-4.587-5.954c-0.595-0.509-1.286-0.955-2.005-1.259
		c-2.501-1.055-3.95-2.819-3.912-5.601c0.024-1.782,0.117-3.565,0.229-5.345c0.195-3.096,0.124-6.187,0.035-9.287
		c-0.118-4.127,0.019-8.263,0.077-12.394c0.075-5.401,0.12-10.804,0.29-16.202c0.158-5.02,0.449-10.036,0.712-15.052
		c0.165-3.141,0.376-6.279,0.585-9.417c0.05-0.748,0.139-1.497,0.265-2.235c0.319-1.86,1.022-3.047,3.643-3.124
		c2.911-0.086,5.825-0.07,8.738-0.069c3.383,0.001,6.766,0.049,10.148,0.049c2.076,0,4.102,0.295,6.129,0.733
		c1.503,0.325,3.052,0.507,4.588,0.585c2.027,0.104,2.644,0.545,2.855,2.624c0.171,1.68,0.306,3.372,0.307,5.059
		c0.003,5.731-0.066,11.463-0.094,17.194c-0.016,3.336-0.003,6.671-0.003,10.008C96.213,42.999,96.237,42.999,96.261,42.999z"/>
	<path fill-rule="evenodd" clip-rule="evenodd" fill="#FFFFFF" d="M53.309,49.913c0,9.347,0.04,18.695-0.019,28.042
		c-0.026,4.129-0.219,8.259-0.399,12.385c-0.13,2.974-1.314,5.584-3.292,7.748c-2.374,2.597-4.917,5.038-7.371,7.563
		c-2.071,2.131-4.368,3.963-6.872,5.568c-0.97,0.621-1.734,1.566-2.583,2.374c-0.521,0.495-0.593,1.152-0.586,1.82
		c0.019,2.02,0.018,4.04,0.086,6.057c0.028,0.816-0.219,1.419-0.81,1.979c-0.816,0.773-1.584,1.603-2.322,2.454
		c-1.376,1.587-1.482,4.535-0.403,6.325c0.891,1.479,1.668,3.032,2.4,4.599c0.191,0.407,0.176,1.055-0.014,1.468
		c-0.408,0.884-0.878,1.79-1.529,2.497c-1.201,1.306-1.523,2.643-0.658,4.217c0.79,1.436,1.53,2.902,2.398,4.288
		c0.477,0.764,0.776,1.501,0.577,2.379c-0.27,1.186-0.441,2.421-0.907,3.528c-0.64,1.521-0.428,2.803,0.493,4.094
		c1.419,1.986,2.8,4.001,3.67,6.309c0.182,0.48,0.388,0.959,0.508,1.456c0.438,1.805-0.415,3.081-2.245,3.298
		c-1.163,0.138-2.337,0.202-3.509,0.229c-2.253,0.056-4.509,0.046-6.763,0.096c-0.699,0.016-1.399,0.211-2.094,0.189
		c-0.787-0.022-1.601-0.096-2.345-0.331c-1.163-0.369-1.448-0.841-1.404-2.09c0.155-4.409,0.347-8.818,0.509-13.228
		c0.222-6.048,0.964-12.079,0.603-18.146c-0.218-3.654-0.444-7.308-0.74-10.956c-0.453-5.58-0.437-11.166-0.298-16.754
		c0.048-1.923,0.282-3.843,0.276-5.765c-0.006-2.297-0.254-4.591-0.267-6.888c-0.039-7.045-0.05-14.091-0.002-21.136
		c0.026-3.803,0.18-7.604,0.298-11.406c0.144-4.645,0.302-9.289,0.474-13.933c0.026-0.701,0.121-1.405,0.25-2.095
		c0.562-2.986,0.33-5.978,0.201-8.983c-0.126-2.952-0.097-5.915-0.036-8.871c0.097-4.646,0.267-9.292,0.429-13.938
		c0.059-1.688,0.163-3.375,0.282-5.059c0.098-1.376,0.82-2.332,2.193-2.561c1.657-0.276,3.337-0.426,5.012-0.583
		c3.639-0.34,7.276-0.703,10.921-0.958c4.208-0.295,8.423-0.73,12.643-0.175c1.921,0.253,3.216,1.663,3.333,3.575
		c0.052,0.843,0.047,1.69,0.047,2.536c0.002,12.26,0.002,24.52,0.002,36.78C53.4,49.913,53.354,49.913,53.309,49.913z"/>
	<path fill-rule="evenodd" clip-rule="evenodd" fill="#FFFFFF" d="M135.054,128.257c0.892-0.575,1.793-1.146,2.682-1.734
		c1.419-0.938,2.277-0.627,2.603,1.03c0.152,0.777,0.2,1.586,0.206,2.381c0.023,3.618,0.035,7.236,0.004,10.854
		c-0.007,0.839-0.128,1.688-0.31,2.508c-0.199,0.9-0.589,1.144-1.499,1.172c-1.864,0.057-4.065-1.814-4.182-3.652
		c-0.126-1.989-0.847-3.686-2.012-5.305c-1.312-1.824-2.441-3.789-2.996-6.008c-0.282-1.133-0.904-2.028-1.66-2.894
		c-0.816-0.937-1.734-1.171-2.895-0.835c-0.922,0.268-1.266,0.729-1.04,1.644c0.076,0.312,0.238,0.614,0.418,0.883
		c0.286,0.429,0.587,0.857,0.941,1.229c2.062,2.151,2.926,4.874,3.687,7.646c0.099,0.359,0.164,0.739,0.168,1.11
		c0.016,1.209-0.365,1.503-1.579,1.612c-2.05,0.185-4.088,0.486-6.136,0.698c-2.427,0.251-4.853,0.507-7.251-0.277
		c-1.453-0.477-2.878,0.08-4.312,0.246c-0.79,0.092-1.586,0.239-2.375,0.219c-1.755-0.046-2.653-0.89-2.984-2.595
		c-0.449-2.318,0.633-4.111,2.016-5.767c0.25-0.299,0.837-0.442,1.268-0.441c2.597,0.005,5.146-0.271,7.638-1.031
		c0.389-0.119,0.842-0.109,1.255-0.062c2.18,0.248,3.495-0.745,3.798-2.893c0.162-1.162,0.252-2.344,0.544-3.473
		c0.253-0.981,0.731-1.907,1.13-2.849c0.364-0.862,0.813-1.692,1.108-2.576c0.152-0.464,0.164-1.04,0.046-1.517
		c-0.243-0.975-1.118-1.239-1.755-0.479c-1.47,1.758-2.841,3.598-4.243,5.412c-0.17,0.22-0.258,0.503-0.42,0.73
		c-0.661,0.925-1.261,1.082-2.112,0.364c-0.891-0.75-1.724-1.591-2.471-2.484c-0.837-1.006-1.517-2.142-2.333-3.167
		c-0.402-0.506-0.929-0.931-1.454-1.319c-0.572-0.424-1.213-0.794-1.924-0.25c-0.696,0.533-1.286,1.17-1.101,2.127
		c0.133,0.684,0.329,1.384,0.644,2.001c1.229,2.413,0.787,4.427-1.304,6.118c-0.291,0.234-0.531,0.532-0.809,0.783
		c-0.906,0.82-2.261,0.89-3.214,0.179c-0.558-0.416-0.633-1.022-0.632-1.642c0.004-2.908,0.025-5.817,0.037-8.726
		c0.007-1.925,0.008-3.851,0.017-5.776c0.002-0.468,0.007-0.938,0.043-1.406c0.062-0.806,0.466-1.377,1.159-1.816
		c1.8-1.141,3.855-1.436,5.882-1.734c1.223-0.181,2.106,0.726,2.428,2.086c0.161,0.681,0.286,1.39,0.592,2.005
		c0.173,0.351,0.707,0.771,1.021,0.729c0.334-0.043,0.739-0.553,0.864-0.939c0.215-0.659,0.306-1.382,0.324-2.08
		c0.083-3.048,0.11-6.098,0.182-9.146c0.076-3.191,0.141-6.385,0.302-9.573c0.038-0.767,0.412-1.522,0.667-2.271
		c0.436-1.287,0.939-2.552,1.333-3.851c0.216-0.72,0.265-1.487-0.259-2.155c-0.565-0.723-1.081-0.834-1.775-0.211
		c-0.801,0.719-1.54,1.514-2.261,2.315c-0.711,0.792-1.515,1.436-2.583,1.575c-0.479,0.063-1.104,0.044-1.463-0.214
		c-2.08-1.495-3.806-3.306-4.85-5.71c-1.126-2.592-1.572-5.318-1.54-8.101c0.091-7.888,0.24-15.775,0.438-23.661
		c0.049-1.963,0.277-3.933,0.588-5.874c0.354-2.216,1.271-3.039,3.521-3.039c3.377,0,6.755,0.172,10.132,0.285
		c0.274,0.009,0.546,0.119,0.817,0.189c0.439,0.114,0.879,0.344,0.746,0.839c-0.092,0.345-0.425,0.747-0.75,0.878
		c-0.553,0.224-1.178,0.299-1.78,0.355c-1.479,0.137-2.771,0.523-3.906,1.632c-0.905,0.883-1.49,1.644-1.288,2.998
		c0.2,1.337,0.094,2.719,0.16,4.079c0.114,2.395,2.21,3.876,4.52,3.194c0.581-0.171,1.133-0.439,1.701-0.658
		c1.297-0.499,2.546-0.519,3.758,0.288c1.243,0.827,2.612,1.241,4.127,1.149c0.955-0.058,1.693-0.395,2.228-1.236
		c0.883-1.39,1.775-2.759,2.13-4.409c0.294-1.374,1.376-2.094,2.507-2.689c0.777-0.41,1.403-0.046,1.482,0.867
		c0.081,0.931-0.008,1.875-0.01,2.814c-0.001,0.8-0.084,1.667,0.867,2.035c0.95,0.367,1.778,0.054,2.393-0.703
		c0.527-0.652,0.958-1.384,1.433-2.079c0.388-0.565,0.673-1.388,1.521-1.227c0.908,0.173,1.211,0.979,1.263,1.825
		c0.054,0.886,0.095,1.781,0.038,2.665c-0.142,2.208-0.07,4.373,0.294,6.581c0.602,3.655,0.958,7.361,0.217,11.061
		c-0.318,1.592-1.214,2.183-2.819,1.905c-0.276-0.048-0.546-0.146-0.823-0.183c-1.443-0.194-2.737,0.429-3.375,1.749
		c-0.319,0.663-0.497,1.412-0.635,2.142c-0.168,0.897-0.593,1.619-1.062,2.397c-1.348,2.244-3.491,3.14-5.804,3.861
		c-1.288,0.403-1.662,0.89-1.678,2.251s0.039,2.724,0.08,4.085c0.01,0.325,0.054,0.657,0.14,0.97
		c0.287,1.053,1.032,1.421,1.878,0.738c0.78-0.631,1.442-1.47,1.971-2.331c0.7-1.139,1.63-1.899,2.829-2.424
		c0.53-0.232,0.965-0.206,1.462,0.053c1.715,0.894,2.577,2.594,2.12,4.46c-0.112,0.456-0.487,0.919-0.865,1.223
		c-0.766,0.614-1.604,1.138-2.435,1.667c-1.045,0.668-1.191,1.192-0.711,2.348c0.625,1.508,1.796,2.07,3.342,2.076
		c1.161,0.005,2.182-0.433,3.218-0.895c1.401-0.626,3.275,0.305,3.516,1.777c0.125,0.766,0.137,1.641-0.117,2.354
		c-0.322,0.903-0.908,1.735-1.502,2.506c-0.246,0.319-0.795,0.53-1.223,0.563c-1.601,0.123-3.184,0.052-4.65-0.769
		c-0.774-0.434-1.578-0.851-2.419-1.121c-1.294-0.418-1.837-0.009-2.01,1.322c-0.134,1.044,0.116,1.924,0.911,2.676
		c2.035,1.925,4.487,3.035,7.146,3.761c0.541,0.148,1.09,0.277,1.639,0.393c1.176,0.243,1.842,1.037,2.313,2.071
		c0.354,0.777,0.411,1.554-0.015,2.298c-0.698,1.22-1.475,2.396-2.159,3.624c-0.543,0.975-1.02,1.99-1.48,3.008
		c-0.426,0.938-0.828,1.891-1.174,2.862c-0.361,1.011-0.707,2.036-0.938,3.082C133.937,126.564,134.127,127.47,135.054,128.257z
		 M114.271,65.948c-1.094,0.116-2.352,0.22-3.601,0.389c-1.431,0.194-2.498,1.043-3.375,2.113c-0.771,0.94-0.381,1.838,0.831,1.983
		c0.602,0.072,1.223,0.082,1.825,0.02c2.488-0.257,4.723,0.459,6.811,1.734c0.838,0.511,1.614,1.122,2.459,1.619
		c0.595,0.349,1.247,0.79,1.891,0.824c1.247,0.064,2.546,0.026,3.746-0.273c0.8-0.199,1.582-0.816,2.168-1.439
		c1.14-1.209,1.144-2.34-0.08-3.43c-1.577-1.402-3.334-2.632-5.509-2.897C119.115,66.307,116.778,66.166,114.271,65.948z
		 M118.343,61.764c0.004,0.037,0.007,0.075,0.01,0.112c1.16-0.139,2.325-0.241,3.477-0.428c1.128-0.184,1.497-0.844,1.12-1.93
		c-0.258-0.745-0.711-1.369-1.564-1.431c-1.392-0.101-2.799-0.251-4.184-0.145c-1.099,0.084-2.013,0.704-2.424,1.864
		c-0.396,1.111-0.115,1.763,1.046,1.934C116.647,61.861,117.502,61.764,118.343,61.764z"/>
	<path fill-rule="evenodd" clip-rule="evenodd" fill="#FFFFFF" d="M100.867,20.106c0.146-3.222,0.239-6.648,0.478-10.064
		c0.171-2.438,1.152-3.188,3.439-3.208c7.516-0.066,15.033-0.034,22.55,0.045c2.573,0.027,5.146,0.318,7.72,0.458
		c2.104,0.114,3.244,1.143,3.381,3.347c0.147,2.389,0.193,4.786,0.345,7.175c0.159,2.527,0.393,5.05,0.583,7.575
		c0.048,0.654,0.117,1.317,0.065,1.968c-0.141,1.776-0.279,3.556-0.535,5.318c-0.254,1.741-0.985,2.226-2.734,1.966
		c-1.018-0.151-2.043-0.304-3.037-0.567c-1.473-0.39-2.906-0.03-4.324,0.186c-1.969,0.299-3.812,0.241-5.563-0.837
		c-2.491-1.535-5.197-1.201-7.93-0.909c-1.759,0.188-3.563,0.231-5.324,0.081c-1.888-0.161-3.737-0.241-5.592,0.189
		c-2.048,0.475-2.911-0.094-3.05-2.244C101.119,27.165,101.024,23.738,100.867,20.106z"/>
	<path fill-rule="evenodd" clip-rule="evenodd" fill="#FFFFFF" d="M66.13,147.975c0,0.705,0.057,1.415-0.019,2.111
		c-0.053,0.494-0.224,0.999-0.452,1.442c-0.273,0.535-0.756,0.674-1.313,0.375c-1.292-0.693-2.599-1.37-2.897-3.019
		c-0.033-0.184-0.106-0.363-0.188-0.53c-0.93-1.887-1.861-3.74-4.489-3.488c-1.296,0.123-2.612,0.04-3.907,0.171
		c-0.529,0.054-1.06,0.371-1.532,0.662c-2.192,1.352-4.346,2.767-6.553,4.093c-0.957,0.575-2.014,0.982-3.016,1.486
		c-0.415,0.208-0.853,0.415-1.195,0.718c-0.982,0.871-1.042,1.737-0.353,2.846c0.919,1.482,2.206,2.177,3.963,2.184
		c1.685,0.007,3.368,0.177,5.052,0.263c0.873,0.044,1.475,0.509,1.987,1.168c0.975,1.255,1.609,2.557,1.334,4.257
		c-0.291,1.798-0.328,3.637-0.519,5.454c-0.134,1.28-0.899,1.945-2.153,2.249c-1.333,0.325-2.618,0.174-3.894-0.136
		c-0.417-0.102-0.881-0.426-1.117-0.784c-0.896-1.363-1.87-2.659-2.583-4.169c-0.934-1.975-2.216-3.789-3.414-5.63
		c-0.637-0.978-1.415-1.862-2.123-2.793c-0.111-0.146-0.281-0.319-0.274-0.473c0.085-1.86-0.414-3.688,0.923-5.502
		c1.261-1.713,2.578-3.301,4.104-4.771c1.31-1.26,2.782-2.231,4.4-2.987c2.712-1.267,5.449-2.482,8.189-3.689
		c1.509-0.665,3.075-1.198,4.754-1.054c0.681,0.059,1.436,0.197,1.991,0.557c1.096,0.707,2.142,1.523,3.089,2.42
		C65.811,143.185,66.331,145.472,66.13,147.975z"/>
	<path fill-rule="evenodd" clip-rule="evenodd" fill="#FFFFFF" d="M36.086,140.746c0.196-0.381,0.437-1.106,0.884-1.669
		c0.787-0.988,1.674-1.902,2.563-2.803c2.536-2.57,4.979-5.243,7.893-7.408c0.596-0.443,1.253-0.815,1.917-1.152
		c0.877-0.443,1.788-0.82,2.685-1.222c2.475-1.107,4.82-1.126,7.197,0.436c2.264,1.487,4.018,3.345,5.248,5.738
		c0.298,0.58,0.75,1.085,1.027,1.674c0.207,0.441,0.382,0.976,0.332,1.442c-0.094,0.859-0.691,1.233-1.515,0.956
		c-0.745-0.252-1.535-0.55-2.128-1.043c-2.756-2.287-5.634-1.792-8.565-0.502c-2.736,1.206-5.482,2.397-8.178,3.688
		c-1.81,0.867-3.546,1.893-5.308,2.858c-0.572,0.314-1.114,0.687-1.687,1C37.195,143.426,36.144,142.825,36.086,140.746z"/>
	<path fill-rule="evenodd" clip-rule="evenodd" fill="#FFFFFF" d="M68.182,124.247c-0.112,0.639-0.142,1.019-0.249,1.375
		c-0.313,1.053-0.702,1.323-1.773,1.002c-1.433-0.429-2.902-0.839-4.222-1.519c-1.442-0.743-2.94-1.182-4.488-1.569
		c-0.806-0.203-1.596-0.532-2.34-0.906c-1.358-0.683-2.681-0.828-3.993,0.048c-1.364,0.91-2.715,1.84-4.064,2.774
		c-1.08,0.747-2.176,1.476-3.214,2.28c-1.481,1.146-2.951,2.316-4.36,3.549c-1.026,0.899-2.258,1.309-3.484,1.772
		c-0.464,0.175-0.807,0.014-1.125-0.33c-0.876-0.948-0.846-2.029,0.137-2.926c2.038-1.859,4.047-3.755,6.155-5.534
		c1.394-1.177,2.922-2.195,4.417-3.248c1.146-0.807,2.343-1.54,3.499-2.333c2.05-1.407,4.51-1.811,6.738-2.776
		c0.836-0.363,1.648-0.166,2.462,0.097c1.113,0.358,2.229,0.712,3.348,1.053c2.056,0.628,3.627,1.9,4.85,3.635
		c0.297,0.423,0.625,0.838,0.834,1.305C67.669,122.793,67.947,123.63,68.182,124.247z"/>
	<path fill-rule="evenodd" clip-rule="evenodd" fill="#FFFFFF" d="M109.423,172.588c-2.016,0-4.032-0.023-6.048,0.014
		c-0.671,0.013-1.16-0.191-1.589-0.692c-1.01-1.176-1.701-2.449-1.595-4.07c0.122-1.866,0.174-3.738,0.288-5.605
		c0.022-0.364,0.145-0.737,0.288-1.078c0.571-1.358,1.894-1.726,3.106-0.87c0.267,0.188,0.503,0.422,0.738,0.649
		c2.793,2.707,6.357,3.675,10.02,4.308c2.129,0.367,4.042,2.481,3.925,4.7c-0.087,1.635-1.115,2.671-2.801,2.704
		c-2.108,0.041-4.22,0.011-6.331,0.011C109.423,172.634,109.423,172.611,109.423,172.588z"/>
	<path fill-rule="evenodd" clip-rule="evenodd" fill="#FFFFFF" d="M62.771,114.79c-0.751,0-1.504-0.024-2.254,0.007
		c-1.058,0.045-2.054-0.088-2.941-0.735c-0.221-0.16-0.511-0.31-0.772-0.316c-1.953-0.049-3.926-0.41-5.796,0.591
		c-0.772,0.414-1.649,0.668-2.507,0.879c-1.282,0.313-2.534,0.638-3.628,1.438c-0.635,0.465-1.378,0.571-2.128,0.191
		c-0.744-0.377-0.876-0.886-0.266-1.409c1.065-0.914,2.11-1.894,3.308-2.601c2.021-1.191,3.675-2.723,5.136-4.533
		c0.82-1.016,1.769-1.939,2.729-2.828c1.062-0.984,2.382-1.166,3.679-0.643c1.861,0.751,3.781,1.401,5.421,2.625
		c0.525,0.393,1.158,0.65,1.646,1.079c1.048,0.92,2.13,1.833,3.012,2.902c0.571,0.692,0.54,1.677,0.229,2.569
		c-0.198,0.568-0.643,0.784-1.205,0.788c-1.22,0.008-2.441,0.002-3.662,0.002C62.771,114.794,62.771,114.792,62.771,114.79z"/>
	<path fill-rule="evenodd" clip-rule="evenodd" fill="#FFFFFF" d="M110.118,96.936c0,1.497,0.027,2.996-0.015,4.491
		c-0.015,0.505-0.137,1.032-0.328,1.501c-0.648,1.584-2.044,2.184-3.539,1.354c-1.219-0.675-2.355-1.543-3.402-2.468
		c-1.004-0.888-1.033-2.514-0.287-3.913c0.484-0.908,1.009-1.799,1.414-2.741c0.878-2.052,0.436-3.847-1.203-5.353
		c-0.034-0.032-0.074-0.058-0.107-0.092c-0.447-0.475-1.023-0.919-0.571-1.685c0.329-0.557,1.104-0.803,1.888-0.564
		c0.396,0.119,0.765,0.348,1.119,0.569c0.596,0.374,1.129,0.87,1.762,1.156c1.482,0.67,2.19,2.003,2.958,3.284
		c0.178,0.297,0.193,0.719,0.201,1.085c0.024,1.125,0.009,2.251,0.009,3.376C110.05,96.936,110.084,96.936,110.118,96.936z"/>
	<path fill-rule="evenodd" clip-rule="evenodd" fill="#FFFFFF" d="M111.958,159.031c-2.4-0.178-4.152-1.306-5.443-3.194
		c-0.607-0.888-1.259-1.754-1.772-2.692c-0.396-0.728-0.654-1.541-0.891-2.342c-0.176-0.592,0.054-1.087,0.611-1.432
		c0.563-0.35,0.987-0.064,1.405,0.247c0.897,0.668,1.814,1.313,2.666,2.037c1.147,0.975,2.467,1.518,3.934,1.723
		c2.731,0.38,5.47,0.73,8.204,1.101c0.367,0.05,0.736,0.119,1.09,0.229c0.61,0.188,0.915,0.649,0.921,1.271
		c0.007,0.674-0.422,1.005-1.035,1.131c-1.742,0.354-3.484,0.707-5.227,1.053c-1.285,0.254-2.573,0.493-3.859,0.741
		C112.332,158.947,112.104,159,111.958,159.031z"/>
	<path fill-rule="evenodd" clip-rule="evenodd" fill="#FFFFFF" d="M58.623,97.607c0.288-1.56,0.502-3.137,0.886-4.672
		c0.334-1.342,1.155-1.63,2.311-0.852c0.687,0.463,1.423,1.007,1.835,1.695c1.222,2.039,2.423,4.108,2.946,6.479
		c0.22,0.999,0.109,1.884-0.754,2.514c-0.32,0.233-0.78,0.479-1.136,0.428c-2.115-0.298-4.158-0.776-5.313-2.884
		C58.938,99.473,58.656,98.601,58.623,97.607z"/>
	<path fill-rule="evenodd" clip-rule="evenodd" fill="#FFFFFF" d="M140.272,82.299c-0.04,0.714-0.019,1.331-0.118,1.927
		c-0.188,1.132-0.93,1.467-1.929,0.923c-2.127-1.158-2.906-2.955-2.173-5.015c0.363-1.019,1.059-1.466,2.162-1.391
		c1.122,0.077,1.606,0.458,1.827,1.572C140.178,81,140.207,81.706,140.272,82.299z"/>
	<path fill-rule="evenodd" clip-rule="evenodd" fill="#FFFFFF" d="M60.709,163.917c0.704,0.157,0.992,0.727,1.104,1.32
		c0.226,1.194,0.393,2.404,0.498,3.614c0.067,0.773-0.186,1.488-0.837,1.995c-0.655,0.511-1.234,0.42-1.62-0.313
		c-0.191-0.365-0.361-0.8-0.356-1.199c0.016-1.401,0.077-2.805,0.195-4.202C59.742,164.56,60.057,164.068,60.709,163.917z"/>
	<path fill-rule="evenodd" clip-rule="evenodd" fill="#3D2B2B" d="M149.977,50.442c1.192-1.051,2.145-0.833,3.03-0.138
		c1.523,1.194,2.963,2.513,3.895,4.216c0.895,1.636,1.57,3.392,2.326,5.102c0.188,0.427,0.255,0.917,0.485,1.316
		c0.979,1.702,2.031,3.233,4.428,2.932c1.188-0.149,2.436-0.005,3.636,0.16c1.464,0.201,3.058,1.842,3.302,3.266
		c0.053,0.305-0.011,0.651-0.1,0.954c-0.892,3.048-2.286,5.853-4.288,8.317c-3.31,4.074-4.935,8.759-5.307,13.946
		c-0.137,1.916-0.355,3.828-0.58,5.737c-0.169,1.437-0.701,2.7-1.831,3.69c-1.571,1.381-3.653,0.792-3.892-1.274
		c-0.135-1.161-0.185-2.34-0.161-3.507c0.102-4.929,0.453-9.841,1.217-14.713c0.237-1.517,0.042-2.987-0.104-4.478
		c-0.312-3.219-0.737-6.436-0.868-9.663c-0.143-3.53-1.288-6.797-2.229-10.125c-0.148-0.525-0.538-0.979-0.795-1.478
		C151.418,53.294,150.706,51.88,149.977,50.442z"/>
	<path fill-rule="evenodd" clip-rule="evenodd" fill="#3D2B2B" d="M154.86,115.224c-0.34,3.447-0.615,6.903-1.059,10.336
		c-0.133,1.03-0.641,2.049-1.142,2.985c-0.505,0.944-1.361,0.89-1.761-0.087c-0.673-1.647-1.284-3.333-1.304-5.144
		c-0.031-2.905-0.079-5.802-0.516-8.69c-0.178-1.173-0.004-2.429,0.188-3.618c0.211-1.319,1.276-1.909,2.453-2.237
		c0.814-0.229,2.282,0.718,2.64,1.707c0.201,0.562,0.297,1.181,0.328,1.781c0.053,0.98,0.015,1.967,0.015,2.952
		C154.756,115.215,154.808,115.219,154.86,115.224z"/>
	<path fill-rule="evenodd" clip-rule="evenodd" fill="#3D2B2B" d="M114.271,65.948c2.508,0.218,4.845,0.358,7.166,0.642
		c2.175,0.266,3.932,1.495,5.509,2.897c1.224,1.089,1.22,2.22,0.08,3.43c-0.586,0.623-1.368,1.24-2.168,1.439
		c-1.2,0.3-2.499,0.337-3.746,0.273c-0.644-0.034-1.296-0.475-1.891-0.824c-0.845-0.497-1.621-1.107-2.459-1.619
		c-2.088-1.274-4.322-1.991-6.811-1.734c-0.603,0.062-1.224,0.052-1.825-0.02c-1.212-0.145-1.602-1.042-0.831-1.983
		c0.877-1.07,1.944-1.919,3.375-2.113C111.919,66.168,113.177,66.064,114.271,65.948z"/>
	<path fill-rule="evenodd" clip-rule="evenodd" fill="#3D2B2B" d="M118.343,61.764c-0.841,0-1.695,0.097-2.52-0.023
		c-1.161-0.171-1.441-0.822-1.046-1.934c0.411-1.161,1.325-1.78,2.424-1.864c1.385-0.106,2.792,0.043,4.184,0.145
		c0.854,0.062,1.307,0.687,1.564,1.431c0.377,1.086,0.008,1.747-1.12,1.93c-1.151,0.187-2.316,0.289-3.477,0.428
		C118.35,61.839,118.347,61.801,118.343,61.764z"/>
</g>
</svg>
