<?xml version="1.0" encoding="utf-8"?>
<!-- Generator: Adobe Illustrator 16.0.0, SVG Export Plug-In . SVG Version: 6.00 Build 0)  -->
<!DOCTYPE svg PUBLIC "-//W3C//DTD SVG 1.1//EN" "http://www.w3.org/Graphics/SVG/1.1/DTD/svg11.dtd">
<svg version="1.1" id="Layer_1" xmlns="http://www.w3.org/2000/svg" xmlns:xlink="http://www.w3.org/1999/xlink" x="0px" y="0px"
	 width="244.8px" height="180px" viewBox="0 0 244.8 180" enable-background="new 0 0 244.8 180" xml:space="preserve">
<path fill="#3D2B2B" d="M212.367,88.508c0-29.063,21.405-53.696,29.17-61.676l0.082-0.661V10.663h-62.874
	c0,0-18.514,7.454-18.514,26.929s13.225,31.737,13.225,31.737v1.202H69.303L86.057,16.6l-7.875-15.72H36.849L28.974,16.6
	l17.35,55.851h-13.1c0,0-17.134,11.064-17.134,30.597s17.134,30.598,17.134,30.598h4.894L2.506,179.448h44l16.031-45.803h8.853
	c-4.959,4.739-8.054,11.413-8.054,18.813c0,14.374,11.653,26.027,26.027,26.027s26.027-11.653,26.027-26.027
	c0-7.4-3.094-14.074-8.054-18.813h60.64c-4.075,4.751-6.543,10.922-6.543,17.672c0,15.005,12.165,27.169,27.17,27.169
	c15.004,0,27.169-12.164,27.169-27.169c0-6.75-2.468-12.921-6.543-17.672h20.027v-7.674l0.112-0.899
	C223.539,120.864,212.367,110.003,212.367,88.508z"/>
</svg>
