<?xml version="1.0" encoding="utf-8"?>
<!-- Generator: Adobe Illustrator 16.0.0, SVG Export Plug-In . SVG Version: 6.00 Build 0)  -->
<!DOCTYPE svg PUBLIC "-//W3C//DTD SVG 1.1//EN" "http://www.w3.org/Graphics/SVG/1.1/DTD/svg11.dtd">
<svg version="1.1" xmlns="http://www.w3.org/2000/svg" xmlns:xlink="http://www.w3.org/1999/xlink" x="0px" y="0px" width="460.8px"
	 height="381.6px" viewBox="0 0 460.8 381.6" enable-background="new 0 0 460.8 381.6" xml:space="preserve">
<g id="Layer_2" opacity="0.5">
	<path fill-rule="evenodd" clip-rule="evenodd" fill="#FFFFFF" d="M108.54,154.909c0-2.854,0.239-5.111-0.041-7.302
		c-1.264-9.896-1.753-20.007-4.208-29.611C97.542,91.589,59.433,83.96,42.608,99.023c-10.808,9.675-18.243,21.5-23.488,34.622
		c-12.083,30.23-15.757,61.681-10.679,93.839c2.815,17.826,8.2,34.795,20.299,49.1c12.878,15.228,37,12.426,46.913,3.265
		c10.029-9.269,15.874-20.795,19.045-33.696c1.347-5.478,3.714-7.035,9.19-6.949c22.86,0.357,45.732,0.505,68.59,0.136
		c7.216-0.117,12.241,1.953,15.333,8.421c1.381,2.889,3.619,3.562,6.719,3.511c11.834-0.19,23.672-0.12,35.509-0.113
		c11.672,0.009,23.347,0.231,35.014,0.015c5.533-0.104,10.852-1.18,14.132-6.725c0.658-1.113,3.07-1.454,4.731-1.643
		c2.063-0.234,4.187,0.133,6.283,0.113c16.182-0.148,32.374-0.742,48.541-0.323c7.843,0.204,15.606,2.104,22.432,6.822
		c12.392,8.564,17.644,20.359,17.706,35.198c0.094,22.203,0.726,44.402,1.04,66.604c0.127,9.038,0.021,18.08,0.021,27.12
		c1.864,0.196,2.308,0.511,2.748,0.51c23.651-0.066,47.304-0.116,70.952-0.396c1.05-0.013,2.857-2.083,2.969-3.316
		c0.421-4.667,0.444-9.387,0.335-14.08c-0.618-26.408-1.223-52.818-2.025-79.222c-0.507-16.663-0.188-33.465-2.293-49.941
		c-4.116-32.217-22.359-54.34-52.8-65.37c-31.092-11.266-63.69-12.124-96.331-11.384c-6.439,0.145-8.766-1.39-10.74-7.772
		c-0.905-2.924-0.031-4.577,2.741-4.839c3.292-0.311,4.209-2.364,4.93-5.042c1.483-5.521-0.271-10.013-6.076-14.02
		c-4.524-3.124-9.199-6.042-13.907-8.887c-4.33-2.618-6.293-5.59-4.77-11.142c2.213-8.068,0.848-9.508-7.383-9.804
		c-2.603-0.093-4.019-0.771-4.02-3.481c-0.003-9.481-0.001-18.962-0.001-28.882c-0.479,0.335-0.349,0.164-0.215,0.162
		c11.979-0.238,23.957-0.525,35.938-0.591c1.159-0.006,2.545,1.161,3.455,2.13c8.495,9.047,20.266,11.49,30.402,6.2
		c11.598-6.051,16.606-16.447,13.993-29.039c-1.947-9.385-10.491-17.535-20.274-19.342c-9.545-1.763-19.99,2.762-25.408,10.586
		c-0.973,1.405-3.271,2.583-5.005,2.649c-7.448,0.288-14.915,0.121-22.374,0.121c-4.479,0-8.959,0-14.226,0
		c1.19-5.161,1.434-9.883,3.366-13.764c3.145-6.321,2.252-10.466-4.144-13.518c-7.117-3.396-14.566-3.734-21.685-1.025
		c-10.053,3.827-10.753,7.316-6.753,15.164c2.052,4.027,3.61,8.229,1.903,13.02c-10.076,0-19.954,0.13-29.821-0.132
		c-1.574-0.042-3.227-1.697-4.625-2.867c-2.953-2.471-5.416-5.726-8.691-7.577c-11.039-6.239-25.693-2.241-33.023,8.568
		c-7.097,10.464-4.886,25.606,4.942,33.852c9.936,8.336,24.411,8.035,33.569-1.009c2.659-2.626,5.353-3.692,9.022-3.565
		c6.478,0.225,12.985,0.294,19.452-0.069c4.316-0.242,5.892,1.598,5.911,5.517c0.034,7.297-0.148,14.603,0.169,21.886
		c0.154,3.552-0.998,4.665-4.463,5.196c-7.375,1.132-8.186,1.5-7.243,8.577c1.117,8.388-3.116,12.364-9.46,15.745
		c-2.704,1.441-5.468,2.983-7.711,5.022c-2.829,2.573-5.904,5.337-7.522,8.675c-2.443,5.039-3.19,9.866,5.157,11.273
		c2.84,0.479,3.389,2.125,2.787,4.525c-1.118,4.457-3.155,7.42-8.593,7.375c-23.349-0.199-46.701-0.098-70.051-0.104
		C118.395,154.908,113.741,154.909,108.54,154.909z M233.425,273.874c0.001,0.131,0.001,0.26,0.001,0.39
		c6.479,0,12.96,0.101,19.437-0.031c5.376-0.109,9.284-3.611,9.992-8.707c0.35-2.513-0.055-4.66-3.284-4.662
		c-17.326-0.012-34.654-0.072-51.978,0.142c-1.414,0.017-3.76,1.773-4.025,3.062c-0.787,3.816,4.027,9.608,8.012,9.739
		C218.854,274.046,226.143,273.874,233.425,273.874z"/>
	<path fill-rule="evenodd" clip-rule="evenodd" fill="#FFFFFF" d="M207.924,181.057c1.722-3.574,3.235-7.274,5.271-10.66
		c0.802-1.332,2.777-2.793,4.211-2.786c19.613,0.109,39.226,0.505,58.84,0.716c2.831,0.03,3.779,1.192,3.505,3.822
		c-0.084,0.8-0.089,1.636,0.043,2.427c0.403,2.409,0.892,4.803,1.346,7.204c2.166-1.289,4.354-2.542,6.486-3.885
		c0.672-0.424,1.411-0.981,1.747-1.661c2.864-5.809,7.897-7.05,13.868-7.572c30.619-2.681,60.96-1.257,89.878,9.605
		c28.387,10.664,43.903,32.443,46.022,62.59c2.248,31.979,3.315,64.046,4.611,96.085c0.346,8.563-0.408,17.169-0.541,25.756
		c-0.039,2.577-1.186,3.289-3.6,3.277c-12.807-0.058-25.613-0.075-38.418,0.078c-3.395,0.041-4.659-1.418-4.761-4.569
		c-0.641-19.914-0.95-39.849-2.118-59.731c-0.708-12.057-1.982-24.192-4.382-36.014c-4.395-21.656-19.047-32.134-40.354-35.105
		c-16.433-2.292-32.818-3.25-49.371-2.048c-6.293,0.456-12.647,0.018-18.962,0.256c-4.684,0.177-7.782-1.641-9.283-6.083
		c-1.057-3.126-2.375-6.083-6.467-4.251c-4.085,1.83-4.011,4.994-2.093,8.479c0.389,0.705,0.7,1.454,1.009,2.2
		c3.076,7.46,2.442,8.974-5.516,9.354c-18.113,0.863-36.247,1.332-54.375,1.85c-2.18,0.063-4.38-0.564-7.667-1.025
		c1.912-3.194,3.429-5.574,4.789-8.039c1.781-3.23,4.009-6.382,4.901-9.861c0.438-1.708-1.703-4.077-2.678-6.147
		c-1.536,0.876-3.45,1.425-4.544,2.686c-5.014,5.772-11.46,8.631-18.835,8.563c-33.71-0.311-67.418-0.917-101.128-1.373
		c-2.443-0.033-3.954-0.542-4.09-3.446c-0.733-15.584-0.284-31.045,4.188-46.146c2.052-6.93,4.942-9.207,12.25-9.112
		c16.513,0.217,33.022,0.676,49.535,0.866c14.267,0.165,28.537,0.026,42.805,0.164c4.521,0.044,9.07,0.331,13.534,0.989
		c1.218,0.179,2.428,1.968,3.205,3.277c1.823,3.075,3.383,6.305,5.049,9.474C206.532,181.188,207.228,181.123,207.924,181.057z"/>
	<path fill-rule="evenodd" clip-rule="evenodd" fill="#FFFFFF" d="M56.188,136.167c-5.92,6.073-9.626,13.567-12.906,21.243
		c-11.087,25.946-10.458,52.559-3.824,79.345c1.875,7.57,5.914,13.961,13.285,17.661c6.95,3.489,10.7,2.226,14.134-4.651
		c1.434-2.872,2.687-6.382,5.095-8.063c2.386-1.666,6.111-1.548,9.283-1.82c0.519-0.045,1.702,1.914,1.745,2.98
		c0.363,9.123-13.016,27.72-21.921,30.7c-10.36,3.469-17.87,1.025-25.914-7.692c-8.006-8.678-11.076-19.385-12.208-30.5
		c-1.619-15.904-3.366-31.963-2.822-47.878c0.854-25.032,8.145-48.352,22.016-69.721c11.689-18.008,42.766-14.55,50.789,4.236
		c3.715,8.7,5.597,17.461,4.868,26.852c-0.373,4.801-1.9,6.243-6.665,5.736c-3.052-0.324-6.15-0.554-9.116-1.285
		c-4.812-1.187-7.928,0.917-10.001,4.83c-12.143,22.92-15.646,46.957-9.041,72.239c0.326,1.248,1.193,2.573,0.975,3.702
		c-0.491,2.536-0.761,6.011-2.463,7.232c-3.487,2.502-7.21,0.519-8.892-2.94c-1.72-3.538-2.441-7.613-3.276-11.522
		c-5.354-25.095-2.324-49.124,9.384-72.007c0.44-0.862,0.789-1.785,1.329-2.578C65.32,144.508,64.815,142.178,56.188,136.167z"/>
	<path fill-rule="evenodd" clip-rule="evenodd" fill="#FFFFFF" d="M253.895,128.743c-11.177,0-22.354,0.042-33.531-0.024
		c-3.563-0.022-4.671-2.066-2.364-4.923c3.553-4.4,7.328-8.689,11.487-12.502c1.57-1.439,4.473-1.987,6.763-1.971
		c7.266,0.05,14.606,0.034,21.758,1.111c3.558,0.535,6.916,3.169,10.081,5.279c2.393,1.595,4.565,3.677,6.397,5.903
		c1.2,1.458,1.91,3.52,2.176,5.404c0.064,0.457-2.456,1.756-3.848,1.858c-6.291,0.468-12.604,0.645-18.909,0.926
		C253.901,129.451,253.897,129.097,253.895,128.743z"/>
	<path fill-rule="evenodd" clip-rule="evenodd" fill="#FFFFFF" d="M244.768,153.676c-7.611-0.007-15.23-0.186-22.834,0.064
		c-4.205,0.138-4.984-1.894-4.554-5.368c0.548-4.426,4.254-8.104,8.798-8.142c14.092-0.116,28.186-0.109,42.279-0.045
		c3.505,0.016,6.113,3.91,6.446,8.28c0.349,4.585-2.691,5.1-5.839,5.163C260.969,153.788,252.867,153.682,244.768,153.676z"/>
	<path fill-rule="evenodd" clip-rule="evenodd" fill="#FFFFFF" d="M178.352,32.111c8.245-0.002,14.099,5.772,14.124,13.933
		c0.025,8.095-6.418,14.508-14.461,14.392c-7.335-0.106-13.978-6.665-14.117-13.937C163.748,38.599,170.263,32.113,178.352,32.111z"
		/>
	<path fill-rule="evenodd" clip-rule="evenodd" fill="#FFFFFF" d="M308.799,46.105c-0.007-7.722,6.08-13.985,13.594-13.991
		c8.491-0.006,14.693,5.886,14.709,13.973c0.015,8.265-6.094,14.337-14.422,14.334C314.924,60.419,308.806,54.109,308.799,46.105z"
		/>
	<path fill-rule="evenodd" clip-rule="evenodd" fill="#FFFFFF" d="M246.841,34.03c6.762,0.053,12.396,5.598,12.42,12.223
		c0.022,6.625-5.687,12.277-12.389,12.268c-6.887-0.01-12.868-5.915-12.743-12.579C234.257,39.199,239.831,33.976,246.841,34.03z"/>
	<path fill-rule="evenodd" clip-rule="evenodd" fill="#FFFFFF" d="M241.701,80.025c0-2.262,0.131-4.533-0.031-6.784
		c-0.233-3.289,0.678-5.188,4.439-5.26c3.706-0.071,5.403,1.439,5.391,5.088c-0.018,5.327-0.005,10.654,0.024,15.981
		c0.017,3.032-1.562,4.302-4.479,4.47c-3.162,0.181-5.034-1.227-5.271-4.291c-0.235-3.052-0.051-6.136-0.051-9.205
		C241.716,80.025,241.708,80.025,241.701,80.025z"/>
</g>
<g id="Layer_1">
	<g>
		<path fill-rule="evenodd" clip-rule="evenodd" d="M108.54,154.909c5.202,0,9.855-0.001,14.508,0.001
			c23.351,0.006,46.702-0.094,70.051,0.104c5.438,0.045,7.475-2.917,8.593-7.375c0.602-2.399,0.053-4.046-2.787-4.525
			c-8.347-1.407-7.6-6.234-5.157-11.273c1.618-3.337,4.693-6.102,7.522-8.675c2.243-2.039,5.007-3.581,7.711-5.022
			c6.344-3.381,10.577-7.357,9.46-15.745c-0.943-7.076-0.132-7.445,7.243-8.577c3.466-0.531,4.618-1.644,4.463-5.196
			c-0.317-7.283-0.135-14.589-0.169-21.886c-0.019-3.919-1.594-5.759-5.911-5.517c-6.467,0.363-12.974,0.294-19.452,0.069
			c-3.669-0.127-6.363,0.939-9.022,3.565c-9.158,9.043-23.634,9.345-33.569,1.009c-9.828-8.246-12.039-23.388-4.942-33.852
			c7.33-10.809,21.984-14.807,33.023-8.568c3.276,1.852,5.739,5.106,8.691,7.577c1.398,1.17,3.051,2.825,4.625,2.867
			c9.867,0.263,19.745,0.132,29.821,0.132c1.707-4.791,0.148-8.993-1.903-13.02c-4-7.848-3.3-11.337,6.753-15.164
			c7.118-2.709,14.567-2.371,21.685,1.025c6.396,3.051,7.288,7.197,4.144,13.518c-1.933,3.881-2.176,8.603-3.366,13.764
			c5.267,0,9.746,0,14.226,0c7.459,0,14.926,0.167,22.374-0.121c1.734-0.067,4.032-1.245,5.005-2.649
			c5.418-7.824,15.863-12.349,25.408-10.586c9.783,1.807,18.327,9.957,20.274,19.342c2.613,12.592-2.396,22.988-13.993,29.039
			c-10.137,5.29-21.907,2.847-30.402-6.2c-0.91-0.97-2.296-2.137-3.455-2.13c-11.98,0.065-23.958,0.353-35.938,0.591
			c-0.134,0.002-0.265,0.174,0.215-0.162c0,9.92-0.002,19.401,0.001,28.882c0.001,2.71,1.417,3.388,4.02,3.481
			c8.23,0.296,9.596,1.736,7.383,9.804c-1.523,5.552,0.439,8.524,4.77,11.142c4.708,2.845,9.383,5.763,13.907,8.887
			c5.805,4.006,7.56,8.498,6.076,14.02c-0.721,2.678-1.638,4.731-4.93,5.042c-2.772,0.262-3.646,1.916-2.741,4.839
			c1.975,6.382,4.301,7.917,10.74,7.772c32.641-0.739,65.239,0.119,96.331,11.384c30.44,11.029,48.684,33.153,52.8,65.37
			c2.105,16.477,1.786,33.278,2.293,49.941c0.803,26.403,1.407,52.813,2.025,79.222c0.109,4.693,0.086,9.413-0.335,14.08
			c-0.111,1.233-1.919,3.304-2.969,3.316c-23.648,0.28-47.301,0.33-70.952,0.396c-0.44,0.001-0.884-0.313-2.748-0.51
			c0-9.04,0.106-18.082-0.021-27.12c-0.314-22.202-0.946-44.401-1.04-66.604c-0.063-14.839-5.314-26.634-17.706-35.198
			c-6.825-4.718-14.589-6.618-22.432-6.822c-16.167-0.419-32.359,0.175-48.541,0.323c-2.097,0.02-4.221-0.348-6.283-0.113
			c-1.661,0.188-4.073,0.529-4.731,1.643c-3.28,5.545-8.599,6.621-14.132,6.725c-11.667,0.217-23.342-0.006-35.014-0.015
			c-11.837-0.007-23.675-0.077-35.509,0.113c-3.1,0.051-5.337-0.622-6.719-3.511c-3.092-6.468-8.117-8.538-15.333-8.421
			c-22.858,0.369-45.73,0.222-68.59-0.136c-5.477-0.086-7.843,1.472-9.19,6.949c-3.171,12.901-9.017,24.428-19.045,33.696
			c-9.913,9.161-34.035,11.963-46.913-3.265c-12.099-14.305-17.483-31.273-20.299-49.1c-5.079-32.158-1.405-63.608,10.679-93.839
			c5.245-13.122,12.681-24.947,23.488-34.622c16.825-15.063,54.934-7.434,61.683,18.973c2.454,9.604,2.944,19.716,4.208,29.611
			C108.778,149.797,108.54,152.054,108.54,154.909z M207.924,181.057c-0.696,0.066-1.392,0.132-2.088,0.199
			c-1.667-3.168-3.226-6.399-5.049-9.474c-0.776-1.31-1.986-3.098-3.205-3.277c-4.464-0.659-9.013-0.945-13.534-0.989
			c-14.268-0.138-28.538,0.001-42.805-0.164c-16.513-0.19-33.022-0.649-49.535-0.866c-7.308-0.095-10.198,2.182-12.25,9.112
			c-4.472,15.102-4.921,30.563-4.188,46.146c0.136,2.904,1.647,3.413,4.09,3.446c33.709,0.456,67.417,1.063,101.128,1.373
			c7.375,0.068,13.821-2.79,18.835-8.563c1.094-1.261,3.008-1.81,4.544-2.686c0.975,2.07,3.116,4.439,2.678,6.147
			c-0.892,3.479-3.121,6.631-4.901,9.861c-1.36,2.465-2.877,4.845-4.789,8.039c3.287,0.461,5.486,1.088,7.667,1.025
			c18.128-0.518,36.262-0.986,54.375-1.85c7.958-0.38,8.592-1.894,5.516-9.354c-0.309-0.746-0.62-1.495-1.009-2.2
			c-1.918-3.484-1.992-6.648,2.093-8.479c4.092-1.832,5.41,1.125,6.467,4.251c1.501,4.442,4.6,6.26,9.283,6.083
			c6.314-0.238,12.669,0.2,18.962-0.256c16.553-1.202,32.938-0.244,49.371,2.048c21.307,2.972,35.959,13.449,40.354,35.105
			c2.399,11.821,3.674,23.957,4.382,36.014c1.168,19.883,1.478,39.817,2.118,59.731c0.102,3.151,1.366,4.61,4.761,4.569
			c12.805-0.153,25.611-0.136,38.418-0.078c2.414,0.012,3.561-0.7,3.6-3.277c0.133-8.587,0.887-17.192,0.541-25.756
			c-1.296-32.039-2.363-64.105-4.611-96.085c-2.119-30.146-17.636-51.926-46.022-62.59c-28.918-10.863-59.259-12.286-89.878-9.605
			c-5.971,0.522-11.004,1.764-13.868,7.572c-0.336,0.679-1.075,1.237-1.747,1.661c-2.132,1.343-4.32,2.596-6.486,3.885
			c-0.454-2.4-0.942-4.795-1.346-7.204c-0.132-0.791-0.127-1.627-0.043-2.427c0.274-2.629-0.674-3.792-3.505-3.822
			c-19.614-0.211-39.227-0.606-58.84-0.716c-1.434-0.007-3.409,1.454-4.211,2.786C211.159,173.783,209.646,177.483,207.924,181.057z
			 M56.188,136.167c8.627,6.01,9.132,8.34,3.854,16.098c-0.54,0.793-0.889,1.716-1.329,2.578
			c-11.708,22.884-14.738,46.913-9.384,72.007c0.834,3.909,1.556,7.984,3.276,11.522c1.682,3.459,5.405,5.442,8.892,2.94
			c1.702-1.222,1.973-4.696,2.463-7.232c0.218-1.129-0.648-2.454-0.975-3.702c-6.606-25.282-3.102-49.318,9.041-72.239
			c2.073-3.913,5.189-6.017,10.001-4.83c2.965,0.73,6.064,0.96,9.116,1.285c4.765,0.507,6.292-0.935,6.665-5.736
			c0.729-9.391-1.153-18.152-4.868-26.852c-8.023-18.786-39.099-22.244-50.789-4.236c-13.871,21.369-21.161,44.688-22.016,69.721
			c-0.544,15.915,1.203,31.974,2.822,47.878c1.132,11.115,4.202,21.822,12.208,30.5c8.044,8.718,15.554,11.161,25.914,7.692
			c8.905-2.98,22.284-21.577,21.921-30.7c-0.043-1.066-1.227-3.025-1.745-2.98c-3.172,0.272-6.896,0.154-9.283,1.82
			c-2.409,1.682-3.661,5.191-5.095,8.063c-3.434,6.877-7.184,8.141-14.134,4.651c-7.372-3.7-11.411-10.091-13.285-17.661
			c-6.634-26.786-7.263-53.399,3.824-79.345C46.562,149.735,50.268,142.24,56.188,136.167z M253.895,128.743
			c0.003,0.354,0.007,0.708,0.011,1.062c6.305-0.281,12.618-0.458,18.909-0.926c1.392-0.103,3.912-1.401,3.848-1.858
			c-0.266-1.884-0.976-3.945-2.176-5.404c-1.832-2.226-4.005-4.308-6.397-5.903c-3.165-2.11-6.523-4.745-10.081-5.279
			c-7.151-1.077-14.492-1.061-21.758-1.111c-2.29-0.016-5.193,0.531-6.763,1.971c-4.16,3.813-7.934,8.102-11.487,12.502
			c-2.308,2.857-1.2,4.901,2.364,4.923C231.54,128.784,242.718,128.743,253.895,128.743z M244.768,153.682
			c8.1,0,16.201,0.106,24.297-0.053c3.147-0.063,6.188-0.577,5.839-5.163c-0.333-4.37-2.941-8.264-6.446-8.28
			c-14.093-0.063-28.187-0.07-42.279,0.045c-4.544,0.037-8.25,3.715-8.798,8.142c-0.431,3.474,0.349,5.505,4.554,5.368
			C229.538,153.491,237.156,153.669,244.768,153.682z M178.352,32.111c-8.089,0.002-14.604,6.488-14.454,14.388
			c0.139,7.272,6.782,13.831,14.117,13.937c8.042,0.116,14.486-6.296,14.461-14.392C192.45,37.883,186.596,32.109,178.352,32.111z
			 M308.799,46.105c0.007,8.003,6.125,14.314,13.881,14.316c8.328,0.003,14.437-6.069,14.422-14.334
			c-0.016-8.087-6.218-13.979-14.709-13.973C314.879,32.12,308.792,38.384,308.799,46.105z M246.841,34.03
			c-7.01-0.055-12.584,5.169-12.712,11.912c-0.125,6.664,5.856,12.568,12.743,12.579c6.702,0.009,12.411-5.643,12.389-12.268
			C259.237,39.628,253.603,34.083,246.841,34.03z M241.701,80.025c0.007,0,0.015,0,0.022,0c0,3.069-0.185,6.152,0.051,9.205
			c0.237,3.064,2.109,4.472,5.271,4.291c2.917-0.168,4.495-1.438,4.479-4.47c-0.029-5.327-0.042-10.655-0.024-15.981
			c0.013-3.649-1.685-5.159-5.391-5.088c-3.762,0.072-4.673,1.971-4.439,5.26C241.832,75.492,241.701,77.763,241.701,80.025z"/>
		<path fill-rule="evenodd" clip-rule="evenodd" d="M233.425,273.874c-7.282,0-14.571,0.172-21.846-0.068
			c-3.985-0.131-8.799-5.923-8.012-9.739c0.265-1.288,2.611-3.045,4.025-3.062c17.324-0.214,34.652-0.153,51.978-0.142
			c3.229,0.002,3.634,2.149,3.284,4.662c-0.708,5.096-4.616,8.598-9.992,8.707c-6.477,0.132-12.958,0.031-19.437,0.031
			C233.426,274.134,233.426,274.005,233.425,273.874z"/>
	</g>
</g>
</svg>
